<svg xmlns="http://www.w3.org/2000/svg" viewBox="0 0 863.22 837.36"><defs><style>.cls-1{isolation:isolate;}.cls-2{fill:#84bd33;}.cls-3{fill:#d2e0ec;}.cls-4{fill:#cbd9e4;}.cls-5{fill:#abb7c0;}.cls-6{fill:#aebcd0;}.cls-7{fill:#acbfcd;}.cls-8{fill:#9da8b1;}.cls-9{fill:#bbc7cc;}.cls-10{fill:#adc7d1;}.cls-11{fill:#d9f2f6;}.cls-12,.cls-31{fill:#fff;}.cls-12{opacity:0.3;}.cls-13{fill:#8da3b4;}.cls-14{fill:#d1f1f6;}.cls-15{fill:#5e2a1b;}.cls-16{fill:#3b372b;}.cls-17{fill:#874d1e;}.cls-18{fill:#4a2820;}.cls-19{fill:#b2d9d9;}.cls-20{fill:#ffb187;}.cls-21{fill:#cae8e8;}.cls-22{fill:#22556e;}.cls-23{fill:#572619;}.cls-24{fill:#e68a5a;}.cls-25{fill:#7a2d00;}.cls-26{fill:#1a4154;}.cls-27{fill:#9ec3d6;}.cls-27,.cls-33,.cls-34{mix-blend-mode:multiply;}.cls-28{fill:#7d3724;}.cls-29{fill:#c46929;}.cls-30{fill:#a6541b;}.cls-32{fill:#eb9832;}.cls-33{fill:#d6d2a9;}.cls-34{fill:#a9c7d6;}.cls-35{fill:#daf0f0;}</style></defs><title>jobs</title><g class="cls-1"><g id="Layer_1" data-name="Layer 1"><path class="cls-2" d="M1054.62,732.15h-30.81c-5.35,0-8.47-3.72-9.39-8H489.21c-.92,4.32-4.06,8-9.41,8H449.35c-21,.68-21,31.38,0,32.08h56.38c12.39.13,12.88,19.87,1.44,21.48a9.72,9.72,0,0,1-1.47.12H470.16c-21,.68-21,31.38,0,32.08h92.69c14.26.15,14.83,22.88,1.66,24.72H544.24a14.16,14.16,0,0,0-3,.33H429a14.19,14.19,0,0,0-14.16,14.23v2.33A14.16,14.16,0,0,0,429,873.71h41.87c13.17,1.85,12.6,24.57-1.66,24.72H225.3c-18.93.63-24.18,32.11-1.77,32.08H773.89c23.21-.07,23.21-32,0-32.08H746.32c-14.27-.15-14.84-22.87-1.67-24.72h20.28a14.14,14.14,0,0,0,3-.33H945a14.19,14.19,0,0,0,14.15-14.22v-2.34A14.16,14.16,0,0,0,945,842.63H838.31c-13.17-1.84-12.6-24.57,1.67-24.72h70.77c23.21-.07,23.21-32,0-32.08H899.16c-12.9-.07-12.9-21.47,0-21.6h155.49C1077.82,764.15,1077.82,732.23,1054.62,732.15Z" transform="translate(-208.8 -93.16)"/><path class="cls-2" d="M974.65,787.16h-8.29a14.17,14.17,0,0,0-14.16,14.19v2.34a14.19,14.19,0,0,0,14.16,14.22h8.29a14.19,14.19,0,0,0,14.16-14.22v-2.34A14.17,14.17,0,0,0,974.65,787.16Z" transform="translate(-208.8 -93.16)"/><rect class="cls-3" x="295" y="428.09" width="82.8" height="86.3"/><rect class="cls-4" x="323.3" y="386.7" width="82.8" height="86.3"/><rect class="cls-5" x="809.59" y="527.63" width="13.64" height="111.23"/><polygon class="cls-6" points="533.21 448.83 430.1 448.83 430.1 319.76 533.21 282.21 533.21 448.83"/><polygon class="cls-6" points="554.31 471.24 657.41 471.24 657.41 342.17 554.31 304.62 554.31 471.24"/><rect class="cls-7" x="260.97" y="470.17" width="124.66" height="168.98"/><rect class="cls-4" x="254.85" y="482.31" width="180.07" height="10.52"/><rect class="cls-4" x="254.85" y="504.97" width="180.07" height="10.52"/><rect class="cls-4" x="254.85" y="527.63" width="180.07" height="10.52"/><rect class="cls-4" x="254.85" y="550.29" width="180.07" height="10.52"/><rect class="cls-4" x="254.85" y="572.95" width="180.07" height="10.52"/><rect class="cls-4" x="254.85" y="595.62" width="180.07" height="10.52"/><rect class="cls-4" x="254.85" y="618.28" width="180.07" height="10.52"/><rect class="cls-8" x="377.8" y="429.85" width="124.3" height="209.3"/><rect class="cls-4" x="472.55" y="347.29" width="151.91" height="291.86"/><rect class="cls-7" x="472.55" y="369" width="151.08" height="10.52"/><rect class="cls-7" x="472.55" y="391.66" width="151.08" height="10.52"/><rect class="cls-7" x="472.55" y="414.32" width="151.08" height="10.52"/><rect class="cls-7" x="472.55" y="436.98" width="151.08" height="10.52"/><rect class="cls-7" x="472.55" y="459.65" width="151.08" height="10.52"/><rect class="cls-7" x="472.55" y="482.31" width="151.08" height="10.52"/><rect class="cls-7" x="472.55" y="504.97" width="151.08" height="10.52"/><rect class="cls-7" x="472.55" y="527.63" width="151.08" height="10.52"/><rect class="cls-7" x="472.55" y="550.29" width="151.08" height="10.52"/><rect class="cls-7" x="472.55" y="572.95" width="151.08" height="10.52"/><rect class="cls-9" x="472.55" y="595.62" width="151.08" height="10.52"/><rect class="cls-10" x="472.55" y="618.28" width="151.08" height="10.52"/><rect class="cls-5" x="572.55" y="457.06" width="266.28" height="182.09"/><rect class="cls-11" x="563.66" y="448.17" width="280.96" height="14.47"/><rect class="cls-12" x="377.8" y="429.85" width="27.9" height="209.3"/><rect class="cls-12" x="472.55" y="347.29" width="29.55" height="291.86"/><polygon class="cls-13" points="838.83 465.57 572.43 489.65 572.43 462.64 838.83 462.64 838.83 465.57"/><rect class="cls-13" x="583.53" y="477.71" width="16.78" height="20.8"/><rect class="cls-13" x="612.34" y="477.83" width="16.78" height="20.8"/><rect class="cls-13" x="641.14" y="477.95" width="16.78" height="20.8"/><rect class="cls-13" x="669.93" y="478.08" width="16.78" height="20.8"/><rect class="cls-13" x="698.74" y="478.19" width="16.78" height="20.8"/><rect class="cls-13" x="727.54" y="478.31" width="16.78" height="20.8"/><rect class="cls-13" x="756.34" y="478.44" width="16.78" height="20.8"/><rect class="cls-13" x="785.14" y="478.56" width="16.79" height="20.8"/><rect class="cls-13" x="813.94" y="478.68" width="16.78" height="20.8"/><rect class="cls-13" x="583.53" y="512.45" width="16.78" height="20.79"/><rect class="cls-13" x="612.34" y="512.57" width="16.78" height="20.8"/><rect class="cls-13" x="641.14" y="512.69" width="16.78" height="20.8"/><rect class="cls-13" x="669.93" y="512.81" width="16.78" height="20.8"/><rect class="cls-13" x="698.74" y="512.93" width="16.78" height="20.8"/><rect class="cls-13" x="727.54" y="513.05" width="16.78" height="20.8"/><rect class="cls-13" x="756.34" y="513.17" width="16.78" height="20.8"/><rect class="cls-13" x="785.14" y="513.29" width="16.79" height="20.8"/><rect class="cls-13" x="813.94" y="513.41" width="16.78" height="20.8"/><rect class="cls-13" x="583.53" y="547.18" width="16.78" height="20.8"/><rect class="cls-13" x="612.34" y="547.3" width="16.78" height="20.8"/><rect class="cls-13" x="641.14" y="547.42" width="16.78" height="20.8"/><rect class="cls-13" x="669.93" y="547.54" width="16.78" height="20.8"/><rect class="cls-13" x="698.74" y="547.66" width="16.78" height="20.8"/><rect class="cls-13" x="727.54" y="547.78" width="16.78" height="20.8"/><rect class="cls-13" x="756.34" y="547.9" width="16.78" height="20.8"/><rect class="cls-13" x="785.14" y="548.02" width="16.79" height="20.8"/><rect class="cls-13" x="813.94" y="548.15" width="16.78" height="20.8"/><rect class="cls-13" x="583.53" y="581.92" width="16.78" height="20.8"/><rect class="cls-13" x="612.34" y="582.04" width="16.78" height="20.8"/><rect class="cls-13" x="641.14" y="582.16" width="16.78" height="20.8"/><rect class="cls-13" x="669.93" y="582.28" width="16.78" height="20.8"/><rect class="cls-13" x="586.93" y="619.23" width="44.29" height="19.13"/><rect class="cls-13" x="651.61" y="619.23" width="44.3" height="19.13"/><rect class="cls-13" x="716.59" y="619.23" width="44.3" height="19.13"/><rect class="cls-13" x="780.15" y="619.23" width="44.3" height="19.13"/><rect class="cls-13" x="698.74" y="582.4" width="16.78" height="20.8"/><rect class="cls-13" x="727.54" y="582.52" width="16.78" height="20.8"/><rect class="cls-13" x="756.34" y="582.64" width="16.78" height="20.8"/><rect class="cls-13" x="785.14" y="582.76" width="16.79" height="20.8"/><rect class="cls-13" x="813.94" y="582.88" width="16.78" height="20.8"/><rect class="cls-11" x="572.43" y="610.39" width="266.4" height="8.55"/><rect class="cls-11" x="422.35" y="455.41" width="32.36" height="9.5"/><rect class="cls-11" x="422.35" y="477.55" width="32.36" height="9.5"/><rect class="cls-11" x="422.35" y="499.71" width="32.36" height="9.5"/><rect class="cls-11" x="422.35" y="521.86" width="32.36" height="9.5"/><rect class="cls-11" x="422.35" y="544" width="32.36" height="9.5"/><rect class="cls-12" x="422.35" y="566.15" width="32.36" height="9.5"/><rect class="cls-11" x="422.35" y="588.3" width="32.36" height="9.5"/><rect class="cls-12" x="422.35" y="610.45" width="32.36" height="9.5"/><rect class="cls-7" x="685.92" y="279.88" width="124.66" height="168.95"/><rect class="cls-11" x="679.79" y="292.02" width="141.2" height="10.52"/><rect class="cls-11" x="679.79" y="314.68" width="141.2" height="10.52"/><rect class="cls-11" x="679.79" y="337.34" width="141.2" height="10.52"/><rect class="cls-11" x="679.79" y="360.01" width="141.2" height="10.52"/><rect class="cls-11" x="679.79" y="382.67" width="141.2" height="10.52"/><rect class="cls-11" x="679.79" y="405.33" width="141.2" height="10.52"/><rect class="cls-11" x="679.79" y="427.99" width="141.2" height="10.52"/><polygon class="cls-14" points="475.53 639.14 469.57 639.14 469.57 344.31 624.46 344.31 624.46 350.27 475.53 350.27 475.53 639.14"/><polygon class="cls-11" points="433.08 427.99 427.12 427.99 427.12 317.68 532.19 279.41 534.23 285.01 433.08 321.85 433.08 427.99"/><polygon class="cls-14" points="380.78 639.14 374.82 639.14 374.82 426.87 472.55 426.87 472.55 432.83 380.78 432.83 380.78 639.14"/><rect class="cls-15" x="436.72" y="280.46" width="9.85" height="274.83" transform="translate(-299.61 31.18) rotate(-14.55)"/><rect class="cls-16" x="266.18" y="861.61" width="66.74" height="30.81" transform="translate(-805.13 1021.09) rotate(-85.97)"/><path class="cls-17" d="M275.44,910.28c.07,1.74,0,3.87-.05,5.56,0,.77-.07,1.46-.1,2a7.07,7.07,0,0,1-.05.77v.07a.71.71,0,0,0,.15.3.8.8,0,0,0,.29.15h.08c3.94-.15,20.17.26,24.26.26a5.26,5.26,0,0,0,.61,0h.05L301,919l.54-4.46c40.89,14.17,63.27,3.82,68.42,1,2.46-1.31,2.31-4.95,1.23-6.11l-.1-.07-.42-.25c2.61-.86,3.52-7.51.67-11-3.45-4.24-15-4.46-27.51-4.19-13.4.27-21.28-9.41-23-13.25s-4.88-3.82-4.88-3.82c-2.21-.71-5.59.69-9.06,5.22s-3.25,9.41-10.81,9.76c-9.26.42-11.48-10.05-15.32-6.63-2.59,2.29-3.94,5.76-5.05,9.11-1,2.93-1.11,10.25-.49,13.38A18,18,0,0,1,275.44,910.28Z" transform="translate(-208.8 -93.16)"/><path class="cls-18" d="M275.29,917.86c0,.3,0,.57-.05.77v.07a.71.71,0,0,0,.15.3.8.8,0,0,0,.29.15h.08c3.94-.15,20.17.26,24.26.26h.49c.05,0,.1,0,.12,0h.05A.49.49,0,0,0,301,919l.54-4.46c40.89,14.17,63.27,3.82,68.42,1,2.46-1.31,2.31-4.95,1.23-6.11l-.1-.07-.42-.25s-9.82,7.68-25.76,7.68c-15.54,0-34-2.9-43.07-7.63a4,4,0,0,0-1.7-.47l-24.92-1a18,18,0,0,1,.22,2.56c.07,1.74,0,3.84-.05,5.56C275.36,916.61,275.32,917.3,275.29,917.86Z" transform="translate(-208.8 -93.16)"/><path class="cls-19" d="M289.49,517.92l-40.71-3.68-19.42-73.63-7.07-26.83A41.58,41.58,0,0,1,221,403.4a40,40,0,0,1,1.3-10.38l18.46-71.73a3.32,3.32,0,0,1,.11-.41c0-.19.11-.49.19-.78.11-.45.26-1,.44-1.75l.63-2.38a86.27,86.27,0,0,1,9.12-20.35,58.13,58.13,0,0,1,6.77-8.86l20.39,18.64-24.59,103v0s0,0,0,.08l24.63,75.34Z" transform="translate(-208.8 -93.16)"/><polygon class="cls-20" points="35.76 405.07 39.98 421.07 80.69 424.78 74.25 405.07 35.76 405.07"/><polygon class="cls-16" points="143.88 820.58 174.62 822.74 179.3 756.16 148.57 754 143.88 820.58"/><path class="cls-17" d="M346.28,914.79c.07,1.75,0,3.87,0,5.57,0,.76-.07,1.45-.09,2a4.76,4.76,0,0,1-.06.76v.08a.8.8,0,0,0,.15.29.77.77,0,0,0,.3.15h.07c3.94-.15,20.17.27,24.26.27a3.52,3.52,0,0,0,.61,0h0l.32-.41.54-4.46c40.89,14.16,63.27,3.82,68.42,1,2.47-1.3,2.32-4.95,1.23-6.11l-.09-.07-.42-.25c2.61-.86,3.52-7.51.66-11-3.45-4.23-15-4.46-27.51-4.19-13.4.27-21.28-9.4-23-13.25s-4.88-3.81-4.88-3.81c-2.22-.72-5.59.69-9.06,5.22s-3.25,9.41-10.81,9.75c-9.26.42-11.48-10-15.32-6.63-2.59,2.3-3.94,5.77-5.05,9.12-1,2.93-1.11,10.24-.49,13.37A16.6,16.6,0,0,1,346.28,914.79Z" transform="translate(-208.8 -93.16)"/><path class="cls-18" d="M346.14,922.38c0,.29,0,.57-.06.76v.08a.8.8,0,0,0,.15.29.77.77,0,0,0,.3.15h.07c3.94-.15,20.17.27,24.26.27h.49s.1,0,.12,0h0a.49.49,0,0,0,.32-.41l.54-4.46c40.89,14.16,63.27,3.82,68.42,1,2.47-1.3,2.32-4.95,1.23-6.11l-.09-.07-.42-.25s-9.83,7.69-25.76,7.69c-15.54,0-34-2.91-43.08-7.64a4.2,4.2,0,0,0-1.7-.47l-24.92-1a16.6,16.6,0,0,1,.22,2.56c.07,1.75,0,3.85,0,5.57C346.21,921.12,346.16,921.81,346.14,922.38Z" transform="translate(-208.8 -93.16)"/><path class="cls-21" d="M426.78,302.69v181.2H258.83a7.66,7.66,0,0,1-7.63-7.64V295.61a60,60,0,0,1,6.77-8.86,41,41,0,0,1,18.24-11.64l6.55-1.42h0l6.82-1.48,3.46-.75,8-1.73,10.18-2.18h39.81l18.72,3.22,4.28.74,8.56,1.44,1.3.24,8.93,1.51,2,.34.34.07h.07l4.23.74a35.16,35.16,0,0,1,13.65,6.77C418.26,286.68,423.33,293,426.78,302.69Z" transform="translate(-208.8 -93.16)"/><rect class="cls-20" x="101.3" y="143.7" width="48.91" height="38.24"/><path class="cls-22" d="M417.42,561.43h.1c-.25,5.05-3.45,64.32-7.49,130.94-4.48,73.12-10,155.06-13.92,183.7l-58-7.9c0-.72-.13-1.43-.15-2.15,0,0-.05-.07-.1-.1,3.67-28.89,9.53-112.2,14.31-186.6,3.08-48,5.71-92.26,7-115.82l-7.44,3.27-28.35,12.54,11.87,242.43,2.15,43.74c-2.39,1.43-7.22,3-13.43,4.31-12.56,2.56-30.73,3.67-45.61-1.36l-14-286.54L257.73,501H420.27Z" transform="translate(-208.8 -93.16)"/><path class="cls-20" d="M285.46,192.63v.69a54.31,54.31,0,0,0,54.32,54.31c30,0,59-24.69,54.32-54.31-2.19-13.9-6.2-26.16-9.14-57.37l-32.48-9.3-57.56,11.48c-5.41,14.39-7.73,30.19-8.73,41.19,2.8.43,4.93,3.23,4.93,6.62C291.12,189.64,288.58,192.63,285.46,192.63Z" transform="translate(-208.8 -93.16)"/><path class="cls-23" d="M265.8,135.43A54.08,54.08,0,0,1,284,110.52c19.44-14.79,46.58-19.28,70.43-16.65,8.82,1,17.6,1.67,26.47,2.15,5.42.3,10.48,1.29,11.95,7.32,1.81,7.48,2.74,20.69-.16,28-1.48,3.72-3.91,7.65-7.23,9.77-1.53,1-3.81,1.21-5.18,2.3-5.45,4.38-3.59,12.84-3.08,18.73.46,5.37.76,10.81,1.39,16.15.47,3.85-8.39,3.51-8.77-.18-.78-1.88-1.14-8.24-5.1-6.54-13,5.58-9,23.66-8,34.54,2.29,23.82-17.3,30.9-34.94,30.46-13-.33-17.71,0-24.86-9.9-9.47-13.09-23.73-24.17-30.73-39C259,172.46,260.17,150.85,265.8,135.43Z" transform="translate(-208.8 -93.16)"/><path class="cls-20" d="M369.8,185.23c0,11.44-2.8,17.24-9.16,17.24s-11.52-3.89-11.52-15.33,5.16-20.73,11.52-20.73S369.8,173.79,369.8,185.23Z" transform="translate(-208.8 -93.16)"/><path class="cls-24" d="M356,183.46c0,3.52,2.42,6.37,5.37,6.37,0-1.68.14-6.33.7-12.67a3.2,3.2,0,0,0-.7-.07C358.39,177.09,356,179.94,356,183.46Z" transform="translate(-208.8 -93.16)"/><rect class="cls-25" x="48.93" y="390.72" width="162.54" height="17.14"/><polygon class="cls-26" points="150.33 470.34 167.97 460.49 148.62 500.27 150.33 470.34"/><path class="cls-22" d="M246.83,506.85l16,56.77V514.23A23.87,23.87,0,0,1,246.83,506.85Z" transform="translate(-208.8 -93.16)"/><rect class="cls-22" x="87.86" y="390.71" width="10.74" height="22.98"/><rect class="cls-22" x="143" y="390.71" width="10.74" height="22.98"/><path class="cls-19" d="M320.72,483.87l4.9-74.21a2.79,2.79,0,0,1,5.56-.09l7.3,74.3Z" transform="translate(-208.8 -93.16)"/><path class="cls-22" d="M296.66,585.66s48-6.3,80.11-32C350.5,544.41,298.13,559.19,296.66,585.66Z" transform="translate(-208.8 -93.16)"/><path class="cls-27" d="M323.37,579.36s-17.34,5.48-26.71,6.3A200.19,200.19,0,0,0,324,591.41Z" transform="translate(-208.8 -93.16)"/><path class="cls-28" d="M474.75,541.19a2.64,2.64,0,0,1-1.2-1.26H381.69V666.38h102a7.86,7.86,0,0,0,7.67-7.83v-107C485.88,548.07,480.51,544.32,474.75,541.19Z" transform="translate(-208.8 -93.16)"/><path class="cls-27" d="M425.2,483.87h-4.93V501l-2.85,60.41h.1c-.25,5.05-3.45,64.32-7.49,130.94H373.18a23.63,23.63,0,0,1-16.82-7.07,23,23,0,0,1-4.23-6c3.08-48,5.71-92.26,7-115.82L349.57,570c0-3.72,2.24-10,2.24-12.25.05-23,10.22-27.09,10.22-27.09L363.38,501l.79-17.15,9.91-197.11Z" transform="translate(-208.8 -93.16)"/><path class="cls-15" d="M392.74,556V658.53a7.85,7.85,0,0,1-7.86,7.84h-8.59a7.82,7.82,0,0,1-7.83-7.84V557.73c0-17.8,10.54-17.8,10.54-17.8a15.84,15.84,0,0,1,11.25,4.68,14.61,14.61,0,0,1,2.69,3.64C394.27,550.64,392.74,553.35,392.74,556Z" transform="translate(-208.8 -93.16)"/><path class="cls-29" d="M407.13,604.75v65.94h29.06a4,4,0,0,0,3.87-3.94v-62Z" transform="translate(-208.8 -93.16)"/><path class="cls-30" d="M400.46,604.75v62a4,4,0,0,0,4,4h5.43a4,4,0,0,0,4-4v-62Z" transform="translate(-208.8 -93.16)"/><path class="cls-29" d="M454.65,604.75v65.94h29.07a4,4,0,0,0,3.87-3.94v-62Z" transform="translate(-208.8 -93.16)"/><path class="cls-30" d="M448,604.75v62a4,4,0,0,0,3.95,4h5.43a4,4,0,0,0,4-4v-62Z" transform="translate(-208.8 -93.16)"/><path class="cls-15" d="M491.27,615.21l-9.38,0-73.83.17c-7.15-.81-11.79-6.73-11.79-14.07V584.83a1.78,1.78,0,1,0-3.53-.4L382.3,549.09l-.3-.84-3-8.32h31.45l9.65,8.32,70.85,61,.3.25Z" transform="translate(-208.8 -93.16)"/><path class="cls-29" d="M497.26,558.52v34.37a14.32,14.32,0,0,1-14.32,14.32H413.5a14.32,14.32,0,0,1-14.33-14.32V558.52c0-.64,0-1.27-.1-1.91a18.57,18.57,0,0,0-18.49-16.67h98.08a18.53,18.53,0,0,1,18.5,16.67C497.22,557.25,497.26,557.88,497.26,558.52Z" transform="translate(-208.8 -93.16)"/><path class="cls-15" d="M431.78,615.44v5a6.54,6.54,0,0,1-13.07,0v-5Z" transform="translate(-208.8 -93.16)"/><path class="cls-31" d="M435.29,615.44v5a6.54,6.54,0,0,1-13.07,0v-5Z" transform="translate(-208.8 -93.16)"/><path class="cls-32" d="M497.16,556.6H399.07a18.53,18.53,0,0,0-18.49-16.66h98.09a18.51,18.51,0,0,1,18.49,16.66Z" transform="translate(-208.8 -93.16)"/><path class="cls-33" d="M420.27,539.93s8.57,11,4.93,28.35c-3,14.17,16.54,32.74,30.91,1.48C452.5,542.53,424.54,539.37,420.27,539.93Z" transform="translate(-208.8 -93.16)"/><path class="cls-20" d="M461.24,537.65c0,.28,0,.56,0,.85,0,4.89-.52,9.57-.93,14.42-.67,7.88-2.35,15.88-7.7,22s-19.56,9.29-21.67-1.63c-.89-4.59,1.6-9.32,1.11-14.15-.47-4.61-2.32-8.47-4.47-12.5-2-3.68-5.22-6.69-6.7-10.62a35.65,35.65,0,0,1-1.73-13.76,26.75,26.75,0,0,0-.24-6.69c-.36-1.93-1.28-4.12-1.12-6.07,7-1.31,13.18-5.17,20.54-5.39,4.33-.12,8.68,1.47,12.6-.72.92,7.16,4.65,16.87,7.46,23.75C459.9,530.75,461.09,533.82,461.24,537.65Z" transform="translate(-208.8 -93.16)"/><rect class="cls-29" x="213.42" y="509.99" width="13.06" height="12.29"/><path class="cls-15" d="M479.19,615.44v5a6.54,6.54,0,0,1-13.07,0v-5Z" transform="translate(-208.8 -93.16)"/><path class="cls-31" d="M482.7,615.44v5a6.54,6.54,0,0,1-13.07,0v-5Z" transform="translate(-208.8 -93.16)"/><rect class="cls-29" x="260.83" y="509.99" width="13.07" height="12.29"/><path class="cls-21" d="M453.23,512.45c-5.47,3.46-27.83,6.7-34,4.95L415,502.22l-1.41-.78a7.89,7.89,0,0,1-3.83-4.76l-3.54-12.8L398,454a117.44,117.44,0,0,1-2.61-11.76c-.67-4-1.11-8-1.37-11.94L384.88,287l28.28-4.32c5.1,4.05,10.16,10.34,13.62,20.05a72.73,72.73,0,0,1,3.35,13.92l.89,9.71,8.82,95.58,11.94,65.67a12.54,12.54,0,0,1-.15,5.14l-1,4.09Z" transform="translate(-208.8 -93.16)"/><path class="cls-31" d="M395.19,275.11a3.17,3.17,0,0,0-.37,0l0,0Z" transform="translate(-208.8 -93.16)"/><polygon class="cls-15" points="175.45 460.48 165.63 460.48 165.55 390.72 165.25 178.35 173.81 179.8 175.12 180.02 175.38 390.72 175.45 460.48"/><path class="cls-34" d="M337.38,865.48c-2.39,1.43-7.22,3-13.43,4.31l8.77-99.28Z" transform="translate(-208.8 -93.16)"/><path class="cls-22" d="M348.63,732.21S335.71,857,333.67,873c8.05,6.82,48.45,7.86,62.44,3.09,2.39-17.46,5.37-54.71,8.35-97.7Z" transform="translate(-208.8 -93.16)"/><polygon class="cls-24" points="150.31 151.52 150.31 159.74 131.22 154.94 150.31 151.52"/><path class="cls-34" d="M415,502.22s16.16,1,23.89-1.2c-5,2.13-19.06,4.65-23,4.32Z" transform="translate(-208.8 -93.16)"/><path class="cls-19" d="M339,283c-37,8.42-56.21-9.32-56.21-9.32l6.82-1.48,3.46-.75,8-1.73C312.35,273.74,329.18,279.65,339,283Z" transform="translate(-208.8 -93.16)"/><path class="cls-35" d="M372.16,271.17c-13.16,15.59-67.86,14.33-79.1,4.54l-3.57-3.39.11-.11,3.46-2.71,17-13.51s22.1,7.93,48.89,0A200.85,200.85,0,0,0,372.16,271.17Z" transform="translate(-208.8 -93.16)"/></g></g></svg>