<svg xmlns="http://www.w3.org/2000/svg" viewBox="0 0 1053.05 865.64"><defs><style>.cls-1{isolation:isolate;}.cls-2,.cls-7{fill:#ada8bc;}.cls-2{opacity:0.7;}.cls-3{fill:#691f20;}.cls-4{fill:#022b29;}.cls-5,.cls-54{fill:#243332;}.cls-11,.cls-12,.cls-13,.cls-20,.cls-34,.cls-35,.cls-36,.cls-37,.cls-50,.cls-51,.cls-58,.cls-6,.cls-62,.cls-63,.cls-64,.cls-65,.cls-66,.cls-68,.cls-76,.cls-79,.cls-80,.cls-91,.cls-92,.cls-93,.cls-95{fill:none;}.cls-50,.cls-54,.cls-6{stroke:#052b2a;}.cls-50,.cls-54,.cls-6,.cls-80,.cls-91,.cls-92{stroke-miterlimit:10;}.cls-6{stroke-width:13.45px;}.cls-8{fill:#c12b08;}.cls-9{fill:#231e22;}.cls-10{fill:#0f0b0d;}.cls-11{stroke:#280b09;}.cls-11,.cls-12{stroke-linecap:square;stroke-width:52.12px;}.cls-11,.cls-12,.cls-13,.cls-17,.cls-20,.cls-34,.cls-35,.cls-36,.cls-37,.cls-41,.cls-42,.cls-51,.cls-58,.cls-60,.cls-61,.cls-62,.cls-63,.cls-64,.cls-65,.cls-66,.cls-67,.cls-68,.cls-69,.cls-73,.cls-74,.cls-75,.cls-76,.cls-79,.cls-82,.cls-83,.cls-84,.cls-85,.cls-93,.cls-95{stroke-linejoin:round;}.cls-12{stroke:#601d18;}.cls-13,.cls-68,.cls-76{stroke:#7c3223;}.cls-13,.cls-20,.cls-34,.cls-35,.cls-36,.cls-37,.cls-41,.cls-42,.cls-51,.cls-58,.cls-60,.cls-61,.cls-62,.cls-63,.cls-64,.cls-65,.cls-66,.cls-67,.cls-68,.cls-69,.cls-73,.cls-74,.cls-75,.cls-76,.cls-79,.cls-82,.cls-83,.cls-84,.cls-85,.cls-91,.cls-92,.cls-95{stroke-linecap:round;}.cls-13{stroke-width:40.17px;}.cls-14{fill:#7c3223;}.cls-15{fill:#63261c;}.cls-16{fill:#493846;}.cls-17{fill:#271d22;stroke:#271d22;stroke-width:3.14px;}.cls-18{fill:#c47133;}.cls-19{fill:#d3d3d3;}.cls-20,.cls-79{stroke:#ff9906;}.cls-20{stroke-width:31.49px;}.cls-21{fill:#e08546;}.cls-22{fill:#282c35;}.cls-23,.cls-60,.cls-61{fill:#f58d6c;}.cls-24,.cls-39,.cls-41,.cls-42,.cls-73{fill:#ffb288;}.cls-25{fill:#242426;}.cls-26{fill:#5b271e;}.cls-27{fill:#0f0f0f;}.cls-27,.cls-77{opacity:0.6;}.cls-28{fill:#332730;}.cls-29{fill:#e0e0e0;}.cls-30{fill:#194d82;}.cls-31{fill:#2c7fb7;}.cls-32,.cls-43,.cls-67,.cls-69,.cls-71{fill:#fff;}.cls-33{fill:#2d2524;}.cls-34,.cls-35{stroke:#514644;}.cls-34{stroke-width:2.73px;}.cls-35{stroke-width:2.8px;}.cls-36{stroke:#f08c6c;stroke-width:2.52px;}.cls-37{stroke:#ce624d;stroke-width:2.88px;}.cls-38{fill:#191d2d;}.cls-38,.cls-39,.cls-40,.cls-41,.cls-43,.cls-70,.cls-71,.cls-72,.cls-74,.cls-75{fill-rule:evenodd;}.cls-40{fill:#686f89;}.cls-41,.cls-42{stroke:#191817;stroke-width:0.61px;}.cls-43{opacity:0.16;}.cls-44,.cls-47{fill:#6d382c;}.cls-45{fill:#ffb305;}.cls-46{fill:#cc6a4c;}.cls-47{opacity:0.43;mix-blend-mode:multiply;}.cls-48{fill:#8e3925;}.cls-49{fill:#e23405;}.cls-50{stroke-width:13.14px;}.cls-51{stroke:#194d82;stroke-width:36.77px;}.cls-52{fill:#056793;}.cls-53{fill:#0a3b70;}.cls-54{stroke-width:0.93px;}.cls-55{fill:#2b282b;}.cls-56{fill:#605d60;}.cls-57{fill:#424142;}.cls-58,.cls-61{stroke:#f9c8a7;}.cls-58,.cls-63{stroke-width:8.33px;}.cls-59,.cls-82,.cls-83,.cls-84,.cls-85{fill:#f9c8a7;}.cls-60{stroke:#f29981;}.cls-60,.cls-61{stroke-width:6.86px;}.cls-62,.cls-63,.cls-64,.cls-65,.cls-66{stroke:#ffb287;}.cls-62{stroke-width:5.79px;}.cls-64{stroke-width:6.92px;}.cls-65{stroke-width:7.35px;}.cls-66{stroke-width:6.49px;}.cls-67{stroke:#4f3b43;stroke-width:48.86px;}.cls-68{stroke-width:39.09px;}.cls-69,.cls-73,.cls-74,.cls-75{stroke:#ffb288;}.cls-69{stroke-width:8.69px;}.cls-70{fill:#71931d;}.cls-72,.cls-74{fill:#935156;}.cls-73,.cls-74,.cls-75{stroke-width:7.08px;}.cls-75{fill:#3f1d17;}.cls-76{stroke-width:39.18px;}.cls-77{fill:#351917;}.cls-78{fill:#ff9906;}.cls-79{stroke-width:28.23px;}.cls-80{stroke:#f33;stroke-width:5.6px;}.cls-81{fill:#f33;}.cls-82,.cls-83,.cls-84,.cls-85{stroke:#f58d6c;}.cls-82{stroke-width:4.55px;}.cls-83{stroke-width:4.78px;}.cls-84{stroke-width:4.38px;}.cls-85{stroke-width:3.79px;}.cls-86{fill:#e6e4f9;}.cls-87{fill:#332b2a;}.cls-88{fill:#f79170;}.cls-89{fill:#543e45;}.cls-90{fill:#f7f6f2;}.cls-91{stroke:#8e3925;stroke-width:2.91px;}.cls-92{stroke:#422b27;stroke-width:1.82px;}.cls-93{stroke:#32282f;stroke-width:9.44px;}.cls-94{fill:#a02407;}.cls-95{stroke:#7f1905;stroke-width:8.71px;}.cls-96{fill:#ccc8db;}.cls-97{fill:#d84023;}.cls-98{fill:#32282f;}</style></defs><title>real-projects</title><g class="cls-1"><g id="Layer_1" data-name="Layer 1"><path class="cls-2" d="M1154,945.22H124.7a10.21,10.21,0,0,1-7.81-16.79L257.56,761.64a10.21,10.21,0,0,1,7.8-3.62h748a10.19,10.19,0,0,1,7.8,3.62l140.67,166.79A10.21,10.21,0,0,1,1154,945.22Z" transform="translate(-114.47 -79.58)"/><path class="cls-3" d="M375.18,156.48c-3,14.72-14.31,19.49-22.09,19.4l-10.52-56.23C362.43,120.73,378.23,141.76,375.18,156.48Z" transform="translate(-114.47 -79.58)"/><path class="cls-4" d="M638,762.2c-6.25,0-12.56-2.82-12.56-9.14V548.5c0-5.92,5.64-10.73,12.56-10.73s12.56,4.81,12.56,10.73V753.06C650.51,759.38,644.2,762.2,638,762.2Z" transform="translate(-114.47 -79.58)"/><path class="cls-5" d="M619.4,730.86v19.73c0,8.06,8.31,12.65,18.56,12.65s18.55-4.59,18.55-12.66V730.86Z" transform="translate(-114.47 -79.58)"/><path class="cls-5" d="M638,581.17c-10.25,0-18.56-15.13-18.56-34.86V611.8c0,19.73,8.31,16.4,18.56,16.4s18.55,3.33,18.55-16.4V546.31C656.51,566,648.21,581.17,638,581.17Z" transform="translate(-114.47 -79.58)"/><path class="cls-6" d="M590.82,782c0-8.64,5.94-19.73,19.72-22.48" transform="translate(-114.47 -79.58)"/><path class="cls-6" d="M730.73,784.56c0-8.65-6.31-20.73-19.72-22.49l-72.86-6.61" transform="translate(-114.47 -79.58)"/><path class="cls-6" d="M688,782c0-8.64-5.94-19.73-19.72-22.48" transform="translate(-114.47 -79.58)"/><path class="cls-4" d="M714.06,792.56c0,8,7.46,14.47,16.67,14.47s16.68-6.48,16.68-14.47-7.47-14.46-16.68-14.46S714.06,784.57,714.06,792.56Z" transform="translate(-114.47 -79.58)"/><path class="cls-6" d="M547,784.56c0-8.65,6.31-20.73,19.72-22.49l72.86-6.61" transform="translate(-114.47 -79.58)"/><ellipse class="cls-4" cx="475.69" cy="707.7" rx="16.67" ry="14.47"/><ellipse class="cls-4" cx="431.1" cy="712.98" rx="16.67" ry="14.47"/><polygon class="cls-7" points="237.31 723.17 222.6 723.26 270.67 434.24 284.99 434.04 237.31 723.17"/><path class="cls-8" d="M385.56,866.23c27.85,30.61-1.91,49.57-45.27,8-13.94-18.81-6.2-30-12.21-35.94l-12.66,24.41-9-4.09,12.49-36.18c3.12-14,8.92-25,32.13-28.2C323.22,809.33,373.76,890.86,385.56,866.23Z" transform="translate(-114.47 -79.58)"/><polygon class="cls-7" points="780.84 736.61 796.84 736.64 748.77 435.92 733.15 435.72 780.84 736.61"/><path class="cls-9" d="M871.52,842.8l39.9,6.18c3.31,7.29,3.94,25.39,3.94,25.39h0l-31.81.75c-27.87,16.78-53,12.55-84.21,2.67-2.5-1.49-1.11-10.78,2-12.62C841.51,858.7,839.28,876.06,871.52,842.8Z" transform="translate(-114.47 -79.58)"/><path class="cls-10" d="M883.55,875.12l31.81-.75-.46,15.8L883,889.63l.18-9.62c-27.11,16.47-48.3,9.76-79.16,3.76-1.57-.31-5.12-6.3-5.12-6.3C828.78,887.05,854.82,890.21,883.55,875.12Z" transform="translate(-114.47 -79.58)"/><path class="cls-11" d="M1016.65,583.6c-72.9-7.7-108.95,4.08-171.59,26.1l39.3,217.49" transform="translate(-114.47 -79.58)"/><path class="cls-12" d="M1028.2,585.53c-72.9-7.7-133,.35-195.68,22.37l18.31,219.29" transform="translate(-114.47 -79.58)"/><line class="cls-13" x1="867.24" y1="238.65" x2="719.78" y2="292.42"/><path class="cls-14" d="M1027,611.19l-2.38.42c-31,5.4-61-14-66.56-43L919.54,367.05l-5.67-29.63a65.64,65.64,0,0,1-1-7.27c-2-26.33,12.52-50.15,41-55.1l-.93-3.24c31-5.42,67.64,19.59,73.21,48.67l49.29,257.09C1081,606.65,1058.07,605.77,1027,611.19Z" transform="translate(-114.47 -79.58)"/><polygon class="cls-15" points="905.21 261.75 836.02 449.26 828.24 408.59 905.21 261.75"/><path class="cls-16" d="M838.2,864.63l40.68-3.6c3.74,7.08,5.48,25.1,5.48,25.1h0l-31.7,2.68c-26.81,18.44-52.16,15.76-83.9,7.79-2.58-1.34-1.77-10.69,1.2-12.71C809.7,875,804,883.77,838.2,864.63Z" transform="translate(-114.47 -79.58)"/><path class="cls-17" d="M852.66,888.81l31.7-2.68.5,15.8L853,903.33l-.4-9.61c-26.06,18.09-47.62,12.68-78.79,8.56-1.58-.21-5.49-6-5.49-6C798.71,904.05,824.89,905.63,852.66,888.81Z" transform="translate(-114.47 -79.58)"/><path class="cls-18" d="M978.46,272.79c-45.07,15.08-56.25,63.11-45.26,128.92-24.06-66.51-18.27-112.27,20.12-127.31Z" transform="translate(-114.47 -79.58)"/><path class="cls-19" d="M993.47,267.75c-18.66,8.33-45.54,7.79-63,31.28l-6.31,15.72s41-30.65,72.08-32.56Z" transform="translate(-114.47 -79.58)"/><polyline class="cls-20" points="198.71 233.81 242.53 363.75 307.15 369.09"/><rect class="cls-21" x="386.39" y="163.87" width="261.7" height="312.78" rx="46.24" ry="46.24"/><path class="cls-21" d="M744.64,594.14l-215.56-.09c-7.52,0-14-5.15-16.59-12.38a20.24,20.24,0,0,1-1.31-7.24c0-10.8,8-19.6,17.91-19.6l215.57.09c9.87,0,17.91,8.81,17.9,19.62a20.63,20.63,0,0,1-1.31,7.23,20.17,20.17,0,0,1-4,6.62A17.15,17.15,0,0,1,744.64,594.14Z" transform="translate(-114.47 -79.58)"/><path class="cls-5" d="M758.64,608.51l-242.16-.09c-7.52,0-7.51-24.71,0-24.71l242.16.09C766.18,583.8,763.58,608.51,758.64,608.51Z" transform="translate(-114.47 -79.58)"/><path class="cls-22" d="M691.68,178.82a37.58,37.58,0,0,1-37.2,36H620.11a37.6,37.6,0,0,1-37.21-36l-2-60.91a34.74,34.74,0,0,1,34.85-36h43a34.75,34.75,0,0,1,34.86,36Z" transform="translate(-114.47 -79.58)"/><polygon class="cls-23" points="496.03 214.55 492.05 120.04 551.19 119.14 549.49 207.14 496.03 214.55"/><path class="cls-24" d="M648.68,247.75h0a45.78,45.78,0,0,0,17-2.42l-1.52,41.39-53.47,7.4-3-72.63C616.55,236.62,631.49,246.94,648.68,247.75Z" transform="translate(-114.47 -79.58)"/><path class="cls-23" d="M581.78,172.28c0,9.48,8.36,31.33,13.55,37.87,2.21,2.79,4.41,8.64,11.44,10.74,6.39,1.92,11,3.76,11,7.17,0,3.7,7.86-3.48,10.55-3.48,31.93,0,47.72-34,47.72-57.15L666.23,137c0-25.35-17-38.46-41.81-38.27s-43.92,11.37-43.92,36.72Z" transform="translate(-114.47 -79.58)"/><path class="cls-23" d="M659.58,159.56c-.65,8.83,4,16.41,10.28,16.93s12-6.2,12.6-15-2.88-15.7-9.14-16.79S660.22,150.74,659.58,159.56Z" transform="translate(-114.47 -79.58)"/><path class="cls-24" d="M621.92,227h0c23.88.52,41.22-22.11,41.69-43.94l3.74-47.19c.47-21.84-18.68-40.13-42.56-40.65h0C600.9,94.74,581,112.18,580.5,134L582,186.39C581.48,208.23,598,226.52,621.92,227Z" transform="translate(-114.47 -79.58)"/><path class="cls-25" d="M648.73,841.75v17.58c0,4.93,14,9,31.11,9s31.11-4,31.11-9V841.75c0-4.74-6.32-8.62-14.05-8.62H665.79C656.4,833.13,648.73,837,648.73,841.75Z" transform="translate(-114.47 -79.58)"/><path class="cls-26" d="M711.24,844c0,15.26-62.8,16.86-62.8,1.7a120.53,120.53,0,0,1,3-24.43c.36-1.59.73-4.08,1.13-5.63,3.46-13.47,8.51-25.95,13-25.95h29.2c3.43,0,8.29,13,11.82,26.07.43,1.55.83,3.58,1.21,5.15C709.86,829.38,711.24,838.47,711.24,844Z" transform="translate(-114.47 -79.58)"/><path class="cls-14" d="M711.24,850.77V839.14c0-1.47-14.13-3.64-31.4-4.81s-31.41,2.13-31.41,7.35,0,8.12,0,6.45v4.28c0,4,14.13,7.32,31.4,7.32S711.24,855.7,711.24,850.77Z" transform="translate(-114.47 -79.58)"/><path class="cls-14" d="M662.32,835.37c4.89-.39,2.82-16.45,18.87-15.11s10.65,16.18,16.41,17.38" transform="translate(-114.47 -79.58)"/><path class="cls-25" d="M625,843.64v16.1c0,4.51-14,8.21-31.12,8.21s-31.11-3.7-31.11-8.21v-16.1c0-4.34,6.33-7.9,14.06-7.9H608C617.36,835.74,625,839.3,625,843.64Z" transform="translate(-114.47 -79.58)"/><path class="cls-26" d="M562.52,845.72c0,14,62.81,15.44,62.81,1.56a101.8,101.8,0,0,0-3.05-22.39c-.35-1.45-.73-3.36-1.13-4.78-3.46-12.34-8.51-23.4-13-23.4H579c-3.43,0-8.28,11.52-11.82,23.51-.42,1.42-.82,3.1-1.21,4.53C563.91,832.49,562.52,840.63,562.52,845.72Z" transform="translate(-114.47 -79.58)"/><path class="cls-27" d="M567.16,820.22A91.3,91.3,0,0,1,592,817.06c12.76,0,22.21,1,29.18,2.93-3.46-12.34-8.51-23.28-13-23.28H579C575.55,796.71,570.7,808.23,567.16,820.22Z" transform="translate(-114.47 -79.58)"/><path class="cls-14" d="M562.52,852.26v-6.73c0-3.7,7.2-7.18,16-7.73l30.83-1.93c8.79-.55,16,2.92,16,7.7v8.69" transform="translate(-114.47 -79.58)"/><path class="cls-14" d="M625.33,843.7v8.2c0,4.51-14.13,8.2-31.4,8.2s-31.41-3.69-31.41-8.2v-8.2" transform="translate(-114.47 -79.58)"/><path class="cls-14" d="M611.44,836.4c-4.89-.35-2.81-15.07-18.86-13.85s-10.66,14.83-16.42,15.93" transform="translate(-114.47 -79.58)"/><rect class="cls-28" x="439.41" y="338.8" width="162.99" height="147.04" rx="15.01" ry="15.01"/><rect class="cls-29" x="440.65" y="190.53" width="162.99" height="245.19" rx="27.5" ry="27.5"/><path class="cls-30" d="M619.24,381.85l1.83,148.87c0,6.86-7,12.47-15.45,12.47L547.92,563c-8.5,0-19.31-5.61-19.31-12.47l9.77-277c13-7.68,29.82-21.11,58.31-28.73C594.32,243.18,615.07,378.31,619.24,381.85Z" transform="translate(-114.47 -79.58)"/><path class="cls-30" d="M652.9,381.85l-1.83,148.87c0,6.86,6.95,12.47,15.45,12.47l59.22,16.72c8.5,0,19.31-5.61,19.31-12.47L733.93,276c-13-7.68-30-23.65-58.48-31.27C677.82,243.18,657.07,378.31,652.9,381.85Z" transform="translate(-114.47 -79.58)"/><path class="cls-31" d="M666.48,242.1c14.67,25.48-13.82,84.27-10.09,233.91l40.06-160.6L676.89,305.1l23.91-8.65s6.38-38.79-3.13-44.95c-7.47-4.85-21.75-11.66-31.27-14.94C663.8,235.66,664.85,239.28,666.48,242.1Z" transform="translate(-114.47 -79.58)"/><path class="cls-32" d="M656.86,302.12C666.24,289.6,687.22,260,671,240.4l-6.12-8.17c.45,19.28-7.7,37.1-27.62,37.1Z" transform="translate(-114.47 -79.58)"/><path class="cls-31" d="M605.78,242.1C591.11,267.58,620.9,326.37,617.17,476l-40.06-160.6,19.56-10.31-23.9-8.65s-6.38-38.79,3.12-44.95c7.47-4.85,21.75-11.66,31.28-14.94C609.76,235.66,607.4,239.28,605.78,242.1Z" transform="translate(-114.47 -79.58)"/><path class="cls-32" d="M616,302.12c-9.38-12.52-30.36-42.08-14.13-61.72l6.12-8.17c0,20.32,9,37.1,28.93,37.1Z" transform="translate(-114.47 -79.58)"/><path class="cls-22" d="M671,127.73l-1,33.86c0,.91-.07,1.82-.14,2.72a3.25,3.25,0,1,1-6.48-.45l.59-24.75c.34-13.89-6.5-25.36-19.37-25.36H600.74c-12.86,0-19.71,11.53-19.37,25.41l.6,24.68c-.48,6.79-8.21-33.73-7.6-36.1-.77-26.53,18.72-48.16,43.29-48.16h10.08C652.31,79.58,671.8,101.2,671,127.73Z" transform="translate(-114.47 -79.58)"/><ellipse class="cls-33" cx="480.08" cy="77.84" rx="4.63" ry="4.32"/><ellipse class="cls-33" cx="519.69" cy="77.84" rx="4.63" ry="4.32"/><path class="cls-34" d="M582.42,148.15a26.47,26.47,0,0,1,17.93-1.4" transform="translate(-114.47 -79.58)"/><path class="cls-35" d="M626.2,146.72a22,22,0,0,1,17.08,1.43" transform="translate(-114.47 -79.58)"/><path class="cls-36" d="M618.68,180.54a11.53,11.53,0,0,1-6.94,1,6.62,6.62,0,0,1-5.74-7.4l2.31-8.65" transform="translate(-114.47 -79.58)"/><path class="cls-37" d="M603,195.82c8.15,5.15,16.13,6,24.05.37" transform="translate(-114.47 -79.58)"/><path class="cls-38" d="M693.77,342.47a10.44,10.44,0,0,0-6.43-.26l.78-5.53,8.42.82-.76,5.86A12.72,12.72,0,0,0,693.77,342.47Zm-1.39,24.93-8.4-.88.63-4.36c.47.25,1,.5,1.54.74l.41.14a10.4,10.4,0,0,0,6.42.25Z" transform="translate(-114.47 -79.58)"/><path class="cls-39" d="M690,352.77l-.21,2.06.21-2.06-1.56-.16a2,2,0,0,0,.74,1.94l.12,0a.72.72,0,0,0,.26.16l.06,0,.17.06a2.08,2.08,0,0,0,1,0,.18.18,0,0,0,.14,0,.79.79,0,0,0,.25-.17,1.54,1.54,0,0,0,1-1,1.79,1.79,0,0,0-.11-1.52,1.69,1.69,0,0,0-.62-.8l-.12,0a1.24,1.24,0,0,0-.38-.2,1.72,1.72,0,0,0-1.1,0,.21.21,0,0,0-.19,0,.78.78,0,0,0-.18.13,1.9,1.9,0,0,0-1,1.14l0,.12c0,.07,0,.12,0,.13Z" transform="translate(-114.47 -79.58)"/><path class="cls-38" d="M686.25,344.41a9.1,9.1,0,0,0-4.71,5.32,8.72,8.72,0,0,0,.38,7,8.44,8.44,0,0,0,3,3.57,6.84,6.84,0,0,0,.67.5,13.36,13.36,0,0,0,1.2.61l.41.14a8.6,8.6,0,0,0,5.48.18,2.34,2.34,0,0,0,.52-.2,4.86,4.86,0,0,0,1.07-.47,8.51,8.51,0,0,0,4.8-5.22,8.88,8.88,0,0,0-.47-7.13,9.37,9.37,0,0,0-3.06-3.59,5.13,5.13,0,0,0-.46-.35,13.57,13.57,0,0,0-1.74-.74,9,9,0,0,0-5.47-.24l-.73.26A6.44,6.44,0,0,0,686.25,344.41Zm-5.92,13a10.38,10.38,0,0,1-.45-8.28,10.62,10.62,0,0,1,5.54-6.25,14,14,0,0,1,1.92-.69,10.44,10.44,0,0,1,6.43.26,12.72,12.72,0,0,1,2,.89,10.87,10.87,0,0,1-.92,19.17,15.09,15.09,0,0,1-1.88.76,10.4,10.4,0,0,1-6.42-.25l-.41-.14c-.56-.24-1.07-.49-1.54-.74A10.6,10.6,0,0,1,680.33,357.43Z" transform="translate(-114.47 -79.58)"/><path class="cls-40" d="M687.87,343.82a9,9,0,0,1,5.47.24,13.57,13.57,0,0,1,1.74.74,5.13,5.13,0,0,1,.46.35,9.37,9.37,0,0,1,3.06,3.59,8.88,8.88,0,0,1,.47,7.13,8.51,8.51,0,0,1-4.8,5.22,4.86,4.86,0,0,1-1.07.47,2.34,2.34,0,0,1-.52.2,8.6,8.6,0,0,1-5.48-.18l-.41-.14a13.36,13.36,0,0,1-1.2-.61,6.84,6.84,0,0,1-.67-.5,8.44,8.44,0,0,1-3-3.57,8.72,8.72,0,0,1-.38-7,9.1,9.1,0,0,1,4.71-5.32,6.44,6.44,0,0,1,.89-.33Z" transform="translate(-114.47 -79.58)"/><path class="cls-41" d="M685,352.31l3.44.3m0,0,1.56.16" transform="translate(-114.47 -79.58)"/><line class="cls-42" x1="575.56" y1="273.19" x2="574.94" y2="279.55"/><path class="cls-43" d="M701,351.21l-13.78,12.07-.69-.24-.41-.14c-.56-.24-1.07-.49-1.54-.74l-.06,0,16-12.71A17.24,17.24,0,0,1,701,351.21Zm-.77-2.6-16.51,13.05a13,13,0,0,1-2.33-2.36l17.66-12.84A11,11,0,0,1,700,348Zm-4.48-5.25a9.34,9.34,0,0,1,2.49,2.1L680.65,358a5,5,0,0,0-.32-.57,10.19,10.19,0,0,1-1.07-4.69l15.18-10A9.92,9.92,0,0,1,695.78,343.36Z" transform="translate(-114.47 -79.58)"/><line class="cls-44" x1="742.84" y1="508.33" x2="742.84" y2="519.92"/><path class="cls-23" d="M287.79,613l145.69-15.46c-63.39,43.77-46.39,179.15-85.9,199.72-25.29,14,23,100.12,36.8,70.65-19.92-67.44,43.71-171.1,45.44-174.44s47.81-77.09,60.94-102.19c1.16-20-12.92-30.34-39.53-32.67,0,0-117.63-19.92-119-17.81S287.79,613,287.79,613Z" transform="translate(-114.47 -79.58)"/><path class="cls-45" d="M291.08,617.62l-.32,9c-30.13,0-69.6-24.47-69.6-54.59,13.24-64.48,23-136.86,16-217.71,0-35,23.5-76.73,53.63-76.73l8.82.56c30.13,0,47.63,51.82,54.07,71.3,15.48,59.05-80.32,176.17-1.54,218.15C352.11,597.71,321.2,617.62,291.08,617.62Z" transform="translate(-114.47 -79.58)"/><polygon class="cls-46" points="849.53 424.02 165.51 424.02 215.64 387.77 244.63 366.81 770.41 366.81 805.34 392.07 849.02 423.66 849.53 424.02"/><path class="cls-47" d="M963.49,503.24H801.31c-52.89,0-77-6.53-77.71-12.41l196.2-19.18Z" transform="translate(-114.47 -79.58)"/><path class="cls-44" d="M491.57,469.06l-12.19,1.31-5.65-3-30.49,2.18S438,473.43,388,473.43c-48.1,0-57.21-5.63-57.85-6.08l29-21H486.26l1.83,13.1Z" transform="translate(-114.47 -79.58)"/><path class="cls-48" d="M361.22,212.72c-10.49-.11-24.44,29.12-44.85,42.58-2.44,1.6,2.37,11.29-.49,11.88a21.58,21.58,0,0,1-4.81.46c.07-.74.13,5.08.21,4.36-4-1.34-8.24-9.4-11.7-11.7-9.95-16.14-20.08-21.85-26.58-31.07-28.37-12.33-28.91-60.6-21.84-78.61,20.24-51.59,51-41.15,60.73-39.5A122.76,122.76,0,0,1,341,119.6l3.59.33L333,138.11l11.12,29.39v0Z" transform="translate(-114.47 -79.58)"/><polyline class="cls-24" points="170.09 200.9 174.02 164.01 207.07 167.2 204.34 205.28"/><path class="cls-23" d="M285.82,272.07l4.59-47,33.17,2.7-3.67,41.55c-8.8.69-17.19-2.92-24.19-7.07-5.07-3-8.75,3-8.75,3l-1.15,6.79" transform="translate(-114.47 -79.58)"/><path class="cls-23" d="M367.68,185.69,363.48,221c-.62,9.24-9.57,32.18-13.33,39-2,3.71-30.61,5.82-31.41,3.89-1.5-3.61-7,1-10-1.26l0,0c-15.2-11.13-24.49-32.57-24.14-50.43,0-.81,0-1.6.1-2.38l.24-1,.24-1,3.6-15.08,1.5-6.2,0-.13.85-3.52.13-.55.37-1.51.46-1.95a50.56,50.56,0,0,1,6.07-21c7.36-13.42,20.52-21.86,34.82-20.56a30.7,30.7,0,0,1,4.44.74c9.13,2.13,17,8.18,22.45,16.5A50.63,50.63,0,0,1,367.68,185.69Z" transform="translate(-114.47 -79.58)"/><path class="cls-24" d="M365.17,221.34c-.63,1.29-1.15,5.88-1.4,9.38-.45,6.12-3.61,8.09-4.76,13.16-1.74,7.7,2.07,15.9-4,18.45-12.34,5.18-21.18-.79-27.41-2.46C301,252.7,295.46,230.37,298,205.93l2.89-21.14c2.56-24.43,13.46-48.33,34.36-45.72s35,22.19,32.41,46.62l-1.29,12.38Z" transform="translate(-114.47 -79.58)"/><path class="cls-48" d="M293.46,181.17c-1.3,12.06-2.47,15.85-3.55,18.09-1.92,4-4.5,2.12-4.75-.64-.32-3.62-1.59-9.11-9.44-12.16-.88-.35,18.2-9.91,18.2-9.91Z" transform="translate(-114.47 -79.58)"/><path class="cls-48" d="M323.19,151.66c-8.67,12.07-4.1,18.91-19.37,19.83-12.07.72-9.52,11.82-12.36,22.72-2,7.6-14.64-15.17-14.64-15.17s-2.23-17.53.55-18.68,23.5-3.27,25.59-4.13S323.19,151.66,323.19,151.66Z" transform="translate(-114.47 -79.58)"/><path class="cls-24" d="M367.1,191.53c.64,2.38-.69,1.35-.69,3.82,0,6.53,4.09,14.49,8.09,18a4.49,4.49,0,0,1,1.7,2.1,3,3,0,0,1-.34,2,8.21,8.21,0,0,1-5.37,4.05,12.31,12.31,0,0,1-10.1-1.73c-.2-.14-.43-.29-.19-.35s.3-.39.31-.64a133.07,133.07,0,0,1,2.85-24.05c.4-1.9.94-3.95,2.43-5.15C366.08,190.3,366.9,190.8,367.1,191.53Z" transform="translate(-114.47 -79.58)"/><path class="cls-24" d="M357,223.74c.93,0,1.93-.39,2.76,0,1.46.77.83,3.11,1.52,4.65s2.86,2.18,3.45,3.84a2.52,2.52,0,0,1-.64,2.63,2.32,2.32,0,0,1-2.61.32,10,10,0,0,1,2.27,2.32,3.41,3.41,0,0,1,.35,3.15,4,4,0,0,1-2.71,1.89,11.38,11.38,0,0,1-11.28-3.44,12.28,12.28,0,0,1-2.26-11.92c.92-2.59,3.31-5,5.94-4.5C354.91,223,355.9,223.69,357,223.74Z" transform="translate(-114.47 -79.58)"/><path class="cls-23" d="M362.46,237c-11,2.5-15.1-5.37-17.89-6.62,0,0,12.88,4.85,20.05,1.59C365.37,233.27,364.49,235.2,362.46,237Z" transform="translate(-114.47 -79.58)"/><path class="cls-48" d="M279.18,200.92l17.49,8.79c7.45-2.28-5.56,1.43-8.43,36.53l-23.81-31.19Z" transform="translate(-114.47 -79.58)"/><path class="cls-48" d="M272.16,132.56c-11.39-18.4-49.19-26.56-68.76.5-8.86,12.24-12.79,27.33-14.56,42.47s-2.41,30.71-7.88,44.85c-2.12,5.49-5.55,14.15-11.1,20.36-3.56,4-10.32,9.1-15.42,6.24,4.53,9.48,16,13.81,26.48,14.19,25.41.93,49.53-17.92,54.4-42.52,1.76-8.89,1.44-18.11,1.21-27.21-.94-37.12,14.44-52.29,27.36-48" transform="translate(-114.47 -79.58)"/><path class="cls-24" d="M420.08,599.39c-30,49.47,13.33,195.84-8.58,234.7-23,43.55,84.95,72.06,62.46,44.59-63.3-47.74-2.62-192.48,3-311.29q-8.16-22.87-33.65-25.49H237.52c-13.68,46.18-8,87.19,46.79,83.46Z" transform="translate(-114.47 -79.58)"/><path class="cls-49" d="M475.87,880.69c38.7,14.64,20.78,45-36.71,27.69-21-10.45-19.11-23.89-27.17-26.5l-.22,27.49-9.87.44-5.29-37.91c-3.56-13.89-3.36-26.29,15.86-39.7C394.5,858.25,476.52,908,475.87,880.69Z" transform="translate(-114.47 -79.58)"/><path class="cls-5" d="M273.46,869.7c-6.18,0-12.41-2.73-12.41-8.83V662.93c0-5.72,5.56-10.38,12.41-10.38s12.41,4.66,12.41,10.38V860.87C285.87,867,279.63,869.7,273.46,869.7Z" transform="translate(-114.47 -79.58)"/><path class="cls-5" d="M291.77,839.39v19.08c0,7.8-8.2,12.25-18.32,12.25s-18.32-4.45-18.32-12.25V839.39Z" transform="translate(-114.47 -79.58)"/><path class="cls-5" d="M273.26,671.84c10.12,0,18.51,8,18.51-11v63.37c0,19.09-8.2,15.87-18.32,15.87s-18.32,3.22-18.32-15.87V660.81C255.13,679.89,263.14,671.84,273.26,671.84Z" transform="translate(-114.47 -79.58)"/><path class="cls-5" d="M273.7,650.63c16.34,0,29.59-8.42,29.59-19.41v36.47c0,11-13.25,9.14-29.59,9.14s-29.59,1.85-29.59-9.14V631.22C244.11,642.21,257.36,650.63,273.7,650.63Z" transform="translate(-114.47 -79.58)"/><path class="cls-50" d="M320,888.9c0-8.36-5.87-19.09-19.47-21.76" transform="translate(-114.47 -79.58)"/><path class="cls-50" d="M181.86,891.34c0-8.36,6.23-20.05,19.47-21.76l71.93-6.39" transform="translate(-114.47 -79.58)"/><path class="cls-50" d="M224.09,888.9c0-8.36,5.87-19.09,19.47-21.76" transform="translate(-114.47 -79.58)"/><ellipse class="cls-4" cx="108.97" cy="814.4" rx="16.46" ry="14"/><path class="cls-4" d="M198.32,899.09c0,7.73-7.37,14-16.46,14s-16.46-6.27-16.46-14,7.37-14,16.46-14S198.32,891.36,198.32,899.09Z" transform="translate(-114.47 -79.58)"/><path class="cls-50" d="M363.3,891.34c0-8.36-6.24-20.05-19.47-21.76l-71.93-6.39" transform="translate(-114.47 -79.58)"/><path class="cls-4" d="M337.1,894c0,7.73-7.37,14-16.46,14s-16.46-6.26-16.46-14,7.37-14,16.46-14S337.1,886.26,337.1,894Z" transform="translate(-114.47 -79.58)"/><ellipse class="cls-4" cx="250.19" cy="819.51" rx="16.46" ry="14"/><path class="cls-21" d="M189.92,656.66l186-.07c6.49,0,12.05-5.18,14.32-12.46a23.84,23.84,0,0,0,1.13-7.29c0-10.87-6.95-19.73-15.46-19.73l-186,.08c-8.51,0-15.44,8.86-15.44,19.74a23.73,23.73,0,0,0,1.14,7.28,21.11,21.11,0,0,0,3.4,6.67A14,14,0,0,0,189.92,656.66Z" transform="translate(-114.47 -79.58)"/><path class="cls-21" d="M136.35,335.75,171.59,633a24.83,24.83,0,0,0,18.29,21,24,24,0,0,0,9.33.73A24.9,24.9,0,0,0,221,627.11L185.73,329.9a24.9,24.9,0,0,0-27.62-21.77,24,24,0,0,0-8.89,2.89,25.17,25.17,0,0,0-7.7,6.42A24.84,24.84,0,0,0,136.35,335.75Z" transform="translate(-114.47 -79.58)"/><path class="cls-5" d="M189.92,663.19l186-.07c6.49,0,12.05-5.18,14.32-12.46-2.27-7.29-7.84-12.41-14.33-12.41l-186,.07c-6.49,0-12,5.14-14.31,12.42a21.11,21.11,0,0,0,3.4,6.67A14,14,0,0,0,189.92,663.19Z" transform="translate(-114.47 -79.58)"/><path class="cls-5" d="M132.21,336.31l36.1,304.47a25.44,25.44,0,0,0,18.37,21.59,25.4,25.4,0,0,0,12.75-25.28l-36.1-304.47A25.41,25.41,0,0,0,145,311a25.24,25.24,0,0,0-7.69,6.55A25.81,25.81,0,0,0,132.21,336.31Z" transform="translate(-114.47 -79.58)"/><polyline class="cls-51" points="431.85 217.41 375.42 336.4 444.74 356.51"/><path class="cls-52" d="M419.31,541.9l-9.48,71.29-1.9,14.33s-131.92,1-134.54-3.29c-34,3.42-48.61-25.34-39.15-73q1.29-6.46,3.17-13.4Z" transform="translate(-114.47 -79.58)"/><path class="cls-53" d="M409.83,613.19l-1.9,14.33s-131.92,1-134.54-3.29c-34,3.42-48.61-25.34-39.15-73l91.94-8.5c-.7,22.36-18.9,51.76-18.9,60.86s102.2,6.3,102.2,6.3Z" transform="translate(-114.47 -79.58)"/><path class="cls-5" d="M1026.09,863c-6.18,0-12.41-2.73-12.41-8.83V656.2c0-5.73,5.57-10.38,12.41-10.38s12.41,4.65,12.41,10.38V854.14C1038.5,860.24,1032.27,863,1026.09,863Z" transform="translate(-114.47 -79.58)"/><path class="cls-5" d="M1007.78,832.66v19.08c0,7.8,8.2,12.25,18.32,12.25s18.31-4.45,18.31-12.25V832.66Z" transform="translate(-114.47 -79.58)"/><path class="cls-5" d="M1026.28,665.11c-10.11,0-18.5,8-18.5-11v63.38c0,19.09,8.2,15.87,18.32,15.87s18.31,3.22,18.31-15.87V654.07C1044.41,673.16,1036.4,665.11,1026.28,665.11Z" transform="translate(-114.47 -79.58)"/><path class="cls-5" d="M1025.85,643.9c-16.35,0-29.59-8.42-29.59-19.41V661c0,11,13.24,9.13,29.59,9.13s29.59,1.86,29.59-9.13V624.49C1055.44,635.48,1042.19,643.9,1025.85,643.9Z" transform="translate(-114.47 -79.58)"/><path class="cls-50" d="M979.56,882.17c0-8.36,5.86-19.09,19.47-21.76" transform="translate(-114.47 -79.58)"/><path class="cls-50" d="M1117.69,884.61c0-8.36-6.24-20.05-19.47-21.76l-71.94-6.39" transform="translate(-114.47 -79.58)"/><path class="cls-50" d="M1075.45,882.17c0-8.36-5.86-19.09-19.47-21.76" transform="translate(-114.47 -79.58)"/><ellipse class="cls-4" cx="961.64" cy="807.67" rx="16.46" ry="14"/><ellipse class="cls-4" cx="1003.22" cy="812.77" rx="16.46" ry="14"/><path class="cls-50" d="M936.25,884.61c0-8.36,6.23-20.05,19.47-21.76l71.93-6.39" transform="translate(-114.47 -79.58)"/><ellipse class="cls-4" cx="864.44" cy="807.67" rx="16.46" ry="14"/><ellipse class="cls-4" cx="820.42" cy="812.77" rx="16.46" ry="14"/><path class="cls-21" d="M1160.4,329l-35.24,297.22a24.84,24.84,0,0,1-18.3,21,23.91,23.91,0,0,1-9.32.73,24.9,24.9,0,0,1-21.77-27.62L1111,323.16a24.9,24.9,0,0,1,27.62-21.76,23.86,23.86,0,0,1,8.9,2.89,25.29,25.29,0,0,1,7.7,6.42A24.82,24.82,0,0,1,1160.4,329Z" transform="translate(-114.47 -79.58)"/><path class="cls-18" d="M1109.63,649.93l-186-.08c-6.49,0-12-5.17-14.31-12.46a23.77,23.77,0,0,1-1.13-7.28c0-10.88,6.94-19.73,15.46-19.73l186,.08c8.52,0,15.45,8.86,15.45,19.74a24.08,24.08,0,0,1-1.14,7.28,21.32,21.32,0,0,1-3.4,6.67A14,14,0,0,1,1109.63,649.93Z" transform="translate(-114.47 -79.58)"/><path class="cls-54" d="M1109.63,656.46l-186-.08c-6.49,0-12-5.17-14.31-12.46,2.27-7.28,7.83-12.41,14.32-12.4l186,.07c6.49,0,12,5.14,14.31,12.42a21.32,21.32,0,0,1-3.4,6.67A14,14,0,0,1,1109.63,656.46Z" transform="translate(-114.47 -79.58)"/><path class="cls-5" d="M1167.33,329.58l-36.1,304.47a25.45,25.45,0,0,1-18.36,21.59,25.4,25.4,0,0,1-12.75-25.28l36.1-304.47a25.4,25.4,0,0,1,18.31-21.6,25.09,25.09,0,0,1,7.68,6.55A25.75,25.75,0,0,1,1167.33,329.58Z" transform="translate(-114.47 -79.58)"/><polyline class="cls-51" points="613.04 219.78 656.82 341.1 594.84 346.78"/><rect class="cls-55" x="412.11" y="376.64" width="198.01" height="10.67" rx="2.37" ry="2.37"/><rect class="cls-56" x="412.65" y="240.95" width="198.08" height="130.58" rx="4.86" ry="4.86"/><path class="cls-57" d="M725.87,451.79a4.89,4.89,0,0,1-4.87,4.88H532.74a5,5,0,0,1-4.92-4.88L526.62,331a4.84,4.84,0,0,1,4.83-4.88H721a4.89,4.89,0,0,1,4.87,4.88Z" transform="translate(-114.47 -79.58)"/><polyline class="cls-58" points="505.36 270.95 528.89 265.91 551.88 278.87"/><rect class="cls-24" x="648.14" y="345.42" width="36.4" height="26.07" rx="8.84" ry="8.84" transform="translate(-109.17 -89.27) rotate(0.84)"/><path class="cls-24" d="M660.64,376.56l-27,8c-7.14,2.1-14.48-1.78-15.72-8.81l-2.57-14.65c-1.23-7,4.35-13.18,11.78-13.63l28.11-1.71c4.75-.29,9.13,3.63,10,8.69L667.1,365C668,370,665.21,375.21,660.64,376.56Z" transform="translate(-114.47 -79.58)"/><rect class="cls-59" x="599.81" y="351.96" width="38.07" height="34.56" rx="7.29" ry="7.29" transform="translate(-84.38 705.2) rotate(-66.04)"/><path class="cls-60" d="M654.64,368.13" transform="translate(-114.47 -79.58)"/><path class="cls-60" d="M635.4,360.94" transform="translate(-114.47 -79.58)"/><path class="cls-60" d="M649.24,375" transform="translate(-114.47 -79.58)"/><line class="cls-61" x1="525.53" y1="292.28" x2="540.4" y2="297.6"/><line class="cls-61" x1="511.86" y1="294.97" x2="530.47" y2="302.39"/><line class="cls-61" x1="508.62" y1="303.23" x2="518.73" y2="305.82"/><line class="cls-62" x1="514.26" y1="303.7" x2="508.62" y2="309.18"/><rect class="cls-59" x="577.62" y="342.86" width="26.68" height="42.46" rx="6.57" ry="6.57" transform="translate(112.41 875.47) rotate(-90)"/><polyline class="cls-63" points="490.86 274.49 510.55 266.19 536.99 274.98"/><line class="cls-64" x1="489.66" y1="292.67" x2="483.92" y2="297.91"/><path class="cls-65" d="M617.73,372.13c-.78.58-12,11.51-11.17,10.69" transform="translate(-114.47 -79.58)"/><line class="cls-66" x1="511.29" y1="297.05" x2="500.73" y2="307.08"/><line class="cls-61" x1="519.06" y1="281.07" x2="550.49" y2="293.17"/><line class="cls-67" x1="583.59" y1="490.98" x2="566.95" y2="711.32"/><line class="cls-68" x1="715.03" y1="294.51" x2="588.94" y2="283.28"/><line class="cls-67" x1="458.82" y1="490.98" x2="476.44" y2="713.86"/><path class="cls-69" d="M786.49,455.36c-6.43-6.51-15.12-12.09-25.3-17.05" transform="translate(-114.47 -79.58)"/><path class="cls-70" d="M773,434.15l-4.3,53.22c-.32,4-3.24,7-6.72,7H729.58c-3.45,0-6.34-3-6.71-6.89L720.78,465l-2.92-31.39c-.43-4.6,2.75-8.59,6.79-8.52l41.74.64C770.33,425.79,773.38,429.67,773,434.15Z" transform="translate(-114.47 -79.58)"/><path class="cls-70" d="M770.93,414.2H719.81c0-3.5,2.48-6.33,5.55-6.33h40c3.07,0,5.55,2.83,5.55,6.33Z" transform="translate(-114.47 -79.58)"/><path class="cls-71" d="M719.21,414.2h53.67a4.21,4.21,0,0,1,3.9,4.46v6.68a4.2,4.2,0,0,1-3.9,4.45h0l-54.72.17h-.3a4.2,4.2,0,0,1-3.9-4.45v-6.85a4.21,4.21,0,0,1,3.9-4.46Zm7.65,48.65a24.54,24.54,0,0,1,5.84-16.45,18.55,18.55,0,0,1,28.49,0A24.54,24.54,0,0,1,767,462.85a33.38,33.38,0,0,1-.3,4.45,23.66,23.66,0,0,1-5.54,11.64A18.06,18.06,0,0,1,747,485.79a17.34,17.34,0,0,1-10.05-3.08,16.5,16.5,0,0,1-4.2-3.77,23.66,23.66,0,0,1-5.54-11.64A33.38,33.38,0,0,1,726.86,462.85Z" transform="translate(-114.47 -79.58)"/><path class="cls-72" d="M742.92,475c-3-5.6-1.56-9.08,3.74-12.62,4.42-2.52,7.05-6.22,6.75-12.73a5.44,5.44,0,0,1,.75.34A10.16,10.16,0,0,1,757,456.7a18.26,18.26,0,0,1-2.1,10.1,15.05,15.05,0,0,1-6.75,7.2,7.13,7.13,0,0,1-4.64,1h-.6Zm-1.95-1.2-.15.17q-3.3-2.22-3.75-7.37A18,18,0,0,1,739,456.36a16.14,16.14,0,0,1,6.75-7.19,6.86,6.86,0,0,1,6.29-.35l-.15.35c.3,6.62-2.61,9-7,11.81Q737.22,466.13,741,473.83Z" transform="translate(-114.47 -79.58)"/><polygon class="cls-24" points="682.47 375.77 708.93 375.77 712.88 408.59 680.88 407.69 682.47 375.77"/><path class="cls-24" d="M774.36,492.45l13.23-.75a12.08,12.08,0,0,0,11.48-11.77V462.24a12.08,12.08,0,0,0-11.48-11.77l-13.23-.74c-7.13-.41-13.17,4.79-13.17,11.57v19.58C761.19,487.65,767.23,492.85,774.36,492.45Z" transform="translate(-114.47 -79.58)"/><path class="cls-73" d="M770.12,455.36c-12.65,2.17-25.67,1.24-39-2.14" transform="translate(-114.47 -79.58)"/><path class="cls-74" d="M767.65,465.3c-12.21,3.31-27.79,1.8-44.56-1.41" transform="translate(-114.47 -79.58)"/><path class="cls-75" d="M728.31,476.7c12.59,2.24,25.08,2.9,37.27-.45" transform="translate(-114.47 -79.58)"/><path class="cls-75" d="M767.65,487.27a74.63,74.63,0,0,1-31.72,1.8" transform="translate(-114.47 -79.58)"/><polyline class="cls-76" points="888.47 247.34 817.8 386.62 700.87 391.5"/><ellipse class="cls-77" cx="389.31" cy="402.83" rx="38.71" ry="7.21"/><ellipse class="cls-32" cx="389.55" cy="395.03" rx="38.71" ry="10.64"/><path class="cls-32" d="M281.62,278.84c.47-.32,0-14.2,0-14.2,14.62,8.08,28.9,14.68,41.57,14.2L344,321.63C325.6,301,304.76,286.86,281.62,278.84Z" transform="translate(-114.47 -79.58)"/><path class="cls-78" d="M277.53,270.12,273,282.82l38,20.27,2.21-6.1,1.08,8.89,37.85,34.26C342.45,310.51,316.7,278.88,277.53,270.12Z" transform="translate(-114.47 -79.58)"/><path class="cls-45" d="M428.76,399.66a23.52,23.52,0,0,1-7.88-1.35L281.48,348.8a23.56,23.56,0,0,1,15.77-44.41l134.81,47.88,120.25-8c10.22-1.86,7.18,10.84,8,23.82s3,23.07-4.9,23.2l-125.12,8.34C429.81,399.65,429.29,399.66,428.76,399.66Z" transform="translate(-114.47 -79.58)"/><path class="cls-45" d="M230.4,567.58a43.09,43.09,0,0,0,3,30.37c30.13,0,84.41-3.51,92.79-55.2l-.71-2.86-84.35-24.58Z" transform="translate(-114.47 -79.58)"/><path class="cls-24" d="M420.67,431.94l5.39,1.58,17.62,2.12,12.8-8.11,25.07-.14c.85,4-5,6.64-8.56,7.47L486,436c2.71.35,4.39,2.43,3.73,4.63l0,.11a4.85,4.85,0,0,1-2.9,2.91,3.33,3.33,0,0,1,1.94,3.91l0,.1a5,5,0,0,1-3.85,3.09,3.09,3.09,0,0,1,.88,3.15,4.86,4.86,0,0,1-3.61,3c1,.87,2.52,1.31,1.42,2.14-1.88,1.45-2.91,1.58-5.32,1.13l-11.63.94-.39-.11-16.93-1.62L436,453l-21.7-2.21Z" transform="translate(-114.47 -79.58)"/><line class="cls-79" x1="240.84" y1="363.61" x2="305.93" y2="365.35"/><path class="cls-80" d="M488.18,435.05c-9.14,0-16.56,1.52-16.56,9.48s7.42,19.32,16.56,19.32" transform="translate(-114.47 -79.58)"/><path class="cls-81" d="M491.63,478.1h24.63a4.56,4.56,0,0,0,4.53-4.09l4.41-44.57a4.55,4.55,0,0,0-4.53-5H487.22a4.55,4.55,0,0,0-4.53,5L487.1,474A4.55,4.55,0,0,0,491.63,478.1Z" transform="translate(-114.47 -79.58)"/><rect class="cls-32" x="559.94" y="345.03" width="17.34" height="41.02" transform="translate(-136.51 -42.79) rotate(-3.64)"/><rect class="cls-32" x="787.39" y="445.62" width="17.34" height="51.88" transform="translate(-142.77 -28.15) rotate(-3.64)"/><rect class="cls-32" x="561.09" y="256.64" width="18.14" height="51.88"/><line class="cls-82" x1="365.56" y1="361.96" x2="352.07" y2="361.96"/><line class="cls-83" x1="366.49" y1="367.06" x2="350.66" y2="368.35"/><line class="cls-84" x1="366.68" y1="372.94" x2="354.87" y2="374.25"/><line class="cls-85" x1="368.2" y1="378.01" x2="359.36" y2="379.32"/><rect class="cls-32" x="310.04" y="346.16" width="17.34" height="38.39"/><path class="cls-19" d="M940.9,292.64c-15.36,33.49-19.11,68.95-7.7,107C931.73,360,946,324,973.86,291.25Z" transform="translate(-114.47 -79.58)"/><polygon class="cls-86" points="185.91 838.02 169.91 838.11 232.34 434.16 247.96 433.96 185.91 838.02"/><polygon class="cls-86" points="834.7 839.78 850.7 839.82 788.27 435.92 772.65 435.72 834.7 839.78"/><rect class="cls-44" x="165.52" y="424.02" width="684.01" height="19.54"/><path class="cls-78" d="M275.69,349.15l79,25.94c-1.2,9.86,0,11.48-3.15,20.19Z" transform="translate(-114.47 -79.58)"/><path class="cls-23" d="M935.58,269.45,929,195.39l12.5-1.22,46.26-7.36,8.78,98.56-18.11,3.07Q970.31,267.31,935.58,269.45Z" transform="translate(-114.47 -79.58)"/><path class="cls-24" d="M935.58,269.45q34.73-2.15,42.83,19L938.71,306Z" transform="translate(-114.47 -79.58)"/><path class="cls-87" d="M1025.46,149c-15.37-19-32.87-8.79-30.69,2.94,0,0,10.25,17.75,6.42,5.79C996.11,141.87,1010.43,139.82,1025.46,149Z" transform="translate(-114.47 -79.58)"/><path class="cls-24" d="M937.83,130.11c-22.7,8.21-38.4,26.5-36.21,70.56-6.42,14-22.33,22.06-.57,26.06,2.37,7.67-6.75,7.93.29,13.47-.36,0-3.71,3.25.31,5.6,1.46.85,1.19,1.49.3,4.82-.7,15,10.88,20,22.39,19.25,20.08-3.91,43.49-12.38,47.15-33.78l8.35-107.4Z" transform="translate(-114.47 -79.58)"/><path class="cls-87" d="M885.92,141.38c2.33,2.14,6.6-.38,13.58,4.66-8,2.87-7.17-19.06-7.17-19.06,7.17,4.74,17.59,4.32,28.14,1,13.38-7.84,23.87-12.32,40.27-11.72,11.48-.21,20.14,2.29,26.51,5.34,9.4,4,16.13,10.07,17.7,18.21,22.34,10.35,28,54.91,2.29,87.55-7.39,4.14-10.56,10.41-12.15,17.07-1.38,2-6.66.15-8.12-3.8-10.78-22.86-8.53-10.11-15.78-28.78-1-2.59-1.64-11.36-1.64-11.36-21-2.24-34.39-35.39-39.11-34.35-14.33,3.17-23.25,1.1-26.86,0C885.92,160.78,885.92,141.38,885.92,141.38Z" transform="translate(-114.47 -79.58)"/><path class="cls-24" d="M969.55,200.51c8.23-10.11,19.59-6.63,22,2,3,10.51-10.18,23.51-20.61,23.13Z" transform="translate(-114.47 -79.58)"/><path class="cls-23" d="M970.26,206.29c7-8.31,14.7-7.88,16.55-1.1,2.38,8.22-7.92,16.83-16.07,16.53Z" transform="translate(-114.47 -79.58)"/><path class="cls-23" d="M901.22,240.5c2.73-.2,12.19.89,15.67-3,0,0-14.33,0-18.31-1.2C898.48,237.39,899.12,238.67,901.22,240.5Z" transform="translate(-114.47 -79.58)"/><path class="cls-88" d="M907.1,195.35c1,3.36-.07,9.93,4.45,11.69,6.36,2.5,8.3-3,7-10.38s-12.12-6-12.12-6a12.37,12.37,0,0,0-1.63,0C904.51,193.08,907.22,192.74,907.1,195.35Z" transform="translate(-114.47 -79.58)"/><path class="cls-89" d="M916.23,204.93c-.07-1.94-.52-4.5-2.88-4.68-2.64-.21-3,2-3,4.07s.06,4.82,2.4,4.88C914.89,209.24,916.3,206.87,916.23,204.93Z" transform="translate(-114.47 -79.58)"/><path class="cls-87" d="M904.27,196.05c4-1.87,9.18-.47,15.11,3.24.89.19,1.81-.87,2-2.37h0c.23-1.5-.31-2.88-1.2-3.07a23.27,23.27,0,0,0-15.11-3.23c-.89-.2-1.81.87-2,2.37h0C902.84,194.48,903.38,195.86,904.27,196.05Z" transform="translate(-114.47 -79.58)"/><path class="cls-90" d="M1000.1,270.56c-18.66,8.33-50.1,14-65,32.28l2.54,25.33s39.66-40.38,70.75-42.29Z" transform="translate(-114.47 -79.58)"/><path class="cls-18" d="M1002.94,275.83c-76.86,28.46-73.45,87.12-69.74,131,10.09-34.9,21.63-65.73,36-88.6L965.6,313l9.06-.76c12.28-12.64,25.53-20,40-21Z" transform="translate(-114.47 -79.58)"/><path class="cls-89" d="M351.17,200.41c-.22-1.93-.17-4.53,2.14-5.07,2.58-.6,3.3,1.51,3.56,3.57s.68,4.78-1.63,5.19C353.15,204.47,351.39,202.34,351.17,200.41Z" transform="translate(-114.47 -79.58)"/><path class="cls-91" d="M345.08,193.5c6.21-2.64,12.17-5.74,18.72-4.57" transform="translate(-114.47 -79.58)"/><path class="cls-92" d="M358.36,195.9s0-1.74-3.05-.87a24.41,24.41,0,0,0-5.55,2.28" transform="translate(-114.47 -79.58)"/><path class="cls-48" d="M286.23,180.22c-18.84-6.89,27.89-46.84,33.23-48.16,3.67-.9-.42-17.21,11-16.45,11,.72,22.61,4,29.8,9.71,9.88,7.77,10.1,15.87,5.93,24.49C355.24,172.51,321.36,193.07,286.23,180.22Z" transform="translate(-114.47 -79.58)"/><path class="cls-23" d="M309.3,194.11c1,9.27-4.05,17.45-11.28,18.27s-13.91-6-14.91-15.29,2.83-16.65,10-18.06S308.3,184.85,309.3,194.11Z" transform="translate(-114.47 -79.58)"/><path class="cls-24" d="M310.9,195.52c.92,8.55-3.75,16.11-10.43,16.86s-12.84-5.55-13.76-14.11,2.62-15.37,9.22-16.67S310,187,310.9,195.52Z" transform="translate(-114.47 -79.58)"/><path class="cls-22" d="M598.3,112.94c25.49-.18,33.53,25.77,61,7,.37-11.61-10.46-16.19-15-18Z" transform="translate(-114.47 -79.58)"/><path class="cls-93" d="M204.72,759.65V740.43a8.12,8.12,0,0,1,8.09-8.1h36.51" transform="translate(-114.47 -79.58)"/><rect class="cls-94" x="57.93" y="682.61" width="130.5" height="153.74" rx="8.09" ry="8.09"/><rect class="cls-94" x="53.77" y="678.15" width="139.5" height="84.86" rx="8.09" ry="8.09"/><path class="cls-93" d="M270.72,761.92" transform="translate(-114.47 -79.58)"/><path class="cls-93" d="M249.32,732.33" transform="translate(-114.47 -79.58)"/><line class="cls-95" x1="167.2" y1="756.8" x2="61.64" y2="756.8"/><path class="cls-96" d="M238,830.67v14.79a2.71,2.71,0,0,1-2.7,2.7H213.64a2.71,2.71,0,0,1-2.7-2.7V830.67" transform="translate(-114.47 -79.58)"/><path class="cls-97" d="M281.66,766.43V833.9a8.66,8.66,0,0,0,3.15,6.63v67.83a7.19,7.19,0,0,0,7.18,7.17h3.73a6.65,6.65,0,0,0,1.48-.17,7.16,7.16,0,0,0,5.69-7V841.65a8.7,8.7,0,0,0,4.84-7.75V766.43a8.71,8.71,0,0,0-8.69-8.69h-8.67a8.74,8.74,0,0,0-8.27,6A8.08,8.08,0,0,0,281.66,766.43Z" transform="translate(-114.47 -79.58)"/><path class="cls-24" d="M298.87,687.33" transform="translate(-114.47 -79.58)"/><path class="cls-98" d="M261.41,725.72H250.7a6.61,6.61,0,1,0,0,13.22h10.71c2.21,0,4.09,2.17,4.09,4.72v14.08h13.22V743.66C278.72,733.77,271,725.72,261.41,725.72Z" transform="translate(-114.47 -79.58)"/><polygon class="cls-32" points="590.41 412.03 444.81 412.03 451.55 386.13 583.68 386.13 590.41 412.03"/><path class="cls-55" d="M579.89,472.85a36.07,36.07,0,0,0-2.8,12.11c-.05.9,1.35.9,1.4,0a35.19,35.19,0,0,1,2.75-11.74C581.59,472.39,580.23,472,579.89,472.85Z" transform="translate(-114.47 -79.58)"/><path class="cls-55" d="M583.14,477.78c-.51,2-1,4-1.52,5.92a.7.7,0,0,0,1.35.37c.51-2,1-3.94,1.52-5.91A.7.7,0,0,0,583.14,477.78Z" transform="translate(-114.47 -79.58)"/><path class="cls-55" d="M602.39,472.54a49.62,49.62,0,0,0-1.84,12.77.7.7,0,0,0,1.4,0,48.13,48.13,0,0,1,1.79-12.4A.7.7,0,0,0,602.39,472.54Z" transform="translate(-114.47 -79.58)"/><path class="cls-55" d="M606.13,471.82q-.93,6.66-1.88,13.33c-.12.88,1.23,1.26,1.35.37q.95-6.67,1.88-13.33C607.61,471.31,606.26,470.93,606.13,471.82Z" transform="translate(-114.47 -79.58)"/><path class="cls-55" d="M608.94,473.76q-.72,5.42-1.43,10.84c-.12.89,1.28.88,1.4,0q.71-5.42,1.43-10.84C610.45,472.86,609.05,472.87,608.94,473.76Z" transform="translate(-114.47 -79.58)"/><path class="cls-55" d="M615.31,474.63a46.69,46.69,0,0,0-2.13,9.63c-.1.9,1.3.89,1.4,0a44.63,44.63,0,0,1,2.08-9.26C616.94,474.14,615.59,473.77,615.31,474.63Z" transform="translate(-114.47 -79.58)"/><path class="cls-55" d="M619.16,476.38l-1,6.3c-.15.88,1.2,1.26,1.35.37l1-6.3C620.65,475.87,619.3,475.49,619.16,476.38Z" transform="translate(-114.47 -79.58)"/><path class="cls-55" d="M663.56,482.56c.34-.63,1.94-1.36,2.54-1.79a.71.71,0,0,0,0-1.21,8.45,8.45,0,0,0-2.14-.87,7.58,7.58,0,0,0,1.3-4.92c-.06-.89-1.46-.9-1.4,0a6.38,6.38,0,0,1-1.63,4.9.71.71,0,0,0,.49,1.2,6.2,6.2,0,0,1,1.54.37c-1.2.69-2.71,1.61-2.79,2.64-.1,1.51,2.31,1.93,3.32,2.06s1.26-1.23.37-1.35a5.58,5.58,0,0,1-1.14-.21C663,483.3,662.81,483,663.56,482.56Z" transform="translate(-114.47 -79.58)"/></g></g></svg>