<svg id="Layer_1" data-name="Layer 1" xmlns="http://www.w3.org/2000/svg" viewBox="0 0 265.31 235.57"><defs><style>.cls-1{fill:#4eccab;opacity:0.3;}.cls-1,.cls-10,.cls-11,.cls-12,.cls-13,.cls-14,.cls-15,.cls-16,.cls-17,.cls-18,.cls-19,.cls-2,.cls-20,.cls-21,.cls-22,.cls-23,.cls-24,.cls-25,.cls-26,.cls-27,.cls-28,.cls-29,.cls-3,.cls-30,.cls-31,.cls-32,.cls-33,.cls-34,.cls-4,.cls-5,.cls-6,.cls-7,.cls-8,.cls-9{fill-rule:evenodd;}.cls-2{fill:#d1d2d4;}.cls-3{fill:#cf884b;}.cls-4{fill:#c47d3f;}.cls-5{fill:#db995e;}.cls-6{fill:#633418;}.cls-7{fill:#f8ede7;}.cls-8{fill:#c3c4c4;}.cls-9{fill:#429fc8;}.cls-10{fill:#74392b;}.cls-11{fill:#3c3c3c;}.cls-12{fill:#849899;}.cls-13{fill:#a3b7be;}.cls-14{fill:#ffbb06;}.cls-15{fill:#611a50;}.cls-16{fill:#922577;}.cls-17{fill:#f4f4f4;}.cls-18{fill:#c370a6;}.cls-19{fill:#f9b57c;}.cls-20{fill:#eb8d59;}.cls-21{fill:#51a106;}.cls-22{fill:#424242;}.cls-23{fill:#181411;}.cls-24{fill:#139e79;}.cls-25{fill:#17755c;}.cls-26{fill:#9c3;}.cls-27{fill:#13ad84;}.cls-28{fill:#0d634c;}.cls-29{fill:#7c3229;}.cls-30{fill:#d62236;}.cls-31{fill:#f0a05d;}.cls-32{fill:#f7818d;}.cls-33{fill:#076855;}.cls-34{fill:#f03448;}</style></defs><title>runners</title><path class="cls-1" d="M74.42,165.22c8.79,31.55,62.47,58.48,128.27,62.8s131.89-49.37,131.59-98.67S191,26.42,148.34,33.29c-47,7.6-86.4,87.18-73.92,131.93Z" transform="translate(-68.97 -32.69)"/><path class="cls-2" d="M201.39,268.26c67.64,0,122.73-3.58,122.73-7.91s-55.09-7.9-122.73-7.9-122.8,3.5-122.8,7.9,55.16,7.91,122.8,7.91Z" transform="translate(-68.97 -32.69)"/><path class="cls-3" d="M169.9,72.77s1.42-1.64,1.48,1-3.14,6.76-.92,10.73.42,7,.42,7L156.53,86.8,155,81s.87-8,.31-9.79-2.74-13.48-2.74-13.48l5-3.11,6.9-1.67,1.76,18.69Z" transform="translate(-68.97 -32.69)"/><path class="cls-4" d="M161.34,66.76s-4.82,4.39,8.62,12.37c.51-2,1.42-3.93,1.42-5.37-.06-2.63-1.48-1-1.48-1l-3.6-1.13-.56-5.54c-2,.47-4.37.94-4.4.66Z" transform="translate(-68.97 -32.69)"/><path class="cls-5" d="M177.26,47.55a18.43,18.43,0,0,1,1.18,6.91c0,.86-1.12,2.32-1.28,2.88a4.64,4.64,0,0,0,1.12,3.85,21.4,21.4,0,0,0,4.37,3.37s-.69,1.31-4.92,1.63c-.19-.15-.59,2-.26,2.74-.06.67-1,.7-1.05,2.52,2.61,7.56-3.09,6.09-7.08,4.24s-5.83-3.29-6.9-4.72a7,7,0,0,1-1.09-3.35,8.26,8.26,0,0,1,0-.86s-5.24-1.56-5.18-2c0-.15-.54-3.62.16-5.72a3.47,3.47,0,0,1,3.26-2.5c-4.34,7.82,1.15,8.86,1.8,8.71.85-.22-.11-2.19-.35-2.46-.91-1.2-1.47-1.58.52-2.41s-3.26-2-2-3.84,1.77-8.07,1.77-8.07l3.6-3Z" transform="translate(-68.97 -32.69)"/><path class="cls-6" d="M178.08,51.14c1.36-.18,4-3.12,1.21-6.59-.52-.68-1.11-2.77-2-3.6-1.81-1.53-5.44-1.93-9.31-1.59s-7.57-.9-9.56-.28C156,39.7,153,41.46,152,43.36c-2,4.13,0,10-2.89,14.49-5.38,5.44,3.77,5.15,2.86,9.91-.3,1.83,3.46,4.26,3.46,4.26,2.45-.13,4.36-2,5.85-5.11,0,0-4.87-.9-4.33-5.53s3.47-6.23,4.37-3.81,2.92,2.65,3,1.9-.46-4.22.17-6.52,3.82-4,1.49-4.75,3.64,0,5.92.47-.14,2.27,6.13,2.47Z" transform="translate(-68.97 -32.69)"/><path class="cls-6" d="M176.26,53.71l.52-.54.67.27-1.23,2.22a7.5,7.5,0,0,0-2.41-.82,7.2,7.2,0,0,0-4.17.72c-1.73.75.2-.85.2-.85a11.65,11.65,0,0,1,2.29-1.22,4.42,4.42,0,0,1,1.28.63l.12-.9.6.5.12-.68,1,.23.23,1.06L176,53Z" transform="translate(-68.97 -32.69)"/><path class="cls-7" d="M175.2,58.45c-.45-1.28-.72-.83-1.36-1.25a2,2,0,0,0-1.88-.07c-.57.2-.25,1.52.58,2.09.61.51,1.91,1,2.66-.77Z" transform="translate(-68.97 -32.69)"/><path class="cls-8" d="M174.42,57.43l0,.06A6.43,6.43,0,0,1,174,59.6l-.1.11c.47-.09.67-.52,1.41-1.07-.44-.85-.59-1.08-.84-1.21Z" transform="translate(-68.97 -32.69)"/><path class="cls-9" d="M173.25,59.63a1,1,0,0,0,1-.06,1.32,1.32,0,0,0,.53-2c-1-1.73-2.24,1.56-1.51,2Z" transform="translate(-68.97 -32.69)"/><path class="cls-10" d="M175.62,58.45c-.81-2-4.43-3.13-6.08-.91,1.54-.9,4.69-.84,6.08.91Z" transform="translate(-68.97 -32.69)"/><path class="cls-3" d="M177.77,69c.09.47-.24,1.16-.67,1.16-1.53.1-4.19-1.2-5.24-2,0,0,6,.17,5.91.83Z" transform="translate(-68.97 -32.69)"/><path class="cls-3" d="M176.62,72.67c-1.07-.64-1.73-2.13-2.65-2.74a13.11,13.11,0,0,1,2.82.53c0,.73-.07,1.46-.17,2.21Z" transform="translate(-68.97 -32.69)"/><path class="cls-5" d="M171.17,67.81l5.59,1.94c.72.25,1.23,1.3.64,1.65-1.12.67-5.42-2.08-6.23-3.59Z" transform="translate(-68.97 -32.69)"/><path class="cls-3" d="M180.68,65.67s-2.72.36-3.41-.4-2.48-.58-2.3-.28,1.64,1.66,5.71.68Z" transform="translate(-68.97 -32.69)"/><path class="cls-11" d="M158.11,179.57c1.09.08,7.52-4.21,11.88-7.71s5.94-4.59,5.64-5.47a4.74,4.74,0,0,0-.79-.91c-4.4-5.43-23.54,13.71-16.73,14.09Z" transform="translate(-68.97 -32.69)"/><path class="cls-3" d="M207.9,228.83c-1-.91-6.92-16.75-8.12-19.25s-4.48-14.74-5.12-18.58-.64-5.47-2.33-9-17-14.89-20.08-17.93S160.33,151.54,160,150.63s-19.29-3-14.48,9.08,9.7,17.47,16.81,21.08,16.92,7.9,17.67,9.53a48.47,48.47,0,0,1,2.48,9c.76,3.76.31,7.33,7.64,16.34s8.42,15.34,8.87,18.3,5.19,7,7.6,5,3.42-6.77,1.28-10.11Z" transform="translate(-68.97 -32.69)"/><path class="cls-11" d="M163,149.76c-1.21.68-6-1.64-2.15,4s4.82,6.95,5,7.41.57-2.39,1.58-6.76,1.24-4.52,1-4.71-5.49.08-5.49.08Z" transform="translate(-68.97 -32.69)"/><path class="cls-11" d="M133.18,175.89s1.28-4.3,7.56-1.18,14.25,9.08,12,12.61-17.26-8.7-19.59-11.43Z" transform="translate(-68.97 -32.69)"/><path class="cls-3" d="M96.21,174.9c.72.53,8.54,7.33,11.17,10s10.15,9.95,13.69,14,9.36,8.62,12.56,7.94,9.85-8.89,12.78-13.26,5.91-9.23,5.91-9.23l10.34-18.68-21.32-9.42s-7.22,18.19-8.58,22.48a31.4,31.4,0,0,0-1.65,7.64c0,.76-2.29-2.89-4.44-4.11s-7.07-4.06-12-6.23-10.38-4.29-14.33-8.81-4.1-.19-7.26,1.18-1.46,3,3.16,6.42Z" transform="translate(-68.97 -32.69)"/><path class="cls-12" d="M139.12,161.42c0,.53-6.73,13.06-5.94,14.47.86-1.86,3.72.26,5,.91,3.68,1.86,10.15,5.2,13.16,7.25,2.56,1.79,1.24,3.42,1.5,3.19s4.48-8.69,4.93-9.72-13.24-17.21-18.69-16.1Z" transform="translate(-68.97 -32.69)"/><path class="cls-13" d="M135.47,134.91c.6.19,21.81,2.77,21.81,2.77a32.09,32.09,0,0,0,4.51,13.94c2.83,4.67,12.53,12.11,13.84,14.77-7.93,1.06-13.8,5.36-17.52,13.18-.19.49-1.73.72-3.12-1.14-2.14-2.85-6.81-6-8.54-7.37-2.67-2.2-11.17-4.63-12.82-10.78a40.35,40.35,0,0,1-1.39-12c.11-.27,3.23-13.33,3.23-13.33Z" transform="translate(-68.97 -32.69)"/><path class="cls-3" d="M174.17,83.59a11.79,11.79,0,0,1,6.62,3.73c2.51,3.11,3,6.53,7.06,9.49s11.14,7,12.45,8.62,1.51,3,.27,4.52-2.71,6.12-7.11,6-10.53-6.87-10.72-8.5-3.69-3.8-5.72-4.79-2.7-9-2.7-9-1.47-10.52-.15-10Z" transform="translate(-68.97 -32.69)"/><path class="cls-4" d="M200.3,105.43a12,12,0,0,0-7.78-1.21c-4.18.87-9.25,2.24-9.55,4.63a6.29,6.29,0,0,0,4.1,6.61c3.27,1.44,7.7,3.15,11.2-1.6s3.84-6.83,2-8.43Z" transform="translate(-68.97 -32.69)"/><path class="cls-4" d="M184.36,108.09c-.64,0-5,3.15-5.34,3.53s.3,3.46.94,4.14,1.58.46,2.52,1.48,1.43,1.64,2.14,1.22.53-2.58,0-3.57-2.78-1.67-2.63-2.43,2.78-3,2.41-4.37Z" transform="translate(-68.97 -32.69)"/><path class="cls-3" d="M169.75,81.53a37.13,37.13,0,0,1-7.53-.54c-2.62-.42-5-.83-6.68-2.68a11.38,11.38,0,0,1-5.17,1.86c6.91,12.46,16.54,20,20.83,17.67s2.2-14.1.73-14.93C170.8,82.27,169.91,82.51,169.75,81.53Z" transform="translate(-68.97 -32.69)"/><path class="cls-5" d="M185.49,104.06a8.28,8.28,0,0,1,2.29,2.13c.34.65,1.58-.11,1.88.31a7,7,0,0,1,1.13,1.74c.07.5,1-.07,1.8.57s.64,1.83.94,2.21,1.06.6,1.39.79a2.29,2.29,0,0,1,.46,1.67c-.12.46-5,4.11-5.87,4.49s-1.77-.69-1.84-1-.42.23-.6.23-2-1.07-1.85-1.6-.15-.15-.45-.27-1.5-.72-1.13-1.82-.45,1-.67.88-1.85-.27-1.51-1.64.64-3.76,1.32-4.71,1.24-4.06,2.71-4Z" transform="translate(-68.97 -32.69)"/><path class="cls-14" d="M147.81,80.33s2.67-.19,3.64-.16,3.54,1.94,8.73,6.08,9.06,7.18,11.92,5.66-.87-8.92-1.32-9.42,3.39,1.1,3.39,1.1,2.25,7.64,3.08,11.06-.15,11.28-1,14.81a48.15,48.15,0,0,1-3,8.89,21.76,21.76,0,0,0-2.07,7.1c-.57,3,.41,10.06.37,11.28s-1.2,1.56-.9,3.38a9.87,9.87,0,0,1-.11,4.67c-.41,1.9,0,.23.37,3.3a9.42,9.42,0,0,1-1.54,6.42c-.6.88-11.69-3.49-14.14-3.64s-5.64,1.59-11,2.12-11.43-.53-14.06-2.88,0-4.83,1.88-9.61,4.4-20.59,4.32-24,.19-3.42.68-6.61a10.38,10.38,0,0,1,2.48-5.17,18.43,18.43,0,0,0,.57,4.86c.6,1.64,5.45,3,9.44-1.78s4.73-18.19,4.25-21.5-6-5.92-6-5.92Z" transform="translate(-68.97 -32.69)"/><path class="cls-3" d="M147.81,80.33c2,1,5.15.22,6.13,6.91S153,107.29,146,110.86s-5.83-2.24-6.13-5.35-3.16,3.15-4.66,4.1-4.7,4-3.84,4.63,5.87,4.9,7,10.6a17.46,17.46,0,0,0,6.69,10.37c1.73,1.18,5.15.57,7.41,4.14s.9,3.49,1.5,4.4,1.39,1.49.6,2.4a47.57,47.57,0,0,1-3.87,3.49c-2,1.75-1.66,3-2.45,3s-6.2-2.32-8.94-8.36-4.63-7-5.27-8-7.67-6.34-11.66-12.8-7.89-8.13-7.44-12.61,3.91-4.86,9.47-11.43,9-7.25,9.71-8.28,2.29-5.32,7.33-8.2,6.32-2.62,6.32-2.62Z" transform="translate(-68.97 -32.69)"/><path class="cls-15" d="M69.68,183.27s-.36-.08-.08-.82,22.62-26.09,22.62-26.09c.91-.33,1.78-.47,2.25.92l-24.79,26Z" transform="translate(-68.97 -32.69)"/><path class="cls-16" d="M69.66,182.38l22.87-26.11a.27.27,0,0,0,0-.39h0a.28.28,0,0,0-.39,0L69.23,182a.28.28,0,0,0,0,.4h0a.28.28,0,0,0,.4,0Z" transform="translate(-68.97 -32.69)"/><path class="cls-16" d="M69.47,181.8,71,180a.28.28,0,0,0,0-.4h0a.28.28,0,0,0-.4,0L69,181.42a.29.29,0,0,0,0,.4h0a.29.29,0,0,0,.4,0Z" transform="translate(-68.97 -32.69)"/><path class="cls-16" d="M72.06,178.85l1.54-1.76a.3.3,0,0,0,0-.41h0a.27.27,0,0,0-.39,0l-1.54,1.76a.26.26,0,0,0,0,.39h0a.29.29,0,0,0,.4,0Z" transform="translate(-68.97 -32.69)"/><path class="cls-16" d="M74.64,175.89l1.55-1.76a.29.29,0,0,0,0-.4h0a.28.28,0,0,0-.39,0l-1.55,1.76a.28.28,0,0,0,0,.4h0a.26.26,0,0,0,.39,0Z" transform="translate(-68.97 -32.69)"/><path class="cls-16" d="M77.23,172.94l1.54-1.76a.28.28,0,0,0,0-.4h0a.28.28,0,0,0-.4,0l-1.54,1.76a.29.29,0,0,0,0,.4h0a.28.28,0,0,0,.4,0Z" transform="translate(-68.97 -32.69)"/><path class="cls-16" d="M79.82,170l1.54-1.77a.3.3,0,0,0,0-.4h0a.28.28,0,0,0-.39,0l-1.55,1.77a.28.28,0,0,0,0,.39h0a.29.29,0,0,0,.4,0Z" transform="translate(-68.97 -32.69)"/><path class="cls-16" d="M82.4,167,84,165.27a.29.29,0,0,0,0-.4h0a.29.29,0,0,0-.4,0L82,166.65a.28.28,0,0,0,0,.4h0a.28.28,0,0,0,.4,0Z" transform="translate(-68.97 -32.69)"/><path class="cls-16" d="M85,164.08l1.54-1.77a.27.27,0,0,0,0-.39h0a.28.28,0,0,0-.4,0l-1.54,1.76a.27.27,0,0,0,0,.39h0a.29.29,0,0,0,.4,0Z" transform="translate(-68.97 -32.69)"/><path class="cls-16" d="M87.58,161.12l1.54-1.76a.28.28,0,0,0,0-.4h0a.29.29,0,0,0-.4,0l-1.54,1.76a.28.28,0,0,0,0,.4h0a.28.28,0,0,0,.4,0Z" transform="translate(-68.97 -32.69)"/><path class="cls-16" d="M90.16,158.17l1.55-1.76a.28.28,0,0,0,0-.4h0a.27.27,0,0,0-.39,0l-1.55,1.76a.29.29,0,0,0,0,.4h0a.28.28,0,0,0,.39,0Z" transform="translate(-68.97 -32.69)"/><path class="cls-15" d="M69.68,183.27s.93,1.38,1.21,1.41.83.26,1.15,0,7.69-3.35,7.69-3.35L90,178.17a6.45,6.45,0,0,0,4.72.42c.6-.21,2.37-1.28,2.47-1.92.07-.44-.3-1.27-1.7-3l7.36-6.22a1.34,1.34,0,0,0,.49-1,1.38,1.38,0,0,0-.44-1.06l-8.44-8.09Z" transform="translate(-68.97 -32.69)"/><path class="cls-17" d="M95.5,173.68l-.67,1a.28.28,0,0,1-.36.1l-.55-.26a1.42,1.42,0,0,1-.73-1.74,18.7,18.7,0,0,1,3.72-5.78,5.22,5.22,0,0,1,5.22-2.43l.78.75a1.38,1.38,0,0,1,.44,1.06,1.34,1.34,0,0,1-.49,1l-7.36,6.22Z" transform="translate(-68.97 -32.69)"/><path class="cls-17" d="M81.58,170.79s8.64-1.46,12.67-3.34,3.09-2.95,5.43-2.94,2.19-.14,2.19-.14h0l-7.4-7.09Z" transform="translate(-68.97 -32.69)"/><path class="cls-16" d="M90,178.17a10.06,10.06,0,0,1,3.11-5c2.37-1.85,2.38.56,2.38.56,1.4,1.72,1.77,2.55,1.7,3-.1.64-1.87,1.71-2.47,1.92a6.45,6.45,0,0,1-4.72-.42Z" transform="translate(-68.97 -32.69)"/><path class="cls-16" d="M80.21,181.67l-.71-2a.69.69,0,0,0-.87-.43h0a.67.67,0,0,0-.42.87l.7,2a.7.7,0,0,0,.87.44h0a.69.69,0,0,0,.43-.87Z" transform="translate(-68.97 -32.69)"/><path class="cls-16" d="M82.08,181.05,81.37,179a.7.7,0,0,0-.87-.43h0a.68.68,0,0,0-.43.87l.71,2a.69.69,0,0,0,.87.43h0a.69.69,0,0,0,.43-.87Z" transform="translate(-68.97 -32.69)"/><path class="cls-16" d="M83.94,180.42l-.71-2a.69.69,0,0,0-.87-.43h0a.67.67,0,0,0-.42.87l.7,2a.71.71,0,0,0,.88.44h0a.69.69,0,0,0,.43-.87Z" transform="translate(-68.97 -32.69)"/><path class="cls-16" d="M85.81,179.8l-.71-2.05a.7.7,0,0,0-.87-.43h0a.68.68,0,0,0-.42.87l.7,2a.69.69,0,0,0,.87.44h0a.69.69,0,0,0,.43-.87Z" transform="translate(-68.97 -32.69)"/><path class="cls-16" d="M87.67,179.17l-.7-2a.71.71,0,0,0-.88-.44h0a.69.69,0,0,0-.43.87l.71,2a.7.7,0,0,0,.87.44h0a.69.69,0,0,0,.42-.87Z" transform="translate(-68.97 -32.69)"/><path class="cls-16" d="M89.54,178.55l-.71-2.05a.69.69,0,0,0-.87-.43h0a.69.69,0,0,0-.42.87l.7,2.05a.71.71,0,0,0,.88.43h0a.68.68,0,0,0,.43-.86Z" transform="translate(-68.97 -32.69)"/><path class="cls-18" d="M93.62,165.49l3.63-4.16a1,1,0,0,0-.09-1.38l0,0a1,1,0,0,0-1.39.09l-3.64,4.15a1,1,0,0,0,.1,1.39h0a1,1,0,0,0,1.39-.08Z" transform="translate(-68.97 -32.69)"/><path class="cls-18" d="M92,164.07l3.64-4.15a1,1,0,0,0-.1-1.39h0a1,1,0,0,0-1.39.08l-3.63,4.16a1,1,0,0,0,.1,1.38v0a1,1,0,0,0,1.39-.09Z" transform="translate(-68.97 -32.69)"/><path class="cls-18" d="M77.8,182.19s-1.12-1.16-.63-2.08a16.86,16.86,0,0,1,2.34-2.62,1.09,1.09,0,0,0,.39-1.37c-.41-.82,1.19-4.82,1.68-5.33h0l0,0,0,0-.53.56-.24.25-.46.49-.75.78-1.77,1.86-.07.08-.46.47-.18.2L76,176.7l-.2.21-.49.51-.6.63-1.21,1.26-.25.27-.85.9-.63.66-.22.22-.23.25-.19.19-.14.15-.42.44-.07.08-.18.18-.27.29-.16.17-.12.11,0,.05s.93,1.38,1.21,1.41.83.26,1.15,0,3.55-1.58,5.76-2.53Z" transform="translate(-68.97 -32.69)"/><path class="cls-15" d="M76.59,182.71a1.92,1.92,0,0,1-.57-2.27c.46-.83,1.19-1.69,1.49-2.29s0-1-.52-.77-1.42,1.31-3.07,4.47c-.74,1.43-1.19,2.23-1.46,2.67.79-.36,2.55-1.12,4.13-1.81Z" transform="translate(-68.97 -32.69)"/><path class="cls-17" d="M91.92,178.76l-.09-.67.63-.28-2.45.36a22,22,0,0,0,3.63-1.07,6.91,6.91,0,0,0,1-2.24.3.3,0,0,0,.2-.13l.25-.4s-.21,2.32-.9,2.88a13.33,13.33,0,0,0,1.26-.6l.07,1.59a4.62,4.62,0,0,1-.78.39,5.41,5.41,0,0,1-2.81.17Z" transform="translate(-68.97 -32.69)"/><path class="cls-15" d="M92.19,177.34l.35-.48a.49.49,0,0,0-.1-.67h0a.48.48,0,0,0-.67.1l-.35.48a.48.48,0,0,0,.1.67h0a.49.49,0,0,0,.67-.1Z" transform="translate(-68.97 -32.69)"/><path class="cls-15" d="M93.25,175.88l.36-.49a.48.48,0,0,0-.11-.66h0a.48.48,0,0,0-.67.1l-.35.48a.48.48,0,0,0,.11.67h0a.47.47,0,0,0,.66-.1Z" transform="translate(-68.97 -32.69)"/><path class="cls-18" d="M94.83,174.73a.26.26,0,0,1-.14.11l-1.57-1.37a1.93,1.93,0,0,1,0-.24l1.72,1.5Zm-1.34-2.66c0,.06,0,.11-.07.16l1.93,1.69.09-.15Zm-.23.55-.06.17L95,174.4l.09-.15Zm2.45.88.14-.12-2.11-1.84c0,.06,0,.11-.08.16Zm.43-.37.14-.11L94,171a1.19,1.19,0,0,0-.08.16Zm.44-.36.13-.12-2.41-2.11-.09.15Zm.43-.37.13-.11-2.54-2.23-.09.14Zm.43-.37.14-.11-2.66-2.33-.1.14Zm.44-.36.13-.12-2.76-2.42-.11.14Zm.43-.37.14-.11-2.87-2.51a1.34,1.34,0,0,1-.11.14Zm.44-.36.13-.12-3-2.58a1.13,1.13,0,0,1-.1.13Zm.43-.37.13-.12-3-2.65-.11.13Zm.43-.37.14-.11-3.11-2.72-.11.13Zm.44-.36.13-.12L97,166.93l-.08.12,0,0Zm.43-.37.13-.11-3.29-2.88-.11.13Zm.43-.37L101,169l-3.34-2.93a1.36,1.36,0,0,1-.12.12Zm.44-.36.13-.11-3.35-2.94-.14.11Zm.43-.37.13-.11-3.31-2.9-.15.1Zm.43-.36.14-.12-3.22-2.81-.17.08Zm.44-.37.13-.11-3.06-2.68-.19.06Zm.41-.38.1-.15-2.78-2.43-.21,0Zm.25-.53a1.18,1.18,0,0,0,0-.2l-2.21-1.93h-.25Zm0-.76a1.54,1.54,0,0,0-.23-.44l-1-.92h-.29Z" transform="translate(-68.97 -32.69)"/><path class="cls-15" d="M232.19,245.24s.18.32-.55.62-34.5,1.43-34.5,1.43c-.86-.44-1.56-1-.87-2.27l35.92.22Z" transform="translate(-68.97 -32.69)"/><path class="cls-16" d="M231.55,245.86l-34.69,1.26a.28.28,0,0,0-.26.3h0a.28.28,0,0,0,.28.28l34.69-1.27a.28.28,0,0,0,.27-.29h0a.29.29,0,0,0-.29-.27Z" transform="translate(-68.97 -32.69)"/><path class="cls-16" d="M231.26,246.4l-2.35.09a.27.27,0,0,0-.26.29h0a.27.27,0,0,0,.29.27l2.34-.08a.3.3,0,0,0,.27-.3h0a.29.29,0,0,0-.29-.28Z" transform="translate(-68.97 -32.69)"/><path class="cls-16" d="M227.33,246.54l-2.34.09a.29.29,0,0,0-.27.29h0a.28.28,0,0,0,.29.27l2.34-.08a.28.28,0,0,0,.27-.29h0a.29.29,0,0,0-.29-.28Z" transform="translate(-68.97 -32.69)"/><path class="cls-16" d="M223.41,246.69l-2.34.08a.29.29,0,0,0-.27.3h0a.29.29,0,0,0,.29.27l2.34-.09a.29.29,0,0,0,.27-.29h0a.29.29,0,0,0-.29-.27Z" transform="translate(-68.97 -32.69)"/><path class="cls-16" d="M219.48,246.83l-2.33.08a.3.3,0,0,0-.28.3h0a.3.3,0,0,0,.3.27l2.33-.09a.28.28,0,0,0,.28-.29h0a.29.29,0,0,0-.3-.27Z" transform="translate(-68.97 -32.69)"/><path class="cls-16" d="M215.56,247l-2.34.09a.29.29,0,0,0-.27.29h0a.29.29,0,0,0,.29.27l2.34-.08a.28.28,0,0,0,.27-.29h0a.29.29,0,0,0-.29-.28Z" transform="translate(-68.97 -32.69)"/><path class="cls-16" d="M211.64,247.11l-2.34.09a.28.28,0,0,0-.27.29h0a.27.27,0,0,0,.29.27l2.34-.08a.29.29,0,0,0,.27-.29h0a.3.3,0,0,0-.29-.28Z" transform="translate(-68.97 -32.69)"/><path class="cls-16" d="M207.71,247.26l-2.34.08a.3.3,0,0,0-.27.3h0a.29.29,0,0,0,.29.27l2.35-.09a.27.27,0,0,0,.26-.29h0a.27.27,0,0,0-.29-.27Z" transform="translate(-68.97 -32.69)"/><path class="cls-16" d="M203.79,247.4l-2.34.09a.27.27,0,0,0-.27.29h0a.29.29,0,0,0,.29.27l2.34-.09a.27.27,0,0,0,.27-.29h0a.27.27,0,0,0-.29-.27Z" transform="translate(-68.97 -32.69)"/><path class="cls-16" d="M199.87,247.54l-2.35.09a.29.29,0,0,0-.27.29h0a.28.28,0,0,0,.3.27l2.34-.08a.29.29,0,0,0,.27-.29h0a.29.29,0,0,0-.29-.28Z" transform="translate(-68.97 -32.69)"/><path class="cls-15" d="M232.19,245.24s.36-1.62.19-1.85-.38-.78-.76-.87-7.72-3.29-7.72-3.29l-9.37-5.29a6.45,6.45,0,0,0-2.93-3.72c-.57-.3-2.56-.85-3.09-.49-.37.25-.72,1.1-1,3.29l-9.56-1.09a1.4,1.4,0,0,0-1.09.35,1.35,1.35,0,0,0-.47,1.05l-.1,11.69Z" transform="translate(-68.97 -32.69)"/><path class="cls-17" d="M207.49,233l1.23-.22a.27.27,0,0,1,.32.19l.18.57a1.42,1.42,0,0,1-.76,1.73,18.58,18.58,0,0,1-6.76,1.25,5.2,5.2,0,0,1-5.34-2.13v-1.08a1.35,1.35,0,0,1,.47-1.05,1.4,1.4,0,0,1,1.09-.35l9.56,1.09Z" transform="translate(-68.97 -32.69)"/><path class="cls-17" d="M214.94,245.13s-7-5.28-11.12-6.93-4.27-.22-5.87-1.93-1.6-1.49-1.6-1.49h0L196.27,245Z" transform="translate(-68.97 -32.69)"/><path class="cls-16" d="M214.53,233.94a10,10,0,0,1-5.81,1.2c-3-.46-1.23-2.12-1.23-2.12.3-2.19.65-3,1-3.29.53-.36,2.52.19,3.09.49a6.45,6.45,0,0,1,2.93,3.72Z" transform="translate(-68.97 -32.69)"/><path class="cls-16" d="M223.8,238.67l-1,1.91a.7.7,0,0,0,.28.94h0a.67.67,0,0,0,.92-.29l1-1.91a.7.7,0,0,0-.28-.94h0a.67.67,0,0,0-.92.28Z" transform="translate(-68.97 -32.69)"/><path class="cls-16" d="M222.06,237.74l-1,1.92a.69.69,0,0,0,.29.93h0a.69.69,0,0,0,.93-.29l1-1.91a.69.69,0,0,0-.28-.93h0a.69.69,0,0,0-.93.28Z" transform="translate(-68.97 -32.69)"/><path class="cls-16" d="M220.33,236.81l-1,1.92a.69.69,0,0,0,.28.93h0a.67.67,0,0,0,.92-.29l1-1.91a.7.7,0,0,0-.28-.94h0a.69.69,0,0,0-.93.28Z" transform="translate(-68.97 -32.69)"/><path class="cls-16" d="M218.59,235.88l-1,1.92a.69.69,0,0,0,.29.93h0a.67.67,0,0,0,.92-.29l1-1.91a.71.71,0,0,0-.28-.94h0a.69.69,0,0,0-.93.28Z" transform="translate(-68.97 -32.69)"/><path class="cls-16" d="M216.86,235l-1,1.91a.69.69,0,0,0,.28.93h0a.68.68,0,0,0,.93-.29l1-1.91a.7.7,0,0,0-.29-.93h0a.68.68,0,0,0-.93.29Z" transform="translate(-68.97 -32.69)"/><path class="cls-16" d="M215.13,234l-1,1.91a.7.7,0,0,0,.28.94h0a.69.69,0,0,0,.93-.28l1-1.92a.69.69,0,0,0-.29-.93h0a.67.67,0,0,0-.92.29Z" transform="translate(-68.97 -32.69)"/><path class="cls-18" d="M202.83,240l-5.52.2a1,1,0,0,0-.94,1v0a1,1,0,0,0,1,1l5.52-.2a1,1,0,0,0,.94-1v0a1,1,0,0,0-1-1Z" transform="translate(-68.97 -32.69)"/><path class="cls-18" d="M202.9,242.16l-5.51.2a1,1,0,0,0-.95,1v0a1,1,0,0,0,1,1l5.52-.2a1,1,0,0,0,.94-1v0a1,1,0,0,0-1-1Z" transform="translate(-68.97 -32.69)"/><path class="cls-18" d="M225.83,240.07s-.08,1.62-1.08,1.88a17.09,17.09,0,0,1-3.52.1,1.09,1.09,0,0,0-1.26.65c-.31.86-4.32,2.44-5,2.43h2.91l2.57,0h11.77s.36-1.62.19-1.85-.38-.78-.76-.87-3.59-1.49-5.79-2.45Z" transform="translate(-68.97 -32.69)"/><path class="cls-15" d="M227,240.59s.09,1.63-1.27,2c-.92.24-2,.3-2.68.49s-.76.69-.21.91,1.93.13,5.36-.84c1.55-.43,2.44-.66,2.94-.76-.8-.33-2.56-1.08-4.14-1.77Z" transform="translate(-68.97 -32.69)"/><path class="cls-17" d="M213.65,232.15l-.43.52-.64-.27,1.95,1.54a22,22,0,0,0-3.27-1.91,7,7,0,0,0-2.31.82.27.27,0,0,0-.23,0l-.47.08s1.84-1.43,2.72-1.32a12.58,12.58,0,0,0-1.3-.5l1.11-1.15a5.58,5.58,0,0,1,.82.31,5.39,5.39,0,0,1,2.05,1.93Z" transform="translate(-68.97 -32.69)"/><path class="cls-15" d="M212.43,232.92l-.59.08a.48.48,0,0,0-.42.53v0a.47.47,0,0,0,.53.41l.6-.07a.48.48,0,0,0,.41-.53v0a.49.49,0,0,0-.53-.42Z" transform="translate(-68.97 -32.69)"/><path class="cls-15" d="M210.64,233.15l-.6.08a.47.47,0,0,0-.41.53h0a.48.48,0,0,0,.53.42l.6-.07a.5.5,0,0,0,.41-.54h0a.48.48,0,0,0-.53-.42Z" transform="translate(-68.97 -32.69)"/><path class="cls-18" d="M208.72,232.8a.23.23,0,0,1,.18,0l.07,2.08a1.37,1.37,0,0,1-.17.17l-.08-2.27Zm-1,2.79.17-.06-.09-2.56-.18,0Zm.56-.21.17-.08-.09-2.43-.17,0Zm-1-2.39-.18,0,.1,2.8.18-.05Zm-.57-.06-.17,0,.11,3,.17,0Zm-.56-.07-.17,0,.11,3.21.18,0Zm-.57-.06-.16,0,.12,3.38.17,0Zm-.56-.06-.17,0,.13,3.53.17,0Zm-.56-.07-.18,0,.14,3.68.17,0Zm-.56-.06-.18,0,.14,3.8H204Zm-.57-.07-.17,0,.14,3.93.18,0Zm-.56-.06-.18,0,.15,4,.17,0Zm-.56-.06-.18,0,.15,4.12h.17Zm-.57-.07-.17,0,.15,4.24.14,0h0Zm-.56-.06-.17,0,.15,4.37h.18Zm-.57-.07-.17,0,.16,4.45h.17Zm-.56-.06-.17,0,.16,4.45.17,0Zm-.56-.07-.18,0,.16,4.4.18.05Zm-.57-.06-.17,0,.16,4.27.17.07Zm-.56-.07-.17,0,.14,4.07.18.09Zm-.56,0-.17,0,.13,3.69a.94.94,0,0,0,.18.12Zm-.56.17-.17.12.11,2.93.18.17Zm-.54.55a1.4,1.4,0,0,0-.16.46l.05,1.4.19.21Z" transform="translate(-68.97 -32.69)"/><path class="cls-19" d="M283,84c.45-.36,8.71-8,10.44-9.51a1.85,1.85,0,0,0,.87,2.76c1.29.47,1.66,1.68,2.74,2.45a4.32,4.32,0,0,0,2.82,1,7.6,7.6,0,0,0,3.57,4.6c.72.45-1.74,1.72-2.21,1.52s.27,1.66.27,1.66.07.26.12.4a7.3,7.3,0,0,0-1.17,3.19c-.1,1.2.27,1-.87,1.32a1.61,1.61,0,0,0-.54.27c-.78-.08-1.62-.27-2.61-.39-.54-.19-1.12-.43-1.73-.7a22.34,22.34,0,0,1-5.27-3c-.93-.68.52-2.48-.75-.57-.27.47-.72.61-1.41,1.62C287.09,90.87,282.49,84.35,283,84Z" transform="translate(-68.97 -32.69)"/><path class="cls-19" d="M305.09,248.75c-2.06-1.28-4.14-2.65-6.26-4a1.93,1.93,0,0,1-.7,1.07,26.5,26.5,0,0,0,6.86,3.41c.6.18,1.21.34,1.82.49C306.22,249.42,305.65,249.09,305.09,248.75Z" transform="translate(-68.97 -32.69)"/><path class="cls-19" d="M297.76,133.16s7.61,10.94,10.07,11.85,13.21-14,15.11-18.18a112.49,112.49,0,0,1,6.92-12,6,6,0,0,0-1.56-7.45c-2.9-2.16-3.59-4.18-5.36-2.72s-3.25,7.8-3.59,9,.9,4.06.21,5.53-8,10.85-8.83,12.54-8.93-18.42-12.52-21.91-3.46-4.52-3.46-4.52l3.35-4.64L294,99.37s.34-2.7,2.13-3,4.05-.17,4.61-1.31a2.44,2.44,0,0,0,0-2.35c-.21-.4.47-.93.7-1.11-1.13-.26-1.41-1.07-1.56-2.21a2.81,2.81,0,0,1,0-.41,3.21,3.21,0,0,1-2.67-2.12,2,2,0,0,1,.64-2.52,1.71,1.71,0,0,1,1.13-3l-.13.17A1.77,1.77,0,0,1,300,81.1a2.32,2.32,0,0,1-.16-.36c-.23-1.47.72-3.17-.18-4.29s-2.9-4.86-6.15-5.53S279.87,69,276.62,77.57a32.17,32.17,0,0,1-1.51,3.66c-.34.53-.25-.38-.26-.27s-.45-2.25-7-.56-7.82,5.2-10.62,7-3.47,2.37-.79,2a14.08,14.08,0,0,0,4.93-1.36,7.22,7.22,0,0,1-3.48,3,18.87,18.87,0,0,1-5.36.79s1.13,2.49,6.15,2.6-.79,2.26-5.47,2.71a30.81,30.81,0,0,1-7.4,0s3.92,9.48,17.34,4.86S276.41,85.6,276.41,85.6s1,2.72,1.67,4.06,3.58,4.08,3.58,5.54-.34,2.49-2.45,3-8.73,1.68-12.76,3.73-20,8.92-21.81,9.72.22,5.42.67,7.68,4.36,15.7,4.7,17.38,3.25,13.45,4,14.81,2.13,1,2.69,1.8,3.46.23,4.58-.22,3.59-3.05,3.25-4.51-.79-3.63-2.57-4.86a24.09,24.09,0,0,1-5-7.34c-.33-1.36-3.68-15.72-3.57-17.29s13.42-5.42,15.64-5.31,3.14,5.54,4,8.59,3.12,16.71,2.68,20.55-4.24,10.39-7.72,14.23-3.68,10.73-3.36,13.23-.66,8.81-2.22,10.6-5.15,15.37-8.06,18.76-12,6.33-15.77,13.1-9.73,16.73-12.74,18.65a13.65,13.65,0,0,1-6.82,2.14,2.08,2.08,0,0,0-.39.12,1.65,1.65,0,0,1,.41,2.67c-1.07,1-2.13,2.28-3.34,3.22.23,1,.42,2,.63,2.78.76,2.94,1.74,5.79,2.68,8.68.13.4.26.84.38,1.29,0,0,0-.08,0-.12s0-.12.07-.18c0-.53,0-1.05,0-1.59a1.73,1.73,0,0,1,3.46,0c0,.71,0,1.44,0,2.17.25.46.48.91.71,1.35a1.73,1.73,0,0,1,3.39.43,25.32,25.32,0,0,0,.66,5.12v-4.79c-.8-6.64,2.64-11.15,2.53-13.59-.1-2.59,2.8-5.64,3.81-6.43s20.46-20.21,22.59-20.79,8.17-5.31,9.17-7.22,16.67-23.5,18.23-25.19,21.47,9.15,28,10c0,0-7.5,8.14-8.06,15s-2.9,20.79-4.36,21.8-3.69,2.27-4.36,3.17c-.38.49-2.28,2.73-4.14,4.91,6,2.78,11.48,6.8,17.21,10.11,2,1.15,4.07,2.16,6.06,3.27-4.14-2.36-3.7-10.17-4.36-11.64s-2.69-5.29-2.69-5.29,14.66-32.88,16.78-34.69,4.91-7.9,1.9-12-14.77-17-19.69-20.21-11.28-6.32-10.73-9,0-13,.33-15.93S297.76,133.16,297.76,133.16Z" transform="translate(-68.97 -32.69)"/><path class="cls-20" d="M289.88,87.61s1,1.85.24,2.08a2.91,2.91,0,0,1-2.55-.81A4.54,4.54,0,0,1,285.9,86c-.11-.91-.43-2.67,1.81-3a1.89,1.89,0,0,1,2.21,2.61c-.54.69-.95.67,0,2Z" transform="translate(-68.97 -32.69)"/><path class="cls-21" d="M294.35,98l-1.11,3.58s5.33-.65,5.72-1.77S294.35,98,294.35,98Z" transform="translate(-68.97 -32.69)"/><path class="cls-22" d="M320,205.76s-9-3.46-15.61-1.25c1.65-6.32,7.66-12.85,7.66-12.85h0c-6.49-.89-26.29-11.74-28-10s-17.33,23.27-18.23,25.19-6.93,6.66-9.17,7.22c-.81.22-4.05,3.11-7.84,6.67,0,0-2.41-6.85-8.2-10.66,4.32-4.82,11.12-7.38,13.69-10.24,2.91-3.39,6.5-17.05,8.06-18.76s2.67-8.12,2.22-10.6-.1-9.39,3.36-13.23a34.47,34.47,0,0,0,2.76-3.55h0s17.09,6.34,24.87,3.44c-.55,2.72,5.82,5.76,10.73,9s16.55,16.15,19.69,20.21.34,10.06-1.9,12c-.59.51-2.17,3.45-4.13,7.43Z" transform="translate(-68.97 -32.69)"/><path class="cls-19" d="M289.65,87.07s.83,1.48-.18,1.61a3.53,3.53,0,0,1-3.61-2.81c-.55-2.28.52-3.61,3.11-3.39s1.56,2.27.68,4.59Z" transform="translate(-68.97 -32.69)"/><path class="cls-23" d="M284.12,181.62s-17.74-1.56-19.47-11.18c.45,2.48-.66,8.81-2.22,10.6s-5.15,15.37-8.06,18.76c-2.57,2.86-9.37,5.42-13.69,10.24,5.79,3.81,8.2,10.66,8.2,10.66,3.79-3.56,7-6.45,7.84-6.67,2.24-.56,8.17-5.31,9.17-7.22s16.67-23.5,18.23-25.19Z" transform="translate(-68.97 -32.69)"/><path class="cls-24" d="M270.84,100.32s5.64,12.48-.14,14.93c1.06,1.85,1.72,5.07,2.35,7.18.9,3,3.12,16.71,2.68,20.55-.47,3.21-3.29,8.61-6.27,12.51a29.06,29.06,0,0,0,27,3.77,2.6,2.6,0,0,1-.79-2.16c.56-2.7,0-13,.33-15.93s1.79-8,1.79-8,3.2-4.62,2.12-9.92-2.69-8.39-1.67-13.35c-3.57-3.5-3.46-4.52-3.46-4.52l1.43-2c-1.18-.18-2.44-.35-3.59-.49-2.94-.4-8.66-3.3-12.43-5a5,5,0,0,1-1,.35c-1.46.47-5,1.09-8.37,2.07Z" transform="translate(-68.97 -32.69)"/><path class="cls-25" d="M295.86,107.33c-1.72,4.33-8.44,2.39-11,.18s-5.29-6.36-5.61-9.26a6.48,6.48,0,0,0,.62-.2,11.05,11.05,0,0,0,3.13,2.3c4.48,1.51,11.53,3.54,11.75,3.39s.45.22.79.6l-.75,1s-.06.49,1.11,2Z" transform="translate(-68.97 -32.69)"/><path class="cls-26" d="M281.09,97.25a3.8,3.8,0,0,1-1.88,1c2.6,4.44,10.48,14.08,15.59,7.38a1.23,1.23,0,0,1-.05-.26L299,99.81a14.82,14.82,0,0,1-8.09.8,32,32,0,0,1-9.78-3.36Z" transform="translate(-68.97 -32.69)"/><path class="cls-25" d="M297.76,133.16s3.2-4.62,2.12-9.92-2.69-8.39-1.67-13.35c3.59,3.49,11.86,23.72,12.52,21.91s8.06-11.08,8.83-12.54c0,0,2.41,3.19,5.64,3.22h0c-.84,1.52-1.65,3-2.26,4.35C321,131,310.29,145.92,307.83,145s-10.07-11.85-10.07-11.85Z" transform="translate(-68.97 -32.69)"/><path class="cls-26" d="M325.54,121.88h0s-3.91-.53-5.82-3.23h0a2,2,0,0,1-.18.62c-.09.18-.27.45-.5.81,1.76,1.16,5.69,3.37,6.14,2.41l.34-.6Z" transform="translate(-68.97 -32.69)"/><path class="cls-26" d="M259.11,140.33l0,0c.14.22.3.46.46.67h0s-5.76,1.44-7.62,3.56l-.17-.68,3.09-4.42Z" transform="translate(-68.97 -32.69)"/><path class="cls-27" d="M270.7,115.25c-.47-.83-1-1.38-1.69-1.41-2.22-.11-15.43,3.73-15.64,5.31s3.24,15.93,3.57,17.29a17.59,17.59,0,0,0,2.17,3.89h0s-5.51.95-7.31,3.57c-.82-3.18-1.57-6.32-1.79-7.14-.34-1.68-4.15-15.24-4.7-17.38s-2.35-6.9-.67-7.68,17.9-7.69,21.81-9.72a26.43,26.43,0,0,1,4.39-1.66s5.64,12.48-.14,14.93Z" transform="translate(-68.97 -32.69)"/><path class="cls-24" d="M253.49,118.89s0-2.1-1-2.64.26,1.68.22,2-.81-1-2.28-1.74-5.44-1.43-2.17-.11,5.44,3.23,4.27,3-2.31-1.46-2.1-.74.29,1.32,1.54,1.65,1.51.18,1.46-.22a2.78,2.78,0,0,1,.05-1.16Z" transform="translate(-68.97 -32.69)"/><path class="cls-28" d="M309.78,131.67s-1.77,1.11-1.75,2.19,1.31-1.05,1.59-1.19-.43,1.19-.3,2.86,1.54,5.46,1,2,0-6.38.34-5.24-.07,2.77.43,2.21a1.8,1.8,0,0,0,.63-2.17c-.36-1.25-.61-1.42-.93-1.16a3.22,3.22,0,0,1-1,.54Z" transform="translate(-68.97 -32.69)"/><path class="cls-29" d="M297,73c-.45.92-5.26,1.36-5.28,4.62,0,1.16.63,1.69.93,2.61.94,2.92.54,2.56-.79,5.37a3.07,3.07,0,0,0-.28,1.36,4.73,4.73,0,0,0,1.27,3c.95.6-3.09-1.43-3-4.31A2.14,2.14,0,0,0,286,84.18c-.83,1.56,1.08,4.55,1.43,6.35s-1.31,6.58-5.76,4.67c0-1.46-2.9-4.29-3.58-5.54s-1.67-4.06-1.67-4.06.21,11.74-13.21,16.49-17.34-4.86-17.34-4.86a30.81,30.81,0,0,0,7.4,0c4.68-.45,10.62-2.59,5.47-2.71s-6.15-2.6-6.15-2.6a18.87,18.87,0,0,0,5.36-.79,7.22,7.22,0,0,0,3.48-3,14.08,14.08,0,0,1-4.93,1.36c-2.68.34-2.12-.11.79-2s4-5.31,10.62-7,7,.56,7,.56-.08.8.26.27a12.16,12.16,0,0,0,1.15-2.74c.16-.47-.07-.92.18-1.57,1.71-4.5,7.41-7.25,12.42-7.51,3.36-.18,8.31,1.62,8.17,3.61Z" transform="translate(-68.97 -32.69)"/><path class="cls-29" d="M297,73a5,5,0,0,0-2.57,4c-.31,3,1.18,5.82.41,7.07s-2,1.27-2.39,3.79c-1.05-2,2.45-3.9,1.32-6s-1.39-6.59.3-8.68S297,73,297,73Z" transform="translate(-68.97 -32.69)"/><path class="cls-27" d="M276.26,78.49s-2-.36-2.2,1.31,2.4,5.8,2.31,6.56.45,0,.27-.74-1.09-5-.38-7.13Z" transform="translate(-68.97 -32.69)"/><path class="cls-29" d="M299.46,78.07a4.57,4.57,0,0,1-1.83.43c-1.58.22-2.17.75-2.3,1A2.64,2.64,0,0,1,297,78.12c1.45-.47,3.05-1,2.46-.05Z" transform="translate(-68.97 -32.69)"/><path class="cls-30" d="M301.69,89a5.43,5.43,0,0,0-1.21.47l-1.16.65s1.15,1.43,2.1,1.45a.16.16,0,0,0,0-.09.79.79,0,0,0-.55-1c-.56-.11.89-1.13.79-1.47Z" transform="translate(-68.97 -32.69)"/><path class="cls-31" d="M288.93,87.14s-.27,1-1.42.11a3.55,3.55,0,0,1-1-1.13,1.61,1.61,0,0,1-.27-1.59,1.28,1.28,0,0,1,1.18-.71c.7-.09,1.47.35,1.3,1s-.74.36-.63,1,1,.54.82,1.27Z" transform="translate(-68.97 -32.69)"/><path class="cls-20" d="M288.29,85.38s-.69-.4-.83,0,.22,1,.84,1.4a5,5,0,0,1,.61.43.1.1,0,0,0,0,0c.15-.73-.73-.62-.82-1.27-.06-.31,0-.4.18-.49Z" transform="translate(-68.97 -32.69)"/><path class="cls-19" d="M288,86.49s.05.14-.15.09a2,2,0,0,1-.62-.37c-.18-.12-.4-.67-.67-.74s-.39-.13-.29-.22.35,0,.58,0,.18-.11.14-.29,0-.47.13-.47.36.09.25.45-.13.44-.07.62.07.42.7.89Z" transform="translate(-68.97 -32.69)"/><path class="cls-26" d="M289.81,88.93a.65.65,0,0,1-.66-.67.66.66,0,1,1,1.31,0,.65.65,0,0,1-.65.67Z" transform="translate(-68.97 -32.69)"/><path class="cls-7" d="M298.74,81c-.63-.62-.61-.27-1.16-.33s-.49,0-.75.32.08,1.24.71,1.41,1.17-.46,1.2-1.4Z" transform="translate(-68.97 -32.69)"/><path class="cls-32" d="M297.87,80.53l0,0a4.2,4.2,0,0,1,.32,1.56l0,.07c.25-.19.26-.54.58-1.16-.56-.39-.76-.53-1-.5Z" transform="translate(-68.97 -32.69)"/><path class="cls-33" d="M297.82,82.37a.81.81,0,0,0,.61-.35,1,1,0,0,0-.28-1.47c-1.19-.84-.94,1.75-.33,1.82Z" transform="translate(-68.97 -32.69)"/><path class="cls-10" d="M299,80.79c-1.11-1-2.59-1-3,1,.73-1.11,1.54-1.67,3-1Z" transform="translate(-68.97 -32.69)"/><path class="cls-20" d="M302.5,86.32a9.13,9.13,0,0,1-2.1.14c-.51-.09.23.77.82.64a4.74,4.74,0,0,0,1.28-.78Z" transform="translate(-68.97 -32.69)"/><path class="cls-20" d="M299.38,90.15l1.24,2.39a4.37,4.37,0,0,1,.77-1C301.71,91.27,299.38,90.15,299.38,90.15Z" transform="translate(-68.97 -32.69)"/><path class="cls-34" d="M299.32,90.11s.68.07,1.45.2h0a.13.13,0,0,0,.13.15.79.79,0,0,1,.55,1,.16.16,0,0,1,0,.09c-.95,0-2.1-1.45-2.1-1.45Z" transform="translate(-68.97 -32.69)"/><path class="cls-32" d="M301.08,90.93a2.93,2.93,0,0,1-.39-.14c-.14,0,.39-.18.56,0s.11.24-.17.1Z" transform="translate(-68.97 -32.69)"/><path class="cls-25" d="M321,256.49s0,.36-.78.26S289.45,241,289.45,241c-.54-.81-.88-1.61.36-2.4L321,256.49Z" transform="translate(-68.97 -32.69)"/><path class="cls-24" d="M320.1,256.71l-30.81-16a.28.28,0,0,0-.38.12h0a.28.28,0,0,0,.12.38l30.8,16a.28.28,0,0,0,.38-.12h0a.28.28,0,0,0-.12-.38Z" transform="translate(-68.97 -32.69)"/><path class="cls-24" d="M319.58,257,317.5,256a.29.29,0,0,0-.38.12h0a.29.29,0,0,0,.11.38l2.08,1.08a.29.29,0,0,0,.38-.12h0a.29.29,0,0,0-.11-.38Z" transform="translate(-68.97 -32.69)"/><path class="cls-24" d="M316.09,255.23,314,254.15a.29.29,0,0,0-.38.12h0a.28.28,0,0,0,.12.38l2.08,1.08a.28.28,0,0,0,.38-.12h0a.28.28,0,0,0-.12-.38Z" transform="translate(-68.97 -32.69)"/><path class="cls-24" d="M312.61,253.42l-2.08-1.08a.28.28,0,0,0-.38.13h0a.27.27,0,0,0,.11.37l2.08,1.08a.28.28,0,0,0,.38-.12h0a.29.29,0,0,0-.11-.38Z" transform="translate(-68.97 -32.69)"/><path class="cls-24" d="M309.12,251.61,307,250.54a.27.27,0,0,0-.38.12h0a.29.29,0,0,0,.12.38l2.08,1.07a.27.27,0,0,0,.38-.12h0a.3.3,0,0,0-.12-.39Z" transform="translate(-68.97 -32.69)"/><path class="cls-24" d="M305.64,249.81l-2.08-1.08a.29.29,0,0,0-.38.12h0a.29.29,0,0,0,.12.38l2.08,1.08a.29.29,0,0,0,.38-.12h0a.29.29,0,0,0-.11-.38Z" transform="translate(-68.97 -32.69)"/><path class="cls-24" d="M302.15,248l-2.08-1.08a.29.29,0,0,0-.38.12h0a.28.28,0,0,0,.12.38l2.08,1.08a.3.3,0,0,0,.38-.12h0a.28.28,0,0,0-.12-.38Z" transform="translate(-68.97 -32.69)"/><path class="cls-24" d="M298.67,246.19l-2.08-1.08a.28.28,0,0,0-.38.13h0a.29.29,0,0,0,.12.38l2.08,1.08a.28.28,0,0,0,.38-.12h0a.29.29,0,0,0-.11-.38Z" transform="translate(-68.97 -32.69)"/><path class="cls-24" d="M295.18,244.38l-2.08-1.08a.28.28,0,0,0-.38.13h0a.28.28,0,0,0,.12.38l2.07,1.08a.28.28,0,0,0,.38-.12h0a.28.28,0,0,0-.12-.38Z" transform="translate(-68.97 -32.69)"/><path class="cls-24" d="M291.7,242.57l-2.08-1.08a.31.31,0,0,0-.39.13h0a.28.28,0,0,0,.12.37l2.08,1.08a.28.28,0,0,0,.38-.12h0a.29.29,0,0,0-.11-.38Z" transform="translate(-68.97 -32.69)"/><path class="cls-25" d="M321,256.49s1.12-1.24,1.08-1.51,0-.88-.24-1.14-5.09-6.67-5.09-6.67q-2.77-4.6-5.56-9.21a6.47,6.47,0,0,0-.71-4.69c-.35-.53-1.81-2-2.45-1.94-.45,0-1.17.6-2.51,2.36L297.69,228a1.33,1.33,0,0,0-1.11-.23,1.4,1.4,0,0,0-.93.68l-5.84,10.13Z" transform="translate(-68.97 -32.69)"/><path class="cls-17" d="M305.48,233.69l1.19.41a.27.27,0,0,1,.18.32l-.13.59a1.41,1.41,0,0,1-1.51,1.13,18.67,18.67,0,0,1-6.5-2.24,5.2,5.2,0,0,1-3.6-4.49l.54-.93a1.4,1.4,0,0,1,.93-.68,1.33,1.33,0,0,1,1.11.23l7.79,5.66Z" transform="translate(-68.97 -32.69)"/><path class="cls-17" d="M306,247.9s-3.48-8-6.26-11.51-3.61-2.29-4.16-4.57-.66-2.09-.66-2.09h0l-5.11,8.88Z" transform="translate(-68.97 -32.69)"/><path class="cls-24" d="M311.15,238a10.1,10.1,0,0,1-5.64-1.82c-2.36-1.86,0-2.45,0-2.45,1.34-1.76,2.06-2.33,2.51-2.36.64-.06,2.1,1.41,2.45,1.94a6.47,6.47,0,0,1,.71,4.69Z" transform="translate(-68.97 -32.69)"/><path class="cls-24" d="M316.9,246.64l-1.82,1.17a.71.71,0,0,0-.21,1h0a.68.68,0,0,0,.95.2l1.82-1.17a.69.69,0,0,0,.21-.95h0a.66.66,0,0,0-.94-.21Z" transform="translate(-68.97 -32.69)"/><path class="cls-24" d="M315.84,245,314,246.15a.68.68,0,0,0-.21.95h0a.68.68,0,0,0,.95.21l1.82-1.17a.7.7,0,0,0,.21-1v0a.69.69,0,0,0-1-.21Z" transform="translate(-68.97 -32.69)"/><path class="cls-24" d="M314.79,243.31,313,244.49a.69.69,0,0,0-.22.95h0a.68.68,0,0,0,1,.21l1.81-1.17a.71.71,0,0,0,.21-1h0a.68.68,0,0,0-.94-.21Z" transform="translate(-68.97 -32.69)"/><path class="cls-24" d="M313.74,241.65l-1.82,1.17a.7.7,0,0,0-.21,1v0a.67.67,0,0,0,.94.2l1.82-1.17a.69.69,0,0,0,.21-.95v0a.68.68,0,0,0-.94-.2Z" transform="translate(-68.97 -32.69)"/><path class="cls-24" d="M312.68,240l-1.81,1.17a.68.68,0,0,0-.21,1v0a.69.69,0,0,0,.95.2l1.82-1.17a.69.69,0,0,0,.21-.95v0a.69.69,0,0,0-.95-.2Z" transform="translate(-68.97 -32.69)"/><path class="cls-24" d="M311.63,238.33l-1.81,1.17a.69.69,0,0,0-.22.95h0a.69.69,0,0,0,.95.21l1.81-1.17a.71.71,0,0,0,.22-1h0a.68.68,0,0,0-.95-.2Z" transform="translate(-68.97 -32.69)"/><path class="cls-27" d="M298,237.48l-4.9-2.55a1,1,0,0,0-1.32.43l0,0a1,1,0,0,0,.42,1.33l4.9,2.54a1,1,0,0,0,1.32-.42v0a1,1,0,0,0-.41-1.32Z" transform="translate(-68.97 -32.69)"/><path class="cls-27" d="M297,239.38l-4.9-2.54a1,1,0,0,0-1.32.43v0a1,1,0,0,0,.41,1.33l4.9,2.54a1,1,0,0,0,1.32-.43v0a1,1,0,0,0-.41-1.33Z" transform="translate(-68.97 -32.69)"/><path class="cls-27" d="M318,248.85s-.86,1.38-1.87,1.11a17.12,17.12,0,0,1-3.1-1.64,1.1,1.1,0,0,0-1.42-.06c-.7.6-5,0-5.58-.36h0l0,0h0l.66.38.31.18.58.33.93.54,2.24,1.28.09.05.57.33.23.13,1.43.82.25.15.61.35.76.43,1.51.87.32.18,1.08.62.79.45.27.16.3.17.22.13.18.1.53.31.09.05.23.13.34.19.2.12.14.08.06,0s1.12-1.24,1.08-1.51,0-.88-.24-1.14-2.38-3.07-3.83-5Z" transform="translate(-68.97 -32.69)"/><path class="cls-25" d="M318.77,249.9s-.72,1.46-2.08,1.1c-.91-.25-1.92-.75-2.57-.9s-1,.22-.63.69,1.62,1.07,5.08,1.91c1.56.38,2.45.62,2.94.78-.54-.68-1.7-2.2-2.74-3.58Z" transform="translate(-68.97 -32.69)"/><path class="cls-17" d="M311.27,236l-.63.25-.42-.55.93,2.3a22.3,22.3,0,0,0-1.9-3.28,6.9,6.9,0,0,0-2.41-.42.3.3,0,0,0-.17-.16l-.46-.16s2.31-.34,3,.19a12.49,12.49,0,0,0-.88-1.07l1.54-.46a5.58,5.58,0,0,1,.56.67,5.5,5.5,0,0,1,.83,2.69Z" transform="translate(-68.97 -32.69)"/><path class="cls-25" d="M309.83,236l-.55-.23a.49.49,0,0,0-.63.26h0a.5.5,0,0,0,.26.63l.55.22a.48.48,0,0,0,.63-.26h0a.47.47,0,0,0-.25-.62Z" transform="translate(-68.97 -32.69)"/><path class="cls-25" d="M308.16,235.35l-.56-.23a.48.48,0,0,0-.62.26v0a.47.47,0,0,0,.25.62l.55.23a.49.49,0,0,0,.63-.26v0a.47.47,0,0,0-.25-.62Z" transform="translate(-68.97 -32.69)"/><path class="cls-27" d="M306.67,234.1a.36.36,0,0,1,.14.1l-1,1.86-.23.06,1.05-2ZM304.4,236l.18,0,1.18-2.27-.17-.06Zm.59.09.18,0L306.3,234l-.17-.05Zm.27-2.59-.14-.1-1.29,2.48.17,0Zm-.46-.33-.14-.1-1.39,2.67.17,0Zm-.46-.34-.14-.1-1.48,2.85.17,0Zm-.46-.33-.14-.1-1.55,3,.16,0Zm-.46-.33-.14-.1-1.63,3.13.16.07Zm-.46-.34-.14-.1L301.13,235l.16.06Zm-.45-.33-.15-.1-1.75,3.38.16.07Zm-.46-.33-.14-.11-1.81,3.49.16.07Zm-.46-.34-.15-.1-1.85,3.58.16.07Zm-.46-.33-.14-.1-1.9,3.66.15.08Zm-.46-.34-.14-.1-2,3.77.14,0,0,0Zm-.46-.33-.14-.1-2,3.88.15.08Zm-.46-.33-.14-.1-2.05,3.94.15.09Zm-.46-.34-.14-.1-2,4,.14.11Zm-.46-.33-.14-.1-2,3.91.13.12Zm-.45-.33-.15-.1-2,3.79.12.15Zm-.46-.34-.14-.1-1.88,3.61c0,.06.07.12.11.17Zm-.48-.31-.16,0-1.69,3.27a.66.66,0,0,0,.09.19Zm-.56-.12-.21,0-1.35,2.61c0,.08.05.16.07.23Zm-.74.21a1.44,1.44,0,0,0-.37.33l-.64,1.24a2.74,2.74,0,0,0,.05.28Z" transform="translate(-68.97 -32.69)"/><path class="cls-25" d="M229.2,265.88s-.16.31-.76-.13S210.3,239,210.3,239c-.08-.91,0-1.72,1.38-1.81l17.52,28.73Z" transform="translate(-68.97 -32.69)"/><path class="cls-24" d="M228.39,265.68l-18.1-27a.26.26,0,0,0-.36-.07h0a.27.27,0,0,0-.07.37l18.09,27a.27.27,0,0,0,.37.07h0a.27.27,0,0,0,.07-.37Z" transform="translate(-68.97 -32.69)"/><path class="cls-24" d="M227.82,265.71l-1.22-1.82a.27.27,0,0,0-.37-.07h0a.26.26,0,0,0-.07.36l1.22,1.82a.26.26,0,0,0,.36.07h0a.27.27,0,0,0,.08-.37Z" transform="translate(-68.97 -32.69)"/><path class="cls-24" d="M225.77,262.66l-1.22-1.83a.27.27,0,0,0-.37-.07h0a.26.26,0,0,0-.07.36l1.22,1.83a.27.27,0,0,0,.37.07h0a.26.26,0,0,0,.08-.36Z" transform="translate(-68.97 -32.69)"/><path class="cls-24" d="M223.72,259.6l-1.22-1.82a.27.27,0,0,0-.37-.07h0a.26.26,0,0,0-.08.36l1.23,1.83a.26.26,0,0,0,.36.07h0a.27.27,0,0,0,.07-.37Z" transform="translate(-68.97 -32.69)"/><path class="cls-24" d="M221.67,256.54l-1.22-1.82a.27.27,0,0,0-.37-.07h0a.27.27,0,0,0-.07.37l1.22,1.82a.26.26,0,0,0,.36.07h0a.26.26,0,0,0,.07-.37Z" transform="translate(-68.97 -32.69)"/><path class="cls-24" d="M219.63,253.49l-1.22-1.83a.27.27,0,0,0-.37-.07h0a.26.26,0,0,0-.07.36l1.22,1.83a.27.27,0,0,0,.36.07h0a.26.26,0,0,0,.08-.36Z" transform="translate(-68.97 -32.69)"/><path class="cls-24" d="M217.58,250.43l-1.22-1.82a.26.26,0,0,0-.37-.07h0a.27.27,0,0,0-.07.37l1.22,1.82a.27.27,0,0,0,.37.07h0a.28.28,0,0,0,.07-.37Z" transform="translate(-68.97 -32.69)"/><path class="cls-24" d="M215.53,247.37l-1.22-1.82a.27.27,0,0,0-.37-.07h0a.27.27,0,0,0-.08.37l1.23,1.82a.26.26,0,0,0,.36.07h0a.27.27,0,0,0,.07-.37Z" transform="translate(-68.97 -32.69)"/><path class="cls-24" d="M213.48,244.31l-1.22-1.82a.26.26,0,0,0-.36-.07h0a.26.26,0,0,0-.07.36l1.22,1.82a.25.25,0,0,0,.36.08h0a.26.26,0,0,0,.07-.37Z" transform="translate(-68.97 -32.69)"/><path class="cls-24" d="M211.44,241.26l-1.22-1.83a.28.28,0,0,0-.37-.07h0a.26.26,0,0,0-.07.36l1.22,1.83a.26.26,0,0,0,.36.07h0a.26.26,0,0,0,.08-.36Z" transform="translate(-68.97 -32.69)"/><path class="cls-25" d="M229.2,265.88s1.47-.51,1.57-.75.43-.69.32-1-1.18-7.77-1.18-7.77c-.14-3.36-.27-6.72-.41-10.08a6.09,6.09,0,0,0,1.53-4.17c0-.6-.58-2.46-1.14-2.7-.38-.17-1.23,0-3.12.81q-1.92-4.08-3.85-8.16a1.26,1.26,0,0,0-.81-.7,1.34,1.34,0,0,0-1.07.14l-9.36,5.69Z" transform="translate(-68.97 -32.69)"/><path class="cls-17" d="M226.77,240.18l.79.87a.26.26,0,0,1,0,.35l-.37.43a1.33,1.33,0,0,1-1.75.24,17.76,17.76,0,0,1-4.33-4.77,4.87,4.87,0,0,1-.93-5.31l.86-.53a1.34,1.34,0,0,1,1.07-.14,1.26,1.26,0,0,1,.81.7q1.94,4.08,3.85,8.16Z" transform="translate(-68.97 -32.69)"/><path class="cls-17" d="M220.79,252.09s.76-8.18,0-12.28-1.93-3.51-1.35-5.63.4-2,.4-2h0l-8.2,5Z" transform="translate(-68.97 -32.69)"/><path class="cls-24" d="M229.5,246.24a9.43,9.43,0,0,1-3.81-4c-1.1-2.59,1.08-2,1.08-2,1.89-.84,2.74-1,3.12-.81.56.24,1.1,2.1,1.14,2.7a6.09,6.09,0,0,1-1.53,4.17Z" transform="translate(-68.97 -32.69)"/><path class="cls-24" d="M230.3,256l-2,.14a.66.66,0,0,0-.6.69v0a.63.63,0,0,0,.68.59l2-.14a.65.65,0,0,0,.61-.68v0a.64.64,0,0,0-.69-.6Z" transform="translate(-68.97 -32.69)"/><path class="cls-24" d="M230.19,254.12l-2,.14a.65.65,0,0,0-.6.69v0a.64.64,0,0,0,.68.6l2-.15a.65.65,0,0,0,.6-.69h0a.65.65,0,0,0-.68-.6Z" transform="translate(-68.97 -32.69)"/><path class="cls-24" d="M230.08,252.28l-2,.15a.65.65,0,0,0-.61.68v0a.63.63,0,0,0,.68.59l2-.14a.66.66,0,0,0,.61-.69h0a.64.64,0,0,0-.68-.6Z" transform="translate(-68.97 -32.69)"/><path class="cls-24" d="M230,250.44l-2,.14a.65.65,0,0,0-.6.69v0a.63.63,0,0,0,.68.59l2-.14a.66.66,0,0,0,.61-.69v0a.63.63,0,0,0-.68-.59Z" transform="translate(-68.97 -32.69)"/><path class="cls-24" d="M229.84,248.6l-2,.14a.66.66,0,0,0-.6.69h0a.64.64,0,0,0,.69.6l2-.14a.66.66,0,0,0,.6-.69h0a.64.64,0,0,0-.69-.6Z" transform="translate(-68.97 -32.69)"/><path class="cls-24" d="M229.73,246.76l-2,.14a.65.65,0,0,0-.6.69v0a.63.63,0,0,0,.68.59l2-.14a.65.65,0,0,0,.6-.69v0a.63.63,0,0,0-.68-.59Z" transform="translate(-68.97 -32.69)"/><path class="cls-27" d="M218.9,239.9,216,235.61a.93.93,0,0,0-1.28-.25h0a.93.93,0,0,0-.26,1.28l2.88,4.3a.93.93,0,0,0,1.28.24h0a.93.93,0,0,0,.26-1.28Z" transform="translate(-68.97 -32.69)"/><path class="cls-27" d="M217.23,241l-2.88-4.3a.93.93,0,0,0-1.28-.25h0a.93.93,0,0,0-.26,1.28l2.88,4.3a.92.92,0,0,0,1.28.24h0a.92.92,0,0,0,.26-1.27Z" transform="translate(-68.97 -32.69)"/><path class="cls-27" d="M230.19,258.26s-1.33.74-2,.07a16,16,0,0,1-1.81-2.75,1,1,0,0,0-1.13-.68c-.85.17-4.08-2.25-4.42-2.81h0v0l0,0,.37.61.17.28.33.54.52.86,1.26,2.06,0,.08.32.53.13.21.81,1.33.14.23.34.56.43.7.85,1.39.18.3.61,1,.44.73.15.25.17.27.13.21.1.17.3.49,0,.08.12.2.2.32.11.19.08.13,0,.05s1.47-.51,1.57-.75.43-.69.32-1-.58-3.59-.9-5.83Z" transform="translate(-68.97 -32.69)"/><path class="cls-25" d="M230.37,259.49a1.82,1.82,0,0,1-2.2,0c-.64-.61-1.24-1.48-1.71-1.9s-.92-.27-.83.29.85,1.6,3.31,3.86c1.11,1,1.73,1.61,2.06,2-.13-.8-.4-2.57-.63-4.17Z" transform="translate(-68.97 -32.69)"/><path class="cls-17" d="M230.5,244.65l-.63-.08-.1-.64-.27,2.31a20.11,20.11,0,0,0-.09-3.55c-.21-.51-1.78-1.43-1.78-1.43a.27.27,0,0,0-.07-.21l-.3-.33s2.05.76,2.38,1.51a13,13,0,0,0-.23-1.28l1.46.32a4.43,4.43,0,0,1,.16.8,5.11,5.11,0,0,1-.53,2.58Z" transform="translate(-68.97 -32.69)"/><path class="cls-25" d="M229.28,244.07l-.35-.44a.46.46,0,0,0-.63-.07h0a.45.45,0,0,0-.07.63l.35.43a.44.44,0,0,0,.63.07h0a.46.46,0,0,0,.07-.63Z" transform="translate(-68.97 -32.69)"/><path class="cls-25" d="M228.22,242.75l-.36-.44a.43.43,0,0,0-.62-.06h0a.45.45,0,0,0-.08.63l.36.44a.45.45,0,0,0,.63.07h0a.46.46,0,0,0,.07-.63Z" transform="translate(-68.97 -32.69)"/><path class="cls-27" d="M227.56,241.05a.26.26,0,0,1,.07.15L226,242.29l-.22,0,1.78-1.19Zm-2.73.56.13.11,2-1.34-.11-.12Zm.44.34.14.1,1.9-1.27-.11-.12Zm1.39-2-.07-.15-2.18,1.46.13.11Zm-.23-.48-.07-.15L224,240.89l.12.12Zm-.22-.48-.07-.15-2.5,1.67.11.12Zm-.23-.49-.07-.14-2.63,1.76.1.12Zm-.23-.48-.07-.14-2.75,1.84.1.12Zm-.23-.48-.07-.15-2.86,1.92.1.13Zm-.22-.48-.07-.15-3,2a1.13,1.13,0,0,1,.1.13Zm-.23-.48-.07-.15-3.05,2,.09.13Zm-.23-.48-.07-.15-3.13,2.1.09.13Zm-.22-.48-.07-.15-3.22,2.15.1.14Zm-.23-.48-.07-.15L221,237.2l.09.1,0,0Zm-.22-.48-.07-.15-3.41,2.28.09.13Zm-.23-.48-.07-.15-3.46,2.32.08.14Zm-.23-.49-.07-.14-3.47,2.32.07.15Zm-.22-.48-.07-.14L220,235.36c0,.06,0,.11,0,.16Zm-.23-.47-.07-.15-3.33,2.23,0,.17Zm-.22-.49-.07-.15-3.17,2.13a1.09,1.09,0,0,0,0,.18Zm-.25-.47-.11-.12-2.87,1.93c0,.07,0,.13,0,.2Zm-.42-.35-.17-.08-2.29,1.53a1.85,1.85,0,0,0,0,.23Zm-.7-.16a1.34,1.34,0,0,0-.44.1l-1.09.73-.09.25Z" transform="translate(-68.97 -32.69)"/></svg>