<?xml version="1.0" encoding="utf-8"?>
<!-- Generator: Adobe Illustrator 22.1.0, SVG Export Plug-In . SVG Version: 6.00 Build 0)  -->
<svg version="1.1" id="Layer_1" xmlns="http://www.w3.org/2000/svg" xmlns:xlink="http://www.w3.org/1999/xlink" x="0px" y="0px"
	 viewBox="0 0 1280 1024" style="enable-background:new 0 0 1280 1024;" xml:space="preserve">
<style type="text/css">
	.st0{opacity:0.55;fill:#716F82;}
	.st1{fill:#9995A7;}
	.st2{fill:#FFFFFF;}
	.st3{opacity:0.64;fill:#9995A7;}
	.st4{fill:#BCDB3A;}
	.st5{fill:#F98D43;}
	.st6{fill:#5472C6;}
	.st7{fill:#F7C946;}
	.st8{fill:#F24976;}
	.st9{fill:#C06341;stroke:#770207;stroke-width:2.759;stroke-linecap:round;stroke-miterlimit:10;}
	.st10{fill:#FFF5D9;stroke:#770207;stroke-width:2.759;stroke-linecap:round;stroke-miterlimit:10;}
	.st11{fill:#2C3765;}
	.st12{fill:none;stroke:#2C3765;stroke-width:1.226;stroke-miterlimit:10;}
	.st13{fill:#A3ADD1;}
	.st14{fill:#B7C5ED;}
	.st15{opacity:0.38;fill:#2C3765;}
	.st16{fill:#F5F6F9;}
	.st17{fill:#65324E;}
	.st18{fill:#716F82;}
	.st19{fill:#081934;}
	.st20{fill:#1D2A53;}
	.st21{fill:#0A1F3C;}
	.st22{fill:#43273E;}
	.st23{fill:#CED3DD;}
	.st24{fill:#F4A891;}
	.st25{fill:#07113D;stroke:#07113D;stroke-miterlimit:10;}
	.st26{fill:#FFC4BC;}
	.st27{fill:#FFC7B0;}
	.st28{fill:#07113D;}
	.st29{fill:none;stroke:#07113D;stroke-width:1.6121;stroke-linecap:round;stroke-miterlimit:10;}
	.st30{fill:#D93838;}
	.st31{fill:#EAA64F;}
	.st32{fill:none;stroke:#07113D;stroke-width:1.1059;stroke-linecap:round;stroke-miterlimit:10;}
	.st33{clip-path:url(#SVGID_6_);}
	.st34{fill:#5485CC;}
	.st35{fill:#B1AEC1;}
	.st36{fill:#4D6199;}
	.st37{fill:none;stroke:#07113D;stroke-width:1.1203;stroke-linecap:round;stroke-miterlimit:10;}
	.st38{opacity:0.65;fill:#E48867;}
	.st39{fill:#E48867;}
	.st40{fill:#DB734C;}
	.st41{fill:#591239;}
	.st42{fill:none;stroke:#591239;stroke-width:2.2157;stroke-linecap:round;stroke-miterlimit:10;}
	.st43{fill:#061D48;}
	.st44{fill:#FFB339;}
	.st45{opacity:0.56;fill:none;stroke:#FFFFFF;stroke-width:1.1078;stroke-miterlimit:10;}
	.st46{fill:#EAECEE;}
	.st47{fill:none;stroke:#07113D;stroke-width:1.076;stroke-linecap:round;stroke-miterlimit:10;}
	.st48{clip-path:url(#SVGID_8_);}
	.st49{clip-path:url(#SVGID_8_);fill:#07113D;}
	.st50{fill:#536D2B;}
	.st51{opacity:0.49;}
	.st52{fill:none;stroke:#07113D;stroke-width:0.9707;stroke-miterlimit:10;}
	.st53{fill:none;stroke:#07113D;stroke-width:1.0093;stroke-miterlimit:10;}
	.st54{fill:none;stroke:#E48867;stroke-width:1.076;stroke-miterlimit:10;}
	.st55{fill:#6B9338;}
	.st56{fill:#FBFCFC;}
	.st57{fill:#88B55D;}
	.st58{fill:#A5483C;}
	.st59{fill:#DF7D54;}
	.st60{fill:#DFDFF4;}
	.st61{fill:#BABECC;}
	.st62{fill:#B95241;}
	.st63{fill:#D3D9EA;}
	.st64{fill:#9999AD;}
	.st65{opacity:0.38;fill:#F4A891;}
	.st66{fill:#C2C2C7;}
	.st67{fill:none;stroke:#061D48;stroke-width:0.3992;stroke-miterlimit:10;}
	.st68{fill:#EA9F3E;}
	.st69{fill:#EF9E87;}
	.st70{fill:#FFCAB0;}
	.st71{fill:#E37553;stroke:#E37553;stroke-width:1.3563;stroke-miterlimit:10;}
</style>
<g>
	<g>
		<rect x="185.9" y="87.5" class="st0" width="916.8" height="499.9"/>
		<rect x="185.9" y="56.7" class="st1" width="916.8" height="512.5"/>
		<g>
			<g>
				<rect x="200.1" y="73.1" class="st2" width="887.2" height="477.2"/>
			</g>
			<polygon class="st3" points="412.8,281.6 455.9,281.8 452.9,235.7 			"/>
			<polygon class="st3" points="412.5,344.9 455.9,345.3 452.9,299.2 			"/>
			<polygon class="st3" points="467.2,342.4 513.4,345.3 510.4,299.2 			"/>
			<polygon class="st3" points="528,281.4 570.4,281.8 567.5,235.7 			"/>
			<polygon class="st3" points="524.3,208.5 570.4,211.4 567.5,165.3 			"/>
			<polygon class="st3" points="610.6,208.1 656.7,211 653.7,164.9 			"/>
			<polygon class="st3" points="613.6,151.4 659.7,154.3 656.7,108.3 			"/>
			<polygon class="st3" points="672.4,151.4 718.5,154.3 715.5,108.3 			"/>
			<polygon class="st3" points="618.3,280.9 659.7,281.3 656.7,235.3 616.6,245.2 			"/>
			<polygon class="st3" points="677.9,280.9 718,282.6 715.1,236.6 			"/>
			<polygon class="st3" points="615.9,344.9 658.8,346.3 655.9,300.2 			"/>
			<polygon class="st3" points="672.8,343.4 718.9,346.3 715.9,300.2 			"/>
			<polygon class="st3" points="726.6,342.8 772.7,345.7 769.7,299.7 			"/>
			<polygon class="st3" points="614.4,412 660.5,414.9 657.6,368.9 			"/>
			<polygon class="st3" points="802.1,208.9 848.2,211.8 845.2,165.8 			"/>
			<polygon class="st3" points="851.9,208.4 898,211.3 895,165.2 			"/>
			<polygon class="st3" points="852.4,279.9 898.5,282.8 895.6,236.7 			"/>
			<polygon class="st3" points="802.7,279.9 848.8,282.8 845.8,236.7 			"/>
			<polygon class="st3" points="802.1,343.4 848.2,346.3 845.2,300.2 			"/>
			<polygon class="st3" points="853,342.8 899.1,345.7 896.2,299.7 			"/>
			<polygon class="st3" points="921.1,208.9 967.2,211.8 964.3,165.8 			"/>
			<polygon class="st3" points="918.2,280.5 964.3,283.3 961.4,237.3 			"/>
			<polygon class="st3" points="921.1,342.8 967.2,345.7 964.3,299.7 			"/>
			<polygon class="st3" points="918.8,411.5 964.9,414.4 962,368.3 			"/>
			<polygon class="st3" points="853.6,411.5 899.7,414.4 896.7,368.3 			"/>
			<polygon class="st3" points="803.2,411.5 849.3,414.4 846.4,368.3 			"/>
			<polygon class="st3" points="523.9,151 570,153.9 567,107.8 			"/>
			<polygon class="st3" points="468.1,151.9 514.2,154.8 511.3,108.7 			"/>
			<polygon class="st3" points="410.2,151.9 456.3,154.8 453.3,108.7 			"/>
			<polygon class="st3" points="410.2,208.5 455.4,211.4 453.3,165.3 			"/>
			<polygon class="st3" points="468.1,208.1 513.4,211 511.3,164.9 			"/>
			<polygon class="st3" points="471.5,281.1 512.9,281.3 510.8,235.3 			"/>
			<rect id="XMLID_262_" x="409.7" y="108.7" class="st4" width="43.2" height="43.2"/>
			<rect id="XMLID_261_" x="467.9" y="108.7" class="st5" width="43.2" height="43.2"/>
			<rect id="XMLID_260_" x="524.2" y="108.7" class="st4" width="43.2" height="43.2"/>
			<rect id="XMLID_259_" x="409.7" y="164.6" class="st5" width="43.2" height="43.2"/>
			<rect id="XMLID_258_" x="467.9" y="164.6" class="st5" width="43.2" height="43.2"/>
			<rect id="XMLID_257_" x="524.2" y="164.6" class="st4" width="43.2" height="43.2"/>
			<rect id="XMLID_256_" x="613.1" y="108.7" class="st4" width="43.2" height="43.2"/>
			<rect id="XMLID_255_" x="672" y="108.7" class="st4" width="43.2" height="43.2"/>
			<rect id="XMLID_254_" x="611" y="164.6" class="st6" width="43.2" height="43.2"/>
			<rect id="XMLID_253_" x="409.7" y="235.7" class="st4" width="43.2" height="43.2"/>
			<rect id="XMLID_252_" x="467.9" y="235.7" class="st5" width="43.2" height="43.2"/>
			<rect id="XMLID_251_" x="409.7" y="298.8" class="st6" width="43.2" height="43.2"/>
			<rect id="XMLID_250_" x="613.1" y="367.8" class="st4" width="43.2" height="43.2"/>
			<rect id="XMLID_249_" x="467.9" y="298.8" class="st5" width="43.2" height="43.2"/>
			<rect id="XMLID_248_" x="409.7" y="365.4" class="st4" width="43.2" height="43.2"/>
			<rect id="XMLID_247_" x="467.9" y="365.4" class="st7" width="43.2" height="43.2"/>
			<rect id="XMLID_246_" x="473.5" y="431.8" class="st6" width="43.2" height="43.2"/>
			<rect id="XMLID_245_" x="531.7" y="431.8" class="st6" width="43.2" height="43.2"/>
			<rect id="XMLID_244_" x="801.5" y="165.4" class="st5" width="43.2" height="43.2"/>
			<rect id="XMLID_243_" x="801.5" y="236.5" class="st8" width="43.2" height="43.2"/>
			<rect id="XMLID_242_" x="801.5" y="299.5" class="st5" width="43.2" height="43.2"/>
			<rect id="XMLID_241_" x="726.3" y="299.5" class="st8" width="43.2" height="43.2"/>
			<rect id="XMLID_240_" x="672" y="299.5" class="st5" width="43.2" height="43.2"/>
			<rect id="XMLID_239_" x="613.1" y="299.5" class="st8" width="43.2" height="43.2"/>
			<rect id="XMLID_238_" x="801.5" y="367.8" class="st8" width="43.2" height="43.2"/>
			<rect id="XMLID_237_" x="801.5" y="434.9" class="st5" width="43.2" height="43.2"/>
			<rect id="XMLID_236_" x="852.5" y="165.4" class="st4" width="43.2" height="43.2"/>
			<rect id="XMLID_235_" x="852.5" y="236.5" class="st4" width="43.2" height="43.2"/>
			<rect id="XMLID_234_" x="852.5" y="299.5" class="st4" width="43.2" height="43.2"/>
			<rect id="XMLID_233_" x="852.5" y="367.8" class="st4" width="43.2" height="43.2"/>
			<rect id="XMLID_232_" x="852.5" y="434.9" class="st4" width="43.2" height="43.2"/>
			<rect id="XMLID_231_" x="524.2" y="235.7" class="st4" width="43.2" height="43.2"/>
			<rect id="XMLID_222_" x="613.1" y="235.7" class="st7" width="43.2" height="43.2"/>
			<rect id="XMLID_221_" x="672" y="235.7" class="st7" width="43.2" height="43.2"/>
			<rect id="XMLID_220_" x="920.5" y="165.4" class="st7" width="43.2" height="43.2"/>
			<rect id="XMLID_219_" x="918.4" y="236.5" class="st6" width="43.2" height="43.2"/>
			<rect id="XMLID_218_" x="920.5" y="299.5" class="st7" width="43.2" height="43.2"/>
			<rect id="XMLID_217_" x="918.4" y="367.8" class="st6" width="43.2" height="43.2"/>
			<rect id="XMLID_216_" x="920.5" y="434.9" class="st7" width="43.2" height="43.2"/>
			<path id="XMLID_215_" class="st9" d="M408.5,228"/>
			<path id="XMLID_214_" class="st9" d="M383.5,228"/>
			<path id="XMLID_213_" class="st10" d="M659.8,188.3"/>
			<path id="XMLID_193_" class="st10" d="M641.2,229.3"/>
			<g>
				<rect x="259.6" y="178.1" class="st11" width="64.7" height="7.7"/>
				<rect x="259.3" y="146.8" class="st11" width="102.4" height="7.7"/>
				<rect x="259.3" y="162.4" class="st11" width="68.1" height="7.7"/>
				<g>
					<rect x="259" y="131.2" class="st11" width="64.7" height="7.7"/>
					<rect x="334.4" y="131.2" class="st11" width="25.3" height="7.7"/>
				</g>
			</g>
			<g>
				<rect x="259.6" y="428.9" class="st11" width="64.7" height="7.7"/>
				<rect x="259.3" y="397.6" class="st11" width="102.4" height="7.7"/>
				<rect x="259.3" y="413.3" class="st11" width="68.1" height="7.7"/>
				<g>
					<rect x="259" y="382" class="st11" width="64.7" height="7.7"/>
					<rect x="334.4" y="382" class="st11" width="25.3" height="7.7"/>
				</g>
			</g>
			<rect x="257.9" y="261.6" class="st11" width="99" height="7.7"/>
			<rect x="257.5" y="292.9" class="st11" width="102.4" height="7.7"/>
			<rect x="257.5" y="277.2" class="st11" width="68.1" height="7.7"/>
			<g>
				<rect x="257.3" y="308.5" class="st11" width="64.7" height="7.7"/>
			</g>
			<path class="st12" d="M474.3,121.1c7.6-0.2,15.2-0.1,22.8,0.2"/>
			<path class="st12" d="M476,126.9c3.7,0.4,7.5,0.1,11.2-0.9"/>
			<path class="st12" d="M529.7,119.4c8.6,0.1,17.2,0.2,25.7,0.2"/>
			<path class="st12" d="M532.7,125.5c8.2-0.6,16.3-1.1,24.5-1.7"/>
			<path class="st12" d="M540,141.9c6.2-0.1,12.3-0.3,18.5-0.4"/>
			<path class="st12" d="M416.8,181.8c3.7,0.1,7.4,0.3,11.2,0.4"/>
			<path class="st12" d="M434,184c3,0.4,6,0.9,9,1.3"/>
			<path class="st12" d="M415.5,194.2c8.3,0.1,16.6,0.3,24.9,0.4"/>
			<path class="st12" d="M476.5,241.8c8.7,0.7,17.5,1.4,26.2,2.1"/>
			<path class="st12" d="M478.2,248.8c7.1,1,14.3,1.2,21.5,0.7"/>
			<path class="st12" d="M479,256.5c2,0,4,0,6,0"/>
			<path class="st12" d="M544.3,263.8"/>
			<path class="st12" d="M531.8,263.8"/>
			<path class="st12" d="M531.4,258.3c10.3-0.6,20.6-1.2,30.9-1.9"/>
			<path class="st12" d="M535.2,252.2c8.2-0.4,16.3-0.9,24.5-1.3"/>
			<path class="st12" d="M534,246.2c5,0,10,0,15,0"/>
			<path class="st12" d="M536.5,240.9c1.4,0.1,2.9,0.3,4.3,0.4"/>
			<path class="st12" d="M417.7,245.3c8.2-0.5,16.4-0.2,24.5,0.7"/>
			<path class="st12" d="M425,252.2c2.2,0.6,4.6,0.6,6.9,0"/>
			<path class="st12" d="M529.2,171.9c7.7,0.3,15.5-0.2,23.2-1.3"/>
			<path class="st12" d="M529.7,178.8c4.1-0.3,8.3-0.6,12.4-0.9"/>
			<path class="st12" d="M531,194.3c6.9-0.3,13.7-0.6,20.6-0.9"/>
			<path class="st12" d="M416.8,117.7c10.2,0.1,20.3-0.1,30.5-0.7"/>
			<path class="st12" d="M422,125.6c8-0.6,16.1-0.2,24,1.1"/>
			<path class="st12" d="M426.3,136c4.7,0,9.4,0.1,14.2,0.1"/>
			<path class="st12" d="M414.2,307.4c10.4,0.3,20.9,0.7,31.3,1"/>
			<path class="st12" d="M416.8,313.9c8,0.1,16,0.2,24,0.3"/>
			<path class="st12" d="M419,321.4c7.9-0.1,15.7-0.2,23.6-0.2"/>
			<path class="st12" d="M480.8,311.4c5.1,0.4,10.3,0.9,15.4,1.3"/>
			<path class="st12" d="M483.3,319.5c3.6,0,7.2,0,10.7,0"/>
			<polygon class="st3" points="976.7,152.9 1022.8,155.8 1019.9,109.7 			"/>
			<rect id="XMLID_79_" x="977.4" y="109.3" class="st5" width="43.2" height="43.2"/>
			<path class="st12" d="M990.2,121.9c5.1,0.4,10.3,0.9,15.4,1.3"/>
			<path class="st12" d="M992.8,130c3.6,0,7.2,0,10.7,0"/>
			<polygon class="st3" points="973.3,344.7 1019.4,347.6 1016.5,301.5 			"/>
			<rect id="XMLID_100_" x="974" y="301" class="st5" width="43.2" height="43.2"/>
			<path class="st12" d="M986.8,313.7c5.1,0.4,10.3,0.9,15.4,1.3"/>
			<path class="st12" d="M989.4,321.8c3.6,0,7.2,0,10.7,0"/>
			<path class="st12" d="M620.6,174.9c6.3,0.4,12.6,0.9,18.9,1.3"/>
			<path class="st12" d="M621.9,182.5c4.9-0.3,9.7-0.5,14.6-0.8"/>
			<path class="st12" d="M622.8,124.3c6.4,0.1,12.9,0.3,19.3,0.4"/>
			<path class="st12" d="M625.8,133.7c4.4-0.1,8.9-0.3,13.3-0.4"/>
			<polygon class="st3" points="922.8,151.4 968.9,154.3 965.9,108.3 			"/>
			<rect id="XMLID_99_" x="922.3" y="108.7" class="st4" width="43.2" height="43.2"/>
			<path class="st12" d="M932,124.3c6.4,0.1,12.9,0.3,19.3,0.4"/>
			<path class="st12" d="M935,133.7c4.4-0.1,8.9-0.3,13.3-0.4"/>
			<path class="st12" d="M625.3,251.7c-2.4,5.3,1.5,12.5,7.3,13.2c5.8,0.8,11.5-5.1,10.5-10.8c-0.9-5.8-8.2-9.5-13.4-6.9"/>
			<path class="st12" d="M641.9,271c-1.1-2.9-2.3-5.7-3.4-8.6"/>
			<path class="st12" d="M646,247.8c-2.2-0.3-4.5,1.3-5,3.5"/>
			<path class="st12" d="M621.1,268.5c3.3-1.3,6.1-3.8,7.7-6.9"/>
			<path class="st12" d="M679.4,242.2c0,2.4,0,4.8,0,7.2"/>
			<path class="st12" d="M706.9,243.3c0,1.4,0,2.9,0,4.3"/>
			<line class="st12" x1="679.4" y1="248.4" x2="706" y2="248.4"/>
			<line class="st12" x1="682.6" y1="241" x2="704.7" y2="241"/>
			<line class="st12" x1="678.6" y1="255.3" x2="702.9" y2="255.3"/>
			<line class="st12" x1="680.3" y1="262.5" x2="703.2" y2="262.5"/>
			<line class="st12" x1="680" y1="307.1" x2="700.9" y2="307.1"/>
			<line class="st12" x1="679.1" y1="312.5" x2="699.2" y2="312.5"/>
			<line class="st12" x1="680.9" y1="318.8" x2="701.7" y2="318.8"/>
			<line class="st12" x1="682.3" y1="327.7" x2="700.3" y2="327.7"/>
			<line class="st12" x1="625.6" y1="310.8" x2="645.1" y2="310.8"/>
			<line class="st12" x1="625.6" y1="319.4" x2="643.7" y2="319.4"/>
			<path class="st12" d="M694.7,124.1c1.5,0,3.1,0,4.5-0.7c1.4-0.6,2.6-1.8,2.8-3.3c0.3-1.8-1-3.6-2.5-4.6c-1.6-0.9-3.5-1.2-5.3-1.5
				c-3.5-0.5-10.9-0.8-10.7,4.5C683.6,123.4,691.2,123.9,694.7,124.1z"/>
			<path class="st12" d="M688.4,123.5c-1.9,3.5-3.8,7.1-5.6,10.6"/>
			<path class="st12" d="M683.3,128c-0.2,2.5-0.5,5-0.7,7.5c1.1-0.9,2.4-1.6,3.8-2"/>
			<path class="st12" d="M695.9,124.3c0.8,3.9,1.6,7.8,2.4,11.7"/>
			<path class="st12" d="M694.9,132.9c0.4,1.8,1.7,3.3,3.3,4c0.3-2,0.6-4,0.9-6"/>
			<path class="st12" d="M676.8,142.6c2.2,0.3,4.4,0.6,6.6,0.9"/>
			<line class="st12" x1="675.7" y1="146.6" x2="683.1" y2="146.6"/>
			<path class="st12" d="M695.7,141.5c2.6,0.6,5.1,1.1,7.7,1.7"/>
			<path class="st12" d="M696.6,146.6c2.9,0.3,5.7,0.6,8.6,0.9"/>
			<path class="st12" d="M475.6,171.5c0,1.7,0,3.4,0,5.1v4.3"/>
			<line class="st12" x1="475.2" y1="180.1" x2="501" y2="180.1"/>
			<line class="st12" x1="475.2" y1="172.4" x2="500.5" y2="172.4"/>
			<line class="st12" x1="501.3" y1="173.6" x2="501.3" y2="182.3"/>
			<path class="st12" d="M476.6,186.7c2.3-2.7,6.9-3,9.6-0.7c2.7,2.3,3,6.9,0.7,9.6c-2.3,2.7-6.9,3-9.6,0.7S474.3,189.3,476.6,186.7
				"/>
			<path class="st12" d="M492.8,187.7c3.6,0.3,7.2,0.6,10.7,0.8"/>
			<path class="st12" d="M493.6,193c3.1-0.6,6.3-0.6,9.4,0"/>
			<path class="st12" d="M493.6,198.5c2.1,0,4.3,0,6.4,0"/>
			<line class="st12" x1="807.6" y1="263.9" x2="825.9" y2="263.9"/>
			<line class="st12" x1="809.9" y1="258.7" x2="832.4" y2="258.7"/>
			<line class="st12" x1="810.4" y1="250.7" x2="829.9" y2="250.7"/>
			<path class="st12" d="M858.3,175.1c-0.6,2.8,0.9,6,3.5,7.1c2.6,1.2,6.1,0,7.3-2.6c1.2-2.6-0.2-6.1-2.9-7c-2.7-0.9-6,1.4-6,4.3"/>
			<path class="st12" d="M880.7,174.2c-2.1,2.3-1.3,6.7,1.7,7.8c2.9,1.1,6.6-1.7,6-4.8c-0.6-3.1-5.3-4.4-7.2-1.9"/>
			<path class="st12" d="M860.8,192.4c8.8-0.6,17.5-1.1,26.3-1.7"/>
			<path class="st12" d="M861.4,197.4c8.4-0.4,16.8-0.8,25.2-1.2"/>
			<line class="st12" x1="809.3" y1="175.8" x2="834.5" y2="175.8"/>
			<line class="st12" x1="809.3" y1="183.2" x2="835.6" y2="183.2"/>
			<line class="st12" x1="812.7" y1="190.1" x2="834.5" y2="190.1"/>
			<path class="st12" d="M861.4,245c0,3.4,0,6.9,0,10.3"/>
			<line class="st12" x1="861.4" y1="247.3" x2="888.8" y2="247.3"/>
			<line class="st12" x1="863.6" y1="255.9" x2="889.4" y2="255.9"/>
			<line class="st12" x1="888.3" y1="248.4" x2="888.3" y2="257.7"/>
			<line class="st12" x1="862.5" y1="261" x2="885" y2="261"/>
			<line class="st12" x1="863.1" y1="267.3" x2="884.8" y2="267.3"/>
			<line class="st12" x1="813.9" y1="312" x2="830.3" y2="312"/>
			<line class="st12" x1="814.4" y1="323.4" x2="829.9" y2="323.4"/>
			<line class="st12" x1="862.5" y1="316.5" x2="886.3" y2="316.5"/>
			<line class="st12" x1="866.5" y1="321.7" x2="883.8" y2="321.7"/>
			<line class="st12" x1="865.4" y1="327.4" x2="884.3" y2="327.4"/>
			<line class="st12" x1="928.3" y1="175.8" x2="954.8" y2="175.8"/>
			<line class="st12" x1="931.2" y1="182.1" x2="952.4" y2="182.1"/>
			<line class="st12" x1="931.7" y1="188.4" x2="945.6" y2="188.4"/>
			<line class="st12" x1="925.4" y1="253.6" x2="944.5" y2="253.6"/>
			<line class="st12" x1="928.3" y1="262.2" x2="946.1" y2="262.2"/>
			<line class="st12" x1="927.2" y1="313.7" x2="945.5" y2="313.7"/>
			<line class="st12" x1="926.6" y1="316.5" x2="945.6" y2="316.5"/>
			<line class="st12" x1="930" y1="322.3" x2="941.5" y2="322.3"/>
			<line class="st12" x1="811" y1="379.5" x2="831" y2="379.5"/>
			<line class="st12" x1="810.4" y1="387.5" x2="834.5" y2="387.5"/>
			<line class="st12" x1="864.2" y1="402.4" x2="884.8" y2="402.4"/>
			<line class="st12" x1="861.9" y1="392.6" x2="887.2" y2="392.6"/>
			<line class="st12" x1="864.2" y1="385.2" x2="883.8" y2="385.2"/>
			<line class="st12" x1="623.9" y1="382.9" x2="638.8" y2="382.9"/>
			<line class="st12" x1="623.9" y1="388.6" x2="637.7" y2="388.6"/>
			<line class="st12" x1="480.3" y1="440.1" x2="504.4" y2="440.1"/>
			<line class="st12" x1="480.9" y1="447.5" x2="506.7" y2="447.5"/>
			<line class="st12" x1="483.8" y1="456.7" x2="501.5" y2="456.7"/>
			<line class="st12" x1="415.1" y1="371.5" x2="434" y2="371.5"/>
			<line class="st12" x1="415.7" y1="377.2" x2="434.6" y2="377.2"/>
			<line class="st12" x1="416.2" y1="383.5" x2="436.9" y2="383.5"/>
			<line class="st12" x1="417.4" y1="397.8" x2="431" y2="397.8"/>
			<line class="st12" x1="858.5" y1="443" x2="883.1" y2="443"/>
			<line class="st12" x1="859.6" y1="453.3" x2="886.5" y2="453.3"/>
			<line class="st12" x1="860.8" y1="461.9" x2="882" y2="461.9"/>
		</g>
		<rect id="XMLID_230_" x="389.2" y="110.4" class="st1" width="4.4" height="413.1"/>
		<rect id="XMLID_229_" x="586.7" y="110.4" class="st1" width="4.4" height="413.1"/>
		<rect id="XMLID_228_" x="257.3" y="222.7" class="st1" width="772.7" height="4.4"/>
		<rect id="XMLID_226_" x="257.3" y="354.2" class="st1" width="772.7" height="4.4"/>
		<rect id="XMLID_225_" x="257.3" y="485.6" class="st1" width="772.7" height="4.4"/>
		<rect id="XMLID_224_" x="785.5" y="110.4" class="st1" width="4.4" height="413.1"/>
		<rect id="XMLID_223_" x="904.6" y="110.4" class="st1" width="4.4" height="413.1"/>
	</g>
	<rect x="185.9" y="56" class="st0" width="916.8" height="21.5"/>
	<rect x="173" y="32.6" class="st13" width="942.6" height="27.6"/>
	<polygon class="st14" points="596.6,32.6 591,60.2 382,60.2 387.6,32.6 	"/>
	<polygon class="st14" points="733.8,32.6 728.2,60.2 638.2,60.2 643.8,32.6 	"/>
</g>
<g>
	<g>
		<g>
			<g>
				<defs>
					<path id="SVGID_1_" d="M711.3,926.4c-3.7-62.9-2.7-121.1,2.2-132.8c5-7.3,35.2-25.3,64.9-38.6l-16.7-37.3
						c-20.9,9.3-70.8,33.5-83.6,55.5c-5.4,9.3-10.6,27.4-8.1,91.6c1.3,33.6,3,59.9,3,59.9L711.3,926.4z"/>
				</defs>
				<clipPath id="SVGID_2_">
					<use xlink:href="#SVGID_1_"  style="overflow:visible;"/>
				</clipPath>
			</g>
		</g>
		<g>
			<g>
				<defs>
					<path id="SVGID_3_" d="M331.8,944.7c3.6-61.2,2.7-117.8-2.1-129.2c-4.9-7.1-34.3-24.6-63.2-37.6l16.2-36.2
						c20.3,9.1,68.8,32.6,81.3,54c5.3,9,10.3,26.7,7.9,89.1c-1.3,32.7-2.9,58.3-2.9,58.3L331.8,944.7z"/>
				</defs>
				<clipPath id="SVGID_4_">
					<use xlink:href="#SVGID_3_"  style="overflow:visible;"/>
				</clipPath>
			</g>
		</g>
	</g>
	<g>
		<g>
			<ellipse class="st15" cx="646.6" cy="930.2" rx="489.8" ry="41.9"/>
			<g>
				<g>
					<g>
						<path class="st16" d="M505.5,512.8c0,0,1.4,16.2,18.3,16.4s21.3-16.8,21.3-16.8l3,4.2c0,0-0.5,18-23.8,17.6
							c-21.7-0.4-22.5-15.9-22.7-18.1L505.5,512.8z"/>
					</g>
				</g>
				<g>
					<path class="st17" d="M588.6,785.4H450.5c-7.7,0-14.1-6.3-14.1-14.1V565.5c0-7.7,6.3-14.1,14.1-14.1h138.1
						c7.7,0,14.1,6.3,14.1,14.1v205.9C602.6,779.1,596.3,785.4,588.6,785.4z"/>
				</g>
				<g>
					<g>
						<g>
							<rect x="514.4" y="797.4" class="st18" width="18.4" height="102.5"/>
						</g>
					</g>
					<g>
						<path class="st19" d="M481.1,806.2h82c4.5,0,8.2-3.7,8.2-8.2l0,0c0-4.5-3.7-8.2-8.2-8.2h-82c-4.5,0-8.2,3.7-8.2,8.2l0,0
							C472.9,802.5,476.5,806.2,481.1,806.2z"/>
					</g>
					<g>
						<path class="st17" d="M440.9,796.3h94.2c11.3,0,20.5-9.2,20.5-20.5l0,0c0-11.3-9.2-20.5-20.5-20.5h-94.2
							c-11.3,0-12.9,9.2-12.9,20.5l0,0C428,787.1,429.6,796.3,440.9,796.3z"/>
					</g>
					<g>
						<path class="st17" d="M523.7,796.9h75.4c11.3,0,14.8-9.2,14.8-20.5l0,0c0-11.3-3.5-20.5-14.8-20.5h-75.4
							c-11.3,0-20.5,9.2-20.5,20.5l0,0C503.2,787.6,512.5,796.9,523.7,796.9z"/>
					</g>
					<g>
						<g>
							<path class="st19" d="M445.8,934.1h11.5c0-13.7,11.2-24.9,24.9-24.9h83.6c13.7,0,24.9,11.2,24.9,24.9h11.5
								c0-20-16.3-36.4-36.4-36.4h-83.6C462.1,897.8,445.8,914.1,445.8,934.1z"/>
						</g>
						<g>
							
								<rect x="510.3" y="882.5" transform="matrix(-1 -1.224647e-16 1.224647e-16 -1 1047.3954 1782.4258)" class="st19" width="26.8" height="17.5"/>
						</g>
					</g>
					<g>
						<g>
							<circle class="st19" cx="596.8" cy="945.2" r="9.5"/>
						</g>
						<g>
							<path class="st19" d="M583.1,944.4h26.1v-6.5c0-5-4-9-9-9h-8.2c-5,0-9,4-9,9V944.4z"/>
						</g>
						<g>
							<circle class="st19" cx="451" cy="945.2" r="9.5"/>
						</g>
						<g>
							<path class="st19" d="M437.2,944.4h26.1v-6.5c0-5-4-9-9-9h-8.2c-5,0-9,4-9,9V944.4z"/>
						</g>
					</g>
					<g>
						
							<rect x="515.6" y="901.3" transform="matrix(-1 -1.224647e-16 1.224647e-16 -1 1046.3147 1837.1211)" class="st19" width="15.2" height="34.4"/>
					</g>
					<g>
						<g>
							<circle class="st19" cx="522.8" cy="945.2" r="9.5"/>
						</g>
						<g>
							<path class="st20" d="M509.1,944.4h26.1v-6.5c0-5-4-9-9-9H518c-5,0-9,4-9,9V944.4z"/>
						</g>
					</g>
				</g>
				<g>
					<path class="st21" d="M406.7,626.4c1.3-3.1,54-93.4,73.4-103.6c19.4-10.2,56.7-10.8,68.6-7.3c29,8.5,88.6,98.8,95.1,115.5
						c7.6,19.4,0,44.4-8.6,44.4c-8.6,0-214.5,0-214.5,0S390.5,665.1,406.7,626.4z"/>
				</g>
				<g>
					<g>
						<path class="st22" d="M495.2,955.7h-31.2c-6.2,0-11.2-5-11.2-11.2l0,0c0-6.2,5-11.2,11.2-11.2h31.2c6.2,0,11.2,5,11.2,11.2
							l0,0C506.5,950.7,501.4,955.7,495.2,955.7z"/>
					</g>
					<g>
						<path class="st21" d="M499.9,937.9h-41.5V751.5c0-11.5,9.3-20.8,20.8-20.8l0,0c11.5,0,20.8,9.3,20.8,20.8V937.9z"/>
					</g>
				</g>
				<g>
					<g>
						<path class="st22" d="M572.9,955.7h-31.2c-6.2,0-11.2-5-11.2-11.2l0,0c0-6.2,5-11.2,11.2-11.2h31.2c6.2,0,11.2,5,11.2,11.2
							l0,0C584.1,950.7,579,955.7,572.9,955.7z"/>
					</g>
					<g>
						<path class="st21" d="M577.5,937.9H536V751.5c0-11.5,9.3-20.8,20.8-20.8l0,0c11.5,0,20.8,9.3,20.8,20.8V937.9z"/>
					</g>
				</g>
				<g>
					<g>
						<path class="st21" d="M580.1,565.5v178.5c0,7.1-5.8,12.9-12.9,12.9h-99c-7.1,0-12.9-5.8-12.9-12.9V565.5
							c0-26.3,19.1-48.2,44.1-52.6c3-0.5,6.1-0.8,9.3-0.8h18C556.2,512.1,580.1,536,580.1,565.5z"/>
					</g>
					<g>
						<polygon class="st2" points="544,511.7 543.2,697.3 543.1,722.3 496.1,722.3 496.1,697.3 496.1,691.9 496.2,511.7 						"/>
					</g>
					<g>
						<polygon class="st23" points="543.2,697.3 543.1,722.3 496.2,722.3 496.1,697.3 496.1,691.9 543.1,691.9 						"/>
					</g>
				</g>
			</g>
			<g>
				<g>
					<path class="st24" d="M605,490.8c0.3-0.1,14.5-12.4,17.3-10c4.7,4,9.4,9.2,13.1,14.5l9,12.5c0,0-8.2,12-8.8,12.5
						c-9.2,7.8-26.2-15-26.2-15S598.7,492.8,605,490.8z"/>
					<path class="st24" d="M621.5,492L605,469.1c-1.2-1.7-0.8-4,0.8-5.2l0,0c1.6-1.2,4-0.8,5.2,0.9l16.5,22.9c1.2,1.7,0.8,4-0.8,5.2
						v0C625,494.1,622.7,493.7,621.5,492z"/>
					<path class="st24" d="M610.9,492.2l-13.2-18.4c-1.2-1.7-0.8-4,0.8-5.2l0,0c1.6-1.2,4-0.8,5.2,0.9l13.2,18.4
						c1.2,1.7,0.8,4-0.8,5.2l0,0C614.4,494.2,612.1,493.8,610.9,492.2z"/>
					<path class="st24" d="M610.2,506.1l-15.7-21.8c-1.2-1.7-0.8-4,0.8-5.2l0,0c1.6-1.2,4-0.8,5.2,0.9l15.7,21.8
						c1.2,1.7,0.8,4-0.8,5.2v0C613.8,508.1,611.4,507.7,610.2,506.1z"/>
					<path class="st24" d="M633.6,505.3l-8.3-26.9c-0.6-2,0.5-4,2.4-4.6l0,0c2-0.6,4,0.6,4.6,2.5l8.3,26.9c0.6,2-0.5,4-2.4,4.6l0,0
						C636.3,508.4,634.2,507.3,633.6,505.3z"/>
					<g>
						<path class="st24" d="M794.4,538l8.3,29.4l0.5,1.8c-0.6,0.1-4.5,0.8-10.8,1.6c-19.1,2.4-59.6,5.9-89.7-2.8
							c-15.7-4.5-31.2-13.2-44.2-22c0,0-0.1,0-0.1,0c-9.6-6.5-17.8-13.1-23.8-18.2c-6.1-5.2-9.9-8.8-10.4-9.3l1.8-1.9l12.4-12.8
							l1.8-1.8c0.1,0.1,3.9,3.2,10.1,7.5c12.7,9,35.5,23.6,56.6,29.8c13,3.8,33.5,3.5,55.9,2.1c8.9-0.5,16.8-1.4,22.5-2.1
							C791,538.6,794.3,538,794.4,538z"/>
					</g>
				</g>
				<path class="st11" d="M778.1,515.7c-19,8.4-46.5,24.5-46.5,24.5l6.9,41.4c0,0,26.8-3.5,36-17.6
					C789.3,541.2,790.1,510.4,778.1,515.7z"/>
				<g>
					<g>
						<path class="st25" d="M741.4,427.8c0,0.8,0,1.5,0.1,2.3c0.2,3.7,0.8,7.2,1.8,10.7c4.1,14.6,14.4,26.6,28,32.8
							c6.7,3.1,14.2,4.8,22.1,4.6c12.8-0.2,20.6-6.6,29.5-14.5c2.8-2.5-5.1,21.5-1.5,20.1c24.1-9.4,25.5-39.5,24.1-56.4
							c-2.3-27.4-19.6-49.7-51.4-51.5c-0.8,0-1.6,0-2.3,0c-17.2,0.3-32.3,9-41.4,22.2c0,0,0,0,0,0c-2.7,3.9-4.8,8.1-6.3,12.7
							C742.3,416.1,741.4,421.8,741.4,427.8z"/>
						<path class="st24" d="M798.3,534.4l9.1,0.5c8.4,0.5,16.8-16.6,17.2-23.4l2.4-47.1c0.4-6.9-6.6-0.9-15-1.3l-9.1-0.5
							c-8.4-0.5-15.5,4.8-15.9,11.7l-1.9,35.2C784.6,516.2,789.9,534,798.3,534.4z"/>
						<g>
							<path class="st26" d="M810.3,442c0,1.1,0.2,2.2,0.6,3.2c0.4,1.2,1.2,2.5,2.1,3.4c1.7,1.7,3.9,2.9,6.5,2.9l5.4,0l4.2,0
								l0.1-12.4l0,0l0-2.3l0-1.8l0-1.6l0-0.4l0,0l-9.6,0c-2.4,0-4.6,0.9-6.3,2.4c-1,0.9-1.8,2.1-2.3,3.4
								C810.5,439.8,810.3,440.8,810.3,442z"/>
							<path class="st27" d="M744.7,433.2l-0.1,20l0,3c0,2,0.2,3.9,0.4,5.8c2.8,36.7,35.3,35.6,35.8,35.6c1.9,0.3,3.8,0.4,5.8,0.4
								c1.9,0,3.8-0.1,5.7-0.4c3.6-0.5,7.1-1.4,10.4-2.7c0,0,0,0,0,0c14.3-5.8,24.7-19.2,26-35.1c0-0.5,0.1-0.9,0.1-1.4
								c0.1-0.6,0.1-1.1,0.1-1.7l0-0.3l0-1.4l0-3.6l0.1-12.3l0-0.1l0,0l0-2.3l0-1.8l0-1.6l0-0.4c0-2.8-0.4-5.6-1.1-8.3
								c-0.5-1.9-1.1-3.7-1.7-5.4c-0.1-0.3-0.2-0.5-0.3-0.8c-0.6-1.4-1.2-2.9-1.9-4.2c0,0,0,0,0,0c-2.7-5.2-6.6-9.8-11.2-13.4
								c-0.9-0.7-1.9-1.4-2.9-2.1c-6.8-4.5-14.9-7.2-23.6-7.2c-11.6,0-22.3,4.6-30,12.2c-4.1,4-6.9,8.9-9.1,14.3
								c-0.8,2.1-1.4,4.2-1.8,6.4C744.9,427.2,744.7,430.1,744.7,433.2z"/>
							<path class="st26" d="M824.9,439.1l0,12.4l0,8.4l3.3,0c0.2,0,0.5,0,0.7,0c5.5-0.4,9.9-5.1,10-10.7c0-2.9-1.2-5.3-3.1-7.2
								c-1.7-1.7-4-2.7-6.6-2.9l0,0c-0.3,0-0.6-0.1-0.9,0L824.9,439.1z"/>
						</g>
						<path class="st24" d="M787.9,498c0,0,7.5,0.9,14.9-3c0,0,0,0,0,0c14.3-5.8,24.7-19.2,26-35.1c5.5-0.4,9.9-5.1,10-10.7
							c0-2.9-1.2-5.3-3.1-7.2c-1.7-1.7-4-2.7-6.6-2.9l0,0l0-2.3l0-1.8l0-1.6l0-0.4l0,0c0-2.8-0.4-5.6-1.1-8.3
							c-5.5-3.5-11.3-4.4-14.9,2.5c0,0,0.2,3.2,0.2,8.1c0,3.7,0,8.3-0.2,13.2c-0.5,10-0.9,18.2-2.5,25.3
							C806,494.4,787.9,498,787.9,498z"/>
						<g>
							<path class="st28" d="M749.2,434.8l13.3,0.7c1.3,0.1,2.4-0.9,2.5-2.2l0,0c0.1-1.3-0.9-2.4-2.2-2.5l-13.3-0.7
								c-1.3-0.1-2.4,0.9-2.5,2.2l0,0C746.9,433.6,747.9,434.8,749.2,434.8z"/>
							<path class="st28" d="M778.7,436.6l13.3,0.7c1.3,0.1,2.4-0.9,2.5-2.2l0,0c0.1-1.3-0.9-2.4-2.2-2.5l-13.3-0.7
								c-1.3-0.1-2.4,0.9-2.5,2.2l0,0C776.4,435.4,777.4,436.5,778.7,436.6z"/>
							<path class="st24" d="M762.9,458.4c0,0.1,0.3,0,0.3,0c-0.1,2.1,1.7,3.9,6.3,4l1.5-16.8C765.6,451.6,763.4,454.9,762.9,458.4z
								"/>
						</g>
					</g>
					<path class="st28" d="M755,408.7c0,0,9.2,14.4,44.5,17.3c11.3,0.9,18.7,15.9,21.9,24.4c0.7,1.9,3.5,1.9,4.2,0
						c2.3-5.8,5.4-14.1,5.3-15.1c-0.2-1.5,2.5-53.9-41.2-48c-43.8,5.8-47.3,38.3-45.6,37.1C750,420.3,755,408.7,755,408.7z"/>
					<path class="st28" d="M769.8,381.8c-11.7,6.6-37,13.3-37,13.3s10.7,15.9,23.1,9.3C765.4,399.3,784,373.8,769.8,381.8z"/>
					<path class="st2" d="M759,470.6l21.3,0.7c0,0-3,10.2-11.8,9.3C760.3,479.7,759,470.6,759,470.6z"/>
					<path class="st29" d="M779.1,444.6c0,0,2.4-3.1,6.2-2.6c3.8,0.5,4.8,3.1,4.8,3.1"/>
					<path class="st29" d="M750.9,443.2c0,0,2.4-3.1,6.2-2.6s4.8,3.1,4.8,3.1"/>
				</g>
				<g>
					<path class="st17" d="M730.2,772.6l147.9,11.1l41-208.2l-99.3-0.3c-27.8-0.1-51.9,19.3-57.7,46.6L730.2,772.6z"/>
					<path class="st30" d="M908.2,774l24.6-182.2c1.1-8.1-4.6-15.7-12.8-16.8l0,0c-8.1-1.1-15.7,4.6-16.8,12.8L878.7,770
						c-1.1,8.1,4.6,15.7,12.8,16.8h0C899.5,787.9,907.1,782.1,908.2,774z"/>
					<g>
						<g>
							<rect x="806.6" y="799" class="st18" width="17.3" height="102.2"/>
						</g>
						<path class="st11" d="M775.1,807.2h77.4c4.3,0,7.7-3.5,7.7-7.7l0,0c0-4.3-3.5-7.7-7.7-7.7h-77.4c-4.3,0-7.7,3.5-7.7,7.7l0,0
							C767.4,803.7,770.9,807.2,775.1,807.2z"/>
						<path class="st17" d="M737.3,797.9h89c10.6,0,19.4-8.7,19.4-19.4l0,0c0-10.6-8.7-19.4-19.4-19.4h-89
							c-10.6,0-19.4,8.7-19.4,19.4l0,0C717.9,789.2,726.6,797.9,737.3,797.9z"/>
						<path class="st30" d="M815.5,798.5h71.2c10.6,0,19.4-8.7,19.4-19.4l0,0c0-10.6-8.7-19.4-19.4-19.4h-71.2
							c-10.6,0-19.4,8.7-19.4,19.4l0,0C796.1,789.7,804.8,798.5,815.5,798.5z"/>
						<g>
							<g>
								<path class="st28" d="M741.9,935.2h10.8c0-12.9,10.5-23.5,23.5-23.5h79c12.9,0,23.5,10.5,23.5,23.5h10.8
									c0-18.9-15.4-34.3-34.3-34.3h-79C757.3,900.9,741.9,916.3,741.9,935.2z"/>
							</g>
							
								<rect x="802.8" y="884.6" transform="matrix(-1 -1.224647e-16 1.224647e-16 -1 1630.8097 1785.7924)" class="st28" width="25.3" height="16.5"/>
						</g>
						<g>
							<path class="st28" d="M875.5,945.7c0,5,4,9,9,9c5,0,9-4,9-9c0-5-4-9-9-9C879.5,936.7,875.5,940.7,875.5,945.7z"/>
							<path class="st11" d="M871.5,944.9h24.6v-6.1c0-4.7-3.8-8.5-8.5-8.5h-7.7c-4.7,0-8.5,3.8-8.5,8.5V944.9z"/>
							<path class="st28" d="M737.8,945.7c0,5,4,9,9,9s9-4,9-9c0-5-4-9-9-9S737.8,940.7,737.8,945.7z"/>
							<path class="st11" d="M733.8,944.9h24.6v-6.1c0-4.7-3.8-8.5-8.5-8.5h-7.7c-4.7,0-8.5,3.8-8.5,8.5V944.9z"/>
						</g>
						
							<rect x="807.7" y="904.3" transform="matrix(-1 -1.224647e-16 1.224647e-16 -1 1629.7897 1841.0143)" class="st28" width="14.3" height="32.5"/>
						<g>
							<circle class="st28" cx="814.6" cy="945.7" r="9"/>
							<path class="st11" d="M801.6,944.9h24.6v-6.1c0-4.7-3.8-8.5-8.5-8.5h-7.7c-4.7,0-8.5,3.8-8.5,8.5V944.9z"/>
						</g>
					</g>
				</g>
				<g>
					<path class="st31" d="M707.8,935.3l-64.4-2.4c-3.8-0.1-6.8-3.4-6.7-7.2l0,0c0.1-3,2.1-5.5,4.9-6.4l32.3-9.9l34.8,2.2
						L707.8,935.3z"/>
					<path class="st28" d="M642,934.6l65.2,2.9l0.2-4.7l-69.9-3.1l0,0C637.5,932.3,639.5,934.5,642,934.6z"/>
				</g>
				<g>
					<line class="st32" x1="674.3" y1="918.8" x2="667.1" y2="910.4"/>
					<line class="st32" x1="668.6" y1="920.9" x2="661.4" y2="912.5"/>
					<line class="st32" x1="663.2" y1="923.8" x2="655.1" y2="914.2"/>
				</g>
				<g>
					<defs>
						<path id="SVGID_5_" d="M711.3,912.4c-3.7-62.9-2.7-121.1,2.2-132.8c5-7.3,35.2-25.3,64.9-38.6l-16.7-37.3
							c-20.9,9.3-70.8,33.5-83.6,55.5c-5.4,9.3-10.6,27.4-8.1,91.6c1.3,33.6,3,59.9,3,59.9L711.3,912.4z"/>
					</defs>
					<clipPath id="SVGID_6_">
						<use xlink:href="#SVGID_5_"  style="overflow:visible;"/>
					</clipPath>
					<g class="st33">
						<path class="st21" d="M711.3,912.4c-3.7-62.9-2.7-121.1,2.2-132.8c5-7.3,35.2-25.3,64.9-38.6l-16.7-37.3
							c-20.9,9.3-70.8,33.5-83.6,55.5c-5.4,9.3-10.6,27.4-8.1,91.6c1.3,33.6,3,59.9,3,59.9L711.3,912.4z"/>
					</g>
				</g>
				<path class="st34" d="M753.4,583.5l-5.2,128.3l118.3,0.6l1.6-154c0-25.1-18.2-46.1-42.2-50.3c-0.9-0.2-3.5,1.2-6.7,3.1
					c-10.5,6.3-23.7,5.5-33.4-2l0,0C760.3,512.2,753.4,555.3,753.4,583.5z"/>
				<path class="st28" d="M757.9,728.6c0,7,2.5,13.5,6.7,18.5c5.3,6.5,13.4,10.6,22.4,10.6H836c1.5,0,2.9-0.1,4.3-0.3
					c3.6-0.5,7-1.7,10-3.4c0.5-0.3,1.1-0.6,1.6-1c8-5.2,13.3-14.2,13.3-24.4l-0.9-15.5l-105.4-0.9L757.9,728.6z"/>
				<g>
					<path class="st21" d="M738.7,848.7c0.9,33.3,3.8,63.8,3.9,65l21.6-2.1l19-1.8c-5.5-56.8-5.3-113.9,0.5-126.1
						c6.7-6.3,32.5-17.7,56.6-26.3c3.4-1.2,6.8-2.4,10-3.4c0.6-0.2,1.1-0.4,1.7-0.6l-0.1-0.4c0,0-19.9-35-62-23
						c-8.9,2.5-16.1,11-25.3,17.1c-4.7,3.2-8.8,6.4-11.7,9.7C744.5,766,737,783.5,738.7,848.7z"/>
				</g>
				<g>
					<g>
						<path class="st31" d="M784.6,935.2l-64.1,7.4c-3.8,0.4-7.3-2.3-7.7-6.1l0,0c-0.3-2.9,1.2-5.8,3.9-7.1l30.4-14.7l34.7-3.2
							L784.6,935.2z"/>
						<path class="st28" d="M719.4,944.5l64.9-7l-0.5-4.7l-69.6,7.5l0,0C714.5,942.9,716.9,944.8,719.4,944.5z"/>
					</g>
					<g>
						<line class="st32" x1="751.4" y1="922.4" x2="742.8" y2="915.5"/>
						<line class="st32" x1="746.2" y1="925.5" x2="737.6" y2="918.6"/>
						<line class="st32" x1="741.4" y1="929.4" x2="731.7" y2="921.5"/>
					</g>
				</g>
				<path class="st21" d="M764.2,911.6l19-1.8c-5.5-56.8-5.3-113.9,0.5-126.1c6.7-6.3,32.5-17.7,56.6-26.3c3.6-0.5,7-1.7,10-3.4
					c0.6-0.2,1.1-0.4,1.7-0.6l-0.1-0.4c8-5.2,13.3-14.2,13.3-24.4l-0.9-15.5l-16.8,2.3c0.4,1.2,2.7,13.1-1.5,20.2
					c-1.2,2-2.8,3.7-5.2,4.6c-6.6,2.5-31.6,8.6-51.5,17.6c-12.9,5.8-23.6,12.7-25.9,20.6C758,796.9,763.4,896.4,764.2,911.6z"/>
				<g>
					<g>
						<g>
							<path class="st27" d="M724.3,645.6l-25.2-4c-1.8-0.3-3.1-2-2.8-3.9l0,0c0.3-1.8,2-3.1,3.9-2.8l25.2,4c1.8,0.3,3.1,2,2.8,3.9
								l0,0C727.9,644.7,726.2,645.9,724.3,645.6z"/>
							<path class="st27" d="M716.3,652.5l-20.3-3.2c-1.8-0.3-3.1-2-2.8-3.9l0,0c0.3-1.8,2-3.1,3.9-2.8l20.3,3.2
								c1.8,0.3,3.1,2,2.8,3.9l0,0C719.9,651.5,718.1,652.8,716.3,652.5z"/>
							<path class="st27" d="M721,661.3l-24-3.8c-1.8-0.3-3.1-2-2.8-3.9l0,0c0.3-1.8,2-3.1,3.9-2.8l24,3.8c1.8,0.3,3.1,2,2.8,3.9
								l0,0C724.6,660.3,722.8,661.6,721,661.3z"/>
						</g>
						<path class="st27" d="M713.4,639.1c0.3,0,3.4,0,6.7-0.1c5.8-0.1,11.5,1.2,16.7,3.7l9.9,4.9c0,0-5.7,16.9-6.5,17.1
							c-19.2,3.5-25.8-5.2-25.8-5.2L713.4,639.1z"/>
					</g>
					<g>
						<path class="st27" d="M792.6,669.7c40.7,5.6,52.2-30,52.2-30l19-68.9L833.8,548l-15.3,74.7c-1.2,6.1-4.3,11.8-9.1,15.8
							c-3.9,3.3-9.3,5.8-16.7,5.7l-55.8-0.6l-0.8,21.1l55.9,5.1C792.3,669.7,792.4,669.7,792.6,669.7z"/>
					</g>
				</g>
				<path class="st11" d="M828.5,540.6c-9,9.6-8.4,49.8-8.4,49.8l43.7,1.7c0,0,2.4-27.2,1.1-39.3
					C863.5,538.7,843.7,524.4,828.5,540.6z"/>
				<path class="st2" d="M781.4,509.5c0,0,9.6,11.5,25.7,9.6c16.1-1.9,23-10.3,23-10.3l-2.7-3.8c0,0-10.3,10-22.6,10
					s-21.4-8.8-21.4-8.8L781.4,509.5z"/>
				<polygon class="st2" points="788.8,540.7 795.3,566.9 812.3,571 799,591.4 800.7,620.1 785.9,606.6 770,620.1 774.2,591.4 
					762.7,571 780,566.9 				"/>
			</g>
			<g>
				<g>
					<path class="st17" d="M980.5,788.1l133.5,10l37.1-188.1l-89.7-0.3c-25.1-0.1-46.9,17.5-52.1,42.1L980.5,788.1z"/>
					<path class="st30" d="M1141.2,789.3l22.2-164.6c1-7.3-4.2-14.1-11.5-15.1l0,0c-7.3-1-14.1,4.2-15.1,11.5l-22.2,164.6
						c-1,7.3,4.2,14.1,11.5,15.1l0,0C1133.4,801.9,1140.2,796.7,1141.2,789.3z"/>
					<g>
						<g>
							<rect x="1049.5" y="811.9" class="st35" width="15.6" height="92.3"/>
							<path class="st18" d="M1049.5,817.3v28.8h15.6v-28.1C1061.2,817.8,1053.7,817.4,1049.5,817.3z"/>
						</g>
						<path class="st11" d="M1021,819.3h69.9c3.8,0,7-3.1,7-7l0,0c0-3.8-3.1-7-7-7H1021c-3.8,0-7,3.1-7,7l0,0
							C1014,816.2,1017.2,819.3,1021,819.3z"/>
						<path class="st17" d="M981.8,811h90.3c6.9,0,12.5-5.6,12.5-12.5v-10c0-6.9-5.6-12.5-12.5-12.5h-90.3
							c-6.9,0-12.5,5.6-12.5,12.5v10C969.3,805.3,975,811,981.8,811z"/>
						<path class="st30" d="M1057.4,811.4h64.3c9.6,0,17.5-7.9,17.5-17.5l0,0c0-9.6-7.9-17.5-17.5-17.5h-64.3
							c-9.6,0-17.5,7.9-17.5,17.5l0,0C1040,803.6,1047.8,811.4,1057.4,811.4z"/>
						<g>
							<g>
								<path class="st28" d="M991,934.9h9.8c0-11.7,9.5-21.2,21.2-21.2h71.3c11.7,0,21.2,9.5,21.2,21.2h9.8c0-17.1-13.9-31-31-31
									H1022C1004.9,903.9,991,917.8,991,934.9z"/>
							</g>
							
								<rect x="1046" y="889.3" transform="matrix(-1 -1.224647e-16 1.224647e-16 -1 2114.793 1793.4348)" class="st28" width="22.8" height="14.9"/>
						</g>
						<g>
							<circle class="st28" cx="1119.8" cy="944.4" r="8.1"/>
							<path class="st11" d="M1108,943.7h22.3v-5.5c0-4.2-3.4-7.6-7.6-7.6h-7c-4.2,0-7.6,3.4-7.6,7.6V943.7z"/>
							<path class="st28" d="M987.3,944.4c0,4.5,3.6,8.1,8.1,8.1c4.5,0,8.1-3.6,8.1-8.1c0-4.5-3.6-8.1-8.1-8.1
								C990.9,936.3,987.3,939.9,987.3,944.4z"/>
							<path class="st11" d="M983.7,943.7h22.3v-5.5c0-4.2-3.4-7.6-7.6-7.6h-7c-4.2,0-7.6,3.4-7.6,7.6V943.7z"/>
						</g>
						
							<rect x="1050.5" y="907" transform="matrix(-1 -1.224647e-16 1.224647e-16 -1 2113.8716 1843.3086)" class="st28" width="13" height="29.4"/>
						<g>
							<path class="st28" d="M1048.5,944.4c0,4.5,3.6,8.1,8.1,8.1c4.5,0,8.1-3.6,8.1-8.1c0-4.5-3.6-8.1-8.1-8.1
								C1052.2,936.3,1048.5,939.9,1048.5,944.4z"/>
							<path class="st11" d="M1044.9,943.7h22.3v-5.5c0-4.2-3.4-7.6-7.6-7.6h-7c-4.2,0-7.6,3.4-7.6,7.6V943.7z"/>
						</g>
					</g>
				</g>
				<path class="st28" d="M1015.4,795H940c-6.7,0-12.2-5.5-12.2-12.2v-16.2c0-6.7,5.5-12.2,12.2-12.2h75.5c6.7,0,12.2,5.5,12.2,12.2
					v16.2C1027.6,789.5,1022.1,795,1015.4,795z"/>
				<g>
					<path class="st24" d="M913.1,920.9c-11.9-53.6-22.9-111.2-8.8-139.8c7.4-15,30.9-28.9,86.8-51.2c2.9-1.2,6.2-2.5,7.1-2.9
						c-0.4,0.2-0.6,0.3-0.8,0.4l18.4,29.2c-1.8,1-3.7,1.8-10.8,4.6c-54.5,21.8-66,31.4-68.4,34.6c-10.5,22.1-4.6,71.7,1.9,121.3
						L913.1,920.9z M936.5,796L936.5,796L936.5,796z"/>
					<g>
						<path class="st28" d="M914,922.3L904,945.4c-1.7,3.6-5.3,6.2-9.4,6.8l0,0c-3.3,0.5-5.7,3.3-5.5,6.5l0,0
							c0.2,3.6,3.6,6.2,7.4,5.8l10.4-1.2c5.4-0.6,10.3-3.2,13.8-7.1l24.9-28.1c1.1-1.8,1.5-4,1-6.1l0,0c-1.1-4.7-6.1-7.6-11-6.3
							L914,922.3z"/>
						<rect x="938.3" y="920.4" class="st28" width="7.4" height="37.1"/>
						<path class="st36" d="M913,919.7L903,942.7c-1.7,3.6-5.3,6.2-9.4,6.8l0,0c-3.3,0.5-5.7,3.3-5.5,6.5l0,0
							c0.2,3.6,3.6,6.2,7.4,5.8l7.4-0.9c7.3-0.8,14-4.3,18.7-9.6l23-26c1.1-1.8,1.5-4,1-6.1l0,0c-1.1-4.7-6.1-7.6-11-6.3L913,919.7z
							"/>
						<line class="st37" x1="905.2" y1="936.9" x2="911.4" y2="939.6"/>
						<line class="st37" x1="907" y1="932.3" x2="913.2" y2="935"/>
						<line class="st37" x1="908.8" y1="927.9" x2="915" y2="930.6"/>
					</g>
				</g>
				<g>
					<path class="st27" d="M1049.7,730.1c0.1-0.1,0.3-0.2,0.6-0.3c-1.1,0.5-4.1,1.7-6.8,2.8c-21.7,8.7-38.5,16.1-51.4,22.7
						c-10.8,5.6-18.9,10.7-24.7,15.6c-5.2,4.3-8.6,8.6-10.8,12.9c-14.1,28.6-3.1,86.2,8.8,139.8l25.4-3.8
						c-6.6-49.5-12.5-99.2-1.9-121.3c1.1-1.5,4.2-4.3,12.6-9.1c4.3-2.5,9.9-5.4,17.4-8.9c9.5-4.5,22-10,38.4-16.5
						c7.1-2.8,9-3.6,10.8-4.6L1049.7,730.1z"/>
					<g>
						<path class="st28" d="M966.4,925.1l-10.1,23.1c-1.7,3.6-5.3,6.2-9.4,6.8l0,0c-3.3,0.5-5.7,3.3-5.5,6.5l0,0
							c0.2,3.6,3.6,6.2,7.4,5.8l10.4-1.2c5.4-0.6,10.3-3.2,13.8-7.1l24.9-28.1c1.1-1.8,1.5-4,1-6.1l0,0c-1.1-4.7-6.1-7.6-11-6.3
							L966.4,925.1z"/>
						<rect x="990.7" y="923.1" class="st28" width="7.4" height="37.1"/>
						<path class="st36" d="M965.4,922.4l-10.1,23.1c-1.7,3.6-5.3,6.2-9.4,6.8l0,0c-3.3,0.5-5.7,3.3-5.5,6.5l0,0
							c0.2,3.6,3.6,6.2,7.4,5.8l7.4-0.9c7.3-0.8,14-4.3,18.7-9.6l23-26c1.1-1.8,1.5-4,1-6.1l0,0c-1.1-4.7-6.1-7.6-11-6.3
							L965.4,922.4z"/>
						<line class="st37" x1="957.6" y1="939.6" x2="963.8" y2="942.3"/>
						<line class="st37" x1="959.4" y1="935" x2="965.6" y2="937.7"/>
						<line class="st37" x1="961.2" y1="930.6" x2="967.4" y2="933.3"/>
					</g>
				</g>
				<path class="st38" d="M1018.9,780.5c-7.5,3.5-13.1,6.5-17.4,8.9c-0.1-0.4-0.2-0.8-0.2-1.4c0-8.8-13.6-17.5-22.9-18.9
					c-4.1-0.6-8,0.4-11,1.8c-3.7,1.6-6,3.8-6,3.8c-4.9-13.8-31.6-18.9-31.6-18.9s41.2-10.3,62.4-0.4c0.3,0.1,0.6,0.3,0.9,0.4
					C1009.5,764.1,1016.6,775.9,1018.9,780.5z"/>
				<g>
					<g>
						<g>
							<path class="st24" d="M889.7,666.4l-20.8-6c-1.5-0.4-2.4-2-2-3.6l0,0c0.4-1.5,2-2.4,3.6-2l20.8,6c1.5,0.4,2.4,2,2,3.6l0,0
								C892.8,665.9,891.2,666.8,889.7,666.4z"/>
							<path class="st24" d="M884.1,670.9l-16.7-4.8c-1.5-0.4-2.4-2-2-3.6l0,0c0.4-1.5,2-2.4,3.6-2l16.7,4.8c1.5,0.4,2.4,2,2,3.6
								l0,0C887.2,670.4,885.6,671.3,884.1,670.9z"/>
							<path class="st24" d="M887.4,677.8l-19.8-5.7c-1.5-0.4-2.4-2-2-3.6l0,0c0.4-1.5,2-2.4,3.6-2l19.8,5.7c1.5,0.4,2.4,2,2,3.6
								l0,0C890.5,677.4,888.9,678.2,887.4,677.8z"/>
						</g>
						<path class="st24" d="M872.4,655.6c0.2,0.1,2.8,0.3,5.7,0.6c4.9,0.5,7.3-0.2,11.4,2.5l10.1,7.5c0,0-6.6,13.6-7.2,13.7
							c-16.5,0.9-21.1-7.1-21.1-7.1L872.4,655.6z"/>
					</g>
					<g>
						<path class="st24" d="M1011.7,600c0,0-9.7,25.9-19.4,46.9c-2.7,5.8-5.4,11.3-8,15.7c-0.7,1.3-1.5,2.5-2.3,3.7
							c-9.8,15.2-22.8,23.6-41.3,21.4c-0.2,0-54.5-9.3-54.5-9.3l3.1-18.8l56.2,4.9c6.1,0.8,15.1-7.7,19-13.5
							c0.3-0.4,0.6-0.9,0.8-1.3c1.8-3.2,3.9-7.1,6-11.5c12.7-26.3,28.6-69.4,28.6-69.4L1011.7,600z"/>
					</g>
					<path class="st39" d="M971.3,638.3l21,8.6c-2.7,5.8-5.4,11.3-8,15.7c-0.7,1.3-1.5,2.5-2.3,3.7L964.5,651L971.3,638.3z"/>
					<path class="st40" d="M1015.2,590.3c-0.3,2.6-0.9,5.3-1.8,7.9l-19.2,56.4l-7.3-2.8l-21.3-8.3l31.5-82.9c1-2.7,4.2-3.8,6.6-2.6
						c0.5,0.2,1,0.6,1.4,1.1C1013,567.6,1016.6,579,1015.2,590.3z"/>
					<path class="st2" d="M969.3,639.6l24.5,10.4c2,0.8,2.9,3.1,2.1,5l0,0c-0.8,2-3.1,2.9-5.1,2.1l-24.4-10.6
						c-1.8-0.8-2.7-2.7-2.1-4.6l0,0C964.9,639.8,967.3,638.7,969.3,639.6z"/>
				</g>
				<g>
					<path class="st17" d="M1033.7,566.3c-0.9,0.1-1.7,0.1-2.6,0.1c-28.3,0.5-52.2-21.8-53.9-50.8l-3.9-64.6l38.3-2.5l68.3-4.5
						l3.9,64.6C1085.5,538.6,1063.1,564.4,1033.7,566.3z"/>
					<path class="st41" d="M1059.9,544.7c-3.1,9.8-14.8,17.4-28.8,21.7c-28.3,0.5-52.2-21.8-53.9-50.8l-3.9-64.6l38.3-2.5
						c22.7,8.5,46.9,24.4,48.3,27.5C1060.6,477.4,1068.1,518.3,1059.9,544.7z"/>
					<path class="st24" d="M1030.2,548.5h11.9c4.7,0,8.6-3.9,8.6-8.6V495c0-4.7-3.9-8.6-8.6-8.6h-11.9c-4.7,0-8.6,3.9-8.6,8.6v44.9
						C1021.7,544.6,1025.5,548.5,1030.2,548.5z"/>
					<path class="st17" d="M968.1,445.1c0,9.9,2.8,24.4,7.2,29.3c10.9,12,54.9-39.7,69-32.3c7,3.7,21.5,47.7,22.4,46.4
						c5.4-8.1,12.8-29,13.2-39.4c1.1-29.3-23.7-54-52.6-56.4c-0.8-0.1-1.7-0.1-2.5-0.1c-18.4-0.7-35,7.7-45.4,21.3c0,0,0,0,0,0
						c-3.1,4-5.6,8.4-7.5,13.2C969.7,432.7,968.1,438.8,968.1,445.1z"/>
					<g>
						<path class="st26" d="M1040.7,465.1c-0.1,1.1,0.1,2.3,0.4,3.3c0.4,1.3,1.1,2.6,1.9,3.6c1.6,1.8,3.9,3.2,6.5,3.3l5.6,0.3
							l4.3,0.2l0.8-12.7l0,0l0.1-2.4l0.1-1.8l0.1-1.7l0-0.4l0,0l-9.9-0.6c-2.5-0.1-4.8,0.7-6.6,2.2c-1.1,0.9-2,2-2.5,3.3
							C1041,462.8,1040.7,463.9,1040.7,465.1z"/>
						<path class="st27" d="M1058.9,483c0,0.5-0.1,1-0.2,1.5c0,0.2,0,0.3-0.1,0.5c-0.9,6.1-3.2,11.8-6.4,16.7
							c-0.2,0.2-0.3,0.5-0.5,0.7c-5.2,7.7-12.9,13.6-21.8,16.7c0,0,0,0,0,0c-3.5,1.2-7.1,2-10.9,2.2c-1.4,0.1-2.8,0.2-4.2,0.1
							c-0.6,0-1.1,0-1.7-0.1c-2-0.1-4-0.4-6-0.8c-0.6-0.1-1.1-0.2-1.7-0.4c-18.2-4.3-31.7-19.8-33.2-38.3c-0.2-2-0.2-4-0.1-6
							l0.2-3.1l1.2-20.6c0.2-3.1,0.5-6.1,1.2-9c0.5-2.2,1.2-4.4,2.2-6.5c2.5-5.4,5.7-10.3,10.2-14.2c8.3-7.4,19.6-11.5,31.6-10.9
							c9,0.5,17.2,3.7,23.9,8.7c1,0.7,1.9,1.5,2.8,2.3c4.6,4,8.2,8.9,10.8,14.5c0,0,0,0,0,0c0.7,1.4,1.3,3,1.8,4.5
							c0.1,0.3,0.2,0.5,0.3,0.8c0.6,1.8,1.1,3.8,1.5,5.7c0.6,2.8,0.8,5.6,0.7,8.6l0,0.4l-0.1,1.7l-0.1,1.8l-0.1,2.3l0,0l0,0.1l0,0.4
							l-0.1,1.1l-0.7,11.1l-0.2,3.7l-0.1,1.4l0,0.3C1059.1,481.9,1059,482.5,1058.9,483z"/>
						<path class="st26" d="M1066.5,473.2c-0.2,4.1-3.4,7.5-7.4,8.1c-0.4,0.1-0.7,0.1-1.1,0.1c-0.2,0-0.4,0-0.6,0l-2.7-0.1l0.3-5.5
							l0.1-1.2l0.6-10l2.7,0.2c0.2,0,0.5,0,0.7,0.1l0,0c0.3,0,0.7,0.1,1,0.2c0,0,0,0,0,0c1.7,0.4,3.1,1.2,4.2,2.4
							C1065.8,468.8,1066.6,470.9,1066.5,473.2z"/>
					</g>
					<path class="st24" d="M1059.1,481.2L1059.1,481.2c0,0.6-0.1,1.2-0.2,1.8c0,0.5-0.1,1-0.2,1.5c0,0.2,0,0.3-0.1,0.5
						c-0.1,0-0.2,0-0.2,0c-0.9,6.1-3,11.7-6.1,16.7c-0.2,0.2-0.3,0.5-0.5,0.7c-5.2,7.9-13,14-22.1,17.2c0,0,0,0,0,0
						c-7.9,3.6-8.3,2.9-8.3,2.9s-3.5-0.9-3-1.1c3.2-1.6,11.8-8.2,18.1-20.5c3.4-6.7,5.3-18.1,6.3-28.5l0.1-0.8
						c0.5-4.7,0.7-9.2,0.9-12.8c0-0.1,0-0.1,0-0.2c0.2-5,0.3-8.2,0.3-8.2c4.2-6.9,10-5.7,15.5-1.8c0.5,2.6,0.8,5.3,0.7,8.1
						c0,0.2,0,0.3,0,0.5l0,0l0,0.4l-0.1,1.7l-0.1,1.8l-0.1,2.3l0,0c0.1,0,0.2,0,0.3,0l-0.1,1.1c1.7,0.4,3.1,1.2,4.2,2.4
						c1.5,1.6,2.3,3.7,2.2,6C1066.2,477.2,1063.1,480.7,1059.1,481.2z"/>
					<path class="st17" d="M991,413.1c-1.1,3.7,1.4,28.9,23.3,36.4c0,0,27.6,3.3,32.3,17.2l3.7,8.9c0.5,1.3,1.8,2.2,3.2,2.2
						c0,0,0.1,0,0.1,0c1.7,0.1,3.2-1.1,3.6-2.8c2-8.1,9.3-31.3,9.5-33.2c0.3-3-2.1-6.8-3.9-9c-1.8-2.2-4.4-3.7-7.4-4l-53.3-5.8
						C996.9,422.5,992.5,407.9,991,413.1z"/>
					<path class="st2" d="M999.4,498.1c-9.1-1-9-4.5-8.9-6.1l0,0c0.2-1.6,17.7,0.3,17.5,1.9l0,0
						C1007.9,495.5,1003.7,498.6,999.4,498.1z"/>
					<path class="st24" d="M993.2,481.5c0,0,0.2,3.2,4.6,3.5c3.9,0.3,4.5-2.4,4.5-2.4L993.2,481.5z"/>
					<path class="st17" d="M993.3,429.4c0,0-12.9-1.9-19.9,13c0,0-1.2-16.1,22.1-29.9c23.4-13.8,60,3.8,62.4,11.1
						c2.3,7.3,1.4,12.6,1.4,12.6L993.3,429.4z"/>
					<g>
						<path class="st42" d="M1010,458.9c0,0,7.7-2.7,14.9,2.8"/>
						<path class="st42" d="M979.6,454.6c0,0,7.7-2.7,14.9,2.8"/>
					</g>
					<path class="st28" d="M1015.5,473.6L1015.5,473.6c1.1,0.1,2-0.7,2.1-1.7l0.4-3.6c0.1-1.1-0.7-2-1.7-2.1l0,0
						c-1.1-0.1-2,0.7-2.1,1.7l-0.4,3.6C1013.7,472.5,1014.4,473.4,1015.5,473.6z"/>
					<path class="st28" d="M985.7,470.3L985.7,470.3c1.1,0.1,2-0.7,2.1-1.7l0.4-3.6c0.1-1.1-0.7-2-1.7-2.1l0,0
						c-1.1-0.1-2,0.7-2.1,1.7l-0.4,3.6C983.9,469.2,984.6,470.2,985.7,470.3z"/>
				</g>
				<path class="st43" d="M1093.4,608l-8.3,139.1h-0.1l-1,0l-27.4-1.2l-5.7-0.2l-62-2.7l0-9.5l0.5-128c2.1-36.2,12.6-71.7,40.8-71.7
					h17.3c3,0,6,0.3,8.9,0.8c2.3,0.4,4.5,1.1,6.7,2c1.9,0.8,3.6,1.8,5.3,2.9c7.9,5.4,13.9,14.7,18,26.4
					C1090.7,577.8,1093,592.3,1093.4,608z"/>
				<g>
					<path class="st44" d="M1025.7,659.7c0,0,5-39.6,8.3-58.4c7.6-43.2,21.2-65.7,21.2-65.7l-27.9-6.8l-16.3,5.2
						c0,0-1.2,24.4,2.8,63.1C1015.4,613,1025.7,659.7,1025.7,659.7z"/>
				</g>
				<line class="st45" x1="1027.1" y1="529.2" x2="1025.7" y2="659.7"/>
				<path class="st2" d="M1055.2,536.1l-18.2,1.6c-5.4,0-9.7-4.3-9.7-9.7v0h25.1c2.1,0,3.7,1.9,3.4,3.9L1055.2,536.1z"/>
				<path class="st2" d="M1011,538.8l6.6-1.2c5.4,0,9.7-4.3,9.7-9.7v0l-12.7,0.1c-2.5,0-4.4,2.1-4.1,4.6L1011,538.8z"/>
				<path class="st43" d="M1018.4,791.2l0.6-0.3C1018.9,791.4,1018.4,791.2,1018.4,791.2z"/>
				<path class="st28" d="M1062.1,776l-45,17.6c0.4-0.8-0.3-4-8.7-15.7c-1.1-1.6-2.7-3-4.6-4.3C984.3,760,928,757.1,928,757.1
					c13.9-12.5,58.5-30.3,58.5-30.3l2.9-9l5.5-0.1l67.1-2l23,6.8l0.4,7.4l0.5,10.5C1086.8,755.8,1077.2,770.1,1062.1,776z"/>
				<g>
					<path class="st2" d="M1032.9,543.3c0,1.1-0.6,1.9-1.3,1.9c-0.7,0-1.3-0.9-1.3-1.9c0-1.1,0.6-1.9,1.3-1.9
						C1032.3,541.4,1032.9,542.2,1032.9,543.3z"/>
					<path class="st2" d="M1032.9,554.6c0,1.1-0.6,1.9-1.3,1.9c-0.7,0-1.3-0.9-1.3-1.9c0-1.1,0.6-1.9,1.3-1.9
						C1032.3,552.7,1032.9,553.6,1032.9,554.6z"/>
					<path class="st2" d="M1032.9,566c0,1.1-0.6,1.9-1.3,1.9c-0.7,0-1.3-0.9-1.3-1.9c0-1.1,0.6-1.9,1.3-1.9
						C1032.3,564,1032.9,564.9,1032.9,566z"/>
					<path class="st2" d="M1032.9,577.3c0,1.1-0.6,1.9-1.3,1.9c-0.7,0-1.3-0.9-1.3-1.9c0-1.1,0.6-1.9,1.3-1.9
						C1032.3,575.3,1032.9,576.2,1032.9,577.3z"/>
				</g>
				<path class="st43" d="M1018.4,791.2l0.6-0.3C1018.9,791.4,1018.4,791.2,1018.4,791.2z"/>
				<path class="st28" d="M1086,725.5l-1.1,11.8c0.2,3.3-0.1,6.6-0.8,9.8c-2.6,11.6-10.6,21.5-22,26.2l-43,17.8
					c0.4-0.8-0.3-4-8.3-15.8c-1.1-1.6-2.6-3-4.4-4.4l0-0.3c0,0,23.3-7.5,38.2-18.6c2.6-1.9,4.7-4,6.5-6.3c4.2-5.3,6.4-11.6,7.9-20
					c0.4-2.4,0.8-5,1.1-7.7c0.8-6.9,1.4-15,2.2-24.7c2.8-32.6,7-146.2,6.5-149.9c-0.4-3.6-4.5-5.9-5.5-6.8c1.9,0.8,3.6,1.8,5.3,2.9
					c7.9,5.4,13.9,14.7,18,26.4c3.3,10.3,5.1,22.5,5.4,35.7L1086,725.5z"/>
			</g>
			<g>
				<g>
					<path class="st17" d="M313.3,808.7l-143.9,10.8l-39.9-202.6l96.6-0.3c27.1-0.1,50.5,18.8,56.1,45.3L313.3,808.7z"/>
					<path class="st30" d="M140.2,810l-23.9-177.3c-1.1-7.9,4.5-15.2,12.4-16.3l0,0c7.9-1.1,15.2,4.5,16.3,12.4l23.9,177.3
						c1.1,7.9-4.5,15.2-12.4,16.3l0,0C148.6,823.5,141.3,817.9,140.2,810z"/>
					<g>
						<g>
							<rect x="222.2" y="834.3" class="st35" width="16.9" height="99.4"/>
							<path class="st18" d="M239,840.1V856h-16.9v-15.2C226.4,840.6,234.5,840.3,239,840.1z"/>
						</g>
						<path class="st11" d="M269.6,842.4h-75.3c-4.1,0-7.5-3.4-7.5-7.5l0,0c0-4.1,3.4-7.5,7.5-7.5h75.3c4.1,0,7.5,3.4,7.5,7.5l0,0
							C277.2,839,273.8,842.4,269.6,842.4z"/>
						<path class="st17" d="M306.5,833.3h-86.6c-10.4,0-18.8-8.5-18.8-18.8l0,0c0-10.4,8.5-18.8,18.8-18.8h86.6
							c10.4,0,18.8,8.5,18.8,18.8l0,0C325.3,824.8,316.9,833.3,306.5,833.3z"/>
						<path class="st30" d="M235.8,833.8h-80c-7.4,0-13.5-6.1-13.5-13.5v-10.8c0-7.4,6.1-13.5,13.5-13.5h80
							c7.4,0,13.5,6.1,13.5,13.5v10.8C249.3,827.8,243.2,833.8,235.8,833.8z"/>
						<g>
							<g>
								<path class="st28" d="M302,966.9h-10.5c0-12.6-10.2-22.8-22.8-22.8h-76.8c-12.6,0-22.8,10.2-22.8,22.8h-10.5
									c0-18.4,15-33.4,33.4-33.4h76.8C287,933.5,302,948.5,302,966.9z"/>
							</g>
							<rect x="218.2" y="917.7" class="st28" width="24.6" height="16.1"/>
						</g>
						<g>
							<path class="st28" d="M172,977.1c0,4.8-3.9,8.8-8.8,8.8s-8.8-3.9-8.8-8.8c0-4.8,3.9-8.8,8.8-8.8S172,972.2,172,977.1z"/>
							<path class="st11" d="M175.9,976.3h-24v-6c0-4.5,3.7-8.2,8.2-8.2h7.5c4.5,0,8.2,3.7,8.2,8.2V976.3z"/>
							<path class="st28" d="M306,977.1c0,4.8-3.9,8.8-8.8,8.8c-4.8,0-8.8-3.9-8.8-8.8c0-4.8,3.9-8.8,8.8-8.8
								C302.1,968.3,306,972.2,306,977.1z"/>
							<path class="st11" d="M309.9,976.3h-24v-6c0-4.5,3.7-8.2,8.2-8.2h7.5c4.5,0,8.2,3.7,8.2,8.2V976.3z"/>
						</g>
						<rect x="224" y="936.8" class="st28" width="14" height="31.6"/>
						<g>
							<path class="st28" d="M240,977.1c0,4.8-3.9,8.8-8.8,8.8s-8.8-3.9-8.8-8.8c0-4.8,3.9-8.8,8.8-8.8S240,972.2,240,977.1z"/>
							<path class="st11" d="M243.9,976.3h-24v-6c0-4.5,3.7-8.2,8.2-8.2h7.5c4.5,0,8.2,3.7,8.2,8.2V976.3z"/>
						</g>
					</g>
				</g>
				<g>
					<g>
						<g>
							<path class="st24" d="M408.7,672.2l23.9,6.8c1.7,0.5,3.6-0.5,4.1-2.3l0,0c0.5-1.7-0.5-3.6-2.3-4.1l-23.9-6.8
								c-1.7-0.5-3.6,0.5-4.1,2.3l0,0C405.9,669.8,406.9,671.7,408.7,672.2z"/>
							<path class="st24" d="M415.3,680.1l19.2,5.5c1.7,0.5,3.6-0.5,4.1-2.3l0,0c0.5-1.7-0.5-3.6-2.3-4.1l-19.2-5.5
								c-1.7-0.5-3.6,0.5-4.1,2.3l0,0C412.5,677.7,413.5,679.6,415.3,680.1z"/>
							<path class="st24" d="M409.8,684.5l22.7,6.5c1.7,0.5,3.6-0.5,4.1-2.3l0,0c0.5-1.7-0.5-3.6-2.3-4.1l-22.7-6.5
								c-1.7-0.5-3.6,0.5-4.1,2.3l0,0C407.1,682.2,408.1,684,409.8,684.5z"/>
							<path class="st24" d="M390.9,686.2l24.4,4.9c1.8,0.4,3.5-0.8,3.9-2.6l0,0c0.4-1.8-0.8-3.5-2.6-3.9l-24.4-4.9
								c-1.8-0.4-3.5,0.8-3.9,2.6l0,0C387.9,684.1,389.1,685.9,390.9,686.2z"/>
						</g>
						<path class="st24" d="M426.9,670.7c-0.3-0.1-3-1.4-5.9-2.8c-5.1-2.5-10.6-3.7-16.3-3.6l-10.8,0.2c0,0-2.1,17.9-1.3,17.7
							s23.7,4,23.7,4L426.9,670.7z"/>
					</g>
					<rect x="387.4" y="662.8" class="st46" width="10.3" height="27.6"/>
				</g>
				<g>
					<path class="st1" d="M335.1,967l62.7-2.4c3.7-0.1,6.7-3.3,6.5-7l0,0c-0.1-2.9-2-5.4-4.8-6.2l-31.4-9.7l-33.9,2.1L335.1,967z"/>
					<path class="st28" d="M399.1,966.3l-63.5,2.9l-0.2-4.5l68-3.1l0,0C403.6,964.1,401.7,966.2,399.1,966.3z"/>
				</g>
				<g>
					<line class="st47" x1="367.8" y1="950.9" x2="374.8" y2="942.7"/>
					<line class="st47" x1="373.3" y1="952.9" x2="380.3" y2="944.7"/>
					<line class="st47" x1="378.6" y1="955.7" x2="386.5" y2="946.5"/>
				</g>
				<g>
					<defs>
						<path id="SVGID_7_" d="M331.8,944.7c3.6-61.2,2.7-117.8-2.1-129.2c-4.9-7.1-34.3-24.6-63.2-37.6l16.2-36.2
							c20.3,9.1,68.8,32.6,81.3,54c5.3,9,10.3,26.7,7.9,89.1c-1.3,32.7-2.9,58.3-2.9,58.3L331.8,944.7z"/>
					</defs>
					<clipPath id="SVGID_8_">
						<use xlink:href="#SVGID_7_"  style="overflow:visible;"/>
					</clipPath>
					<g class="st48">
						<path class="st28" d="M331.8,944.7c3.6-61.2,2.7-117.8-2.1-129.2c-4.9-7.1-34.3-24.6-63.2-37.6l16.2-36.2
							c20.3,9.1,68.8,32.6,81.3,54c5.3,9,10.3,26.7,7.9,89.1c-1.3,32.7-2.9,58.3-2.9,58.3L331.8,944.7z"/>
					</g>
					<path class="st49" d="M261.1,757.5c0,0,73.8,26.6,82.4,47.7c8.5,21.1,5.5,139.1,5.5,139.1l-24.6,1l-81.8-191.8L261.1,757.5z"/>
				</g>
				<g>
					<path class="st50" d="M337,693.5c-19.5,0-37.4-11.4-45.6-29.2l-36.8-79.7l30.1-13.9l36.8,79.7c2.8,6,8.9,9.9,15.5,9.9
						c0.1,0,0.1,0,0.2,0l54.3-0.5l0.3,33.1l-54.3,0.5C337.3,693.5,337.2,693.5,337,693.5z"/>
				</g>
				<path class="st24" d="M248.5,565.2l-10.2-4.9c-6.9,0-12.5-5.6-12.5-12.5v-35.3c0-6.9,5.6-12.5,12.5-12.5h7.5
					c6.9,0,12.5,5.6,12.5,12.5v35.3C258.3,554.7,255.4,565.2,248.5,565.2z"/>
				<path class="st17" d="M309.4,468.7c-0.1,0.8-0.1,1.6-0.2,2.4c-0.4,3.8-1.3,7.5-2.5,11c-5.1,15-16.6,26.9-31.1,32.6
					c-7.2,2.8-15.1,4.2-23.4,3.6c-13.3-0.9-24.9,4.3-33.6-4.5c-2.8-2.8-5.3-5.9-7.5-9.3c-0.8-1.3-1.6-2.7-2.3-4.1
					c-4.4-8.4-6.9-29.1-6.2-39.3c2-28.7,26.2-50.5,54.7-49.7c0.8,0,1.6,0.1,2.4,0.1c18,1.3,33.2,11.2,41.9,25.5c0,0,0,0,0,0
					c2.6,4.2,4.5,8.8,5.9,13.6C309.2,456.4,309.9,462.5,309.4,468.7z"/>
				<g>
					<path class="st26" d="M238.9,479.1c-0.1,1.1-0.3,2.2-0.8,3.2c-0.5,1.2-1.3,2.4-2.3,3.3c-1.7,1.6-4.1,2.7-6.6,2.5l-5.4-0.3
						l-4.2-0.2l0.6-12.4h0l0.1-2.3l0.1-1.8l0.1-1.6l0-0.4h0l9.6,0.5c2.4,0.1,4.6,1.2,6.1,2.8c0.9,1,1.7,2.2,2.1,3.5
						C238.8,476.9,239,478,238.9,479.1z"/>
					<path class="st27" d="M305,473.8l-1,20l-0.2,3c-0.1,2-0.3,3.9-0.7,5.8c-3.4,17.7-18.1,31.3-36.1,33.5c-0.5,0.1-1.1,0.1-1.6,0.2
						c-1.9,0.2-3.9,0.2-5.9,0.1c-1.9-0.1-3.8-0.3-5.6-0.7c-3.6-0.7-7.1-1.8-10.3-3.3c0,0,0,0,0,0c-14-6.6-23.6-20.6-24.1-36.5
						c0-0.5,0-0.9,0-1.4c0-0.6,0-1.1,0-1.7v-0.3l0.1-1.4l0.2-3.6l0.6-12.3l0-0.1v0l0.1-2.3l0.1-1.8l0.1-1.6l0-0.4
						c0.2-2.8,0.7-5.6,1.6-8.2c0.6-1.8,1.3-3.6,2-5.3c0.1-0.3,0.2-0.5,0.3-0.8c0.6-1.4,1.4-2.8,2.2-4.1c0,0,0,0,0,0
						c3-5.1,7.1-9.4,11.9-12.8c1-0.7,2-1.3,3-1.9c7-4.1,15.3-6.3,24-5.9c11.6,0.6,22.1,5.8,29.4,13.8c3.9,4.3,6.5,9.3,8.3,14.8
						c0.7,2.1,1.2,4.3,1.4,6.5C305.1,467.9,305.2,470.8,305,473.8z"/>
					<path class="st26" d="M224.5,475.4l-0.6,12.4l-0.4,8.4l-3.3-0.2c-0.2,0-0.5,0-0.7-0.1c-5.5-0.7-9.6-5.7-9.4-11.2
						c0.1-2.9,1.5-5.2,3.5-7.1c1.8-1.6,4.2-2.5,6.8-2.5h0c0.3,0,0.6,0,0.9,0L224.5,475.4z"/>
				</g>
				<path class="st28" d="M289.8,490.6L289.8,490.6c-1,0-1.9-0.8-1.9-1.9v-6c0-1,0.8-1.9,1.9-1.9l0,0c1,0,1.9,0.8,1.9,1.9v6
					C291.7,489.8,290.9,490.6,289.8,490.6z"/>
				<path class="st28" d="M262.2,490.6L262.2,490.6c-1,0-1.9-0.8-1.9-1.9v-6c0-1,0.8-1.9,1.9-1.9l0,0c1,0,1.9,0.8,1.9,1.9v6
					C264.1,489.8,263.3,490.6,262.2,490.6z"/>
				<path class="st24" d="M258.3,536.3c0,0-7.5,0.5-14.8-3.8c0,0,0,0,0,0c-14-6.6-23.6-20.6-24.1-36.5c-5.5-0.7-9.6-5.7-9.4-11.2
					c0.1-2.9,1.5-5.2,3.5-7.1c1.8-1.6,4.2-2.5,6.8-2.5v0l0.1-2.3l0.1-1.8l0.1-1.6l0-0.4h0c0.2-2.8,0.7-5.6,1.6-8.2
					c5.7-3.2,11.5-3.8,14.8,3.3c0,0-0.3,3.2-0.6,8.1c-0.2,3.7-0.4,8.3-0.5,13.2c-0.1,10.1,0.5,21.3,3.1,28.1
					C244.5,528.3,258.3,536.3,258.3,536.3z"/>
				<path class="st17" d="M309,444.8h-72.5c-3.2,0-5.8-2.6-5.8-5.8v-4.6c0-3.2,2.6-5.8,5.8-5.8H309c3.2,0,5.8,2.6,5.8,5.8v4.6
					C314.8,442.2,312.2,444.8,309,444.8z"/>
				<path class="st17" d="M321.4,451.4c0.7,3.7-0.6,7.1-3,9.5c-1.9,1.9-4.6,3.1-7.5,3.1H249c-8.9,0-16.1,7.2-16.1,16.1v10
					c0,3.3-2.7,6-6,6h-1.4c-3.3,0-6-2.7-6-6v-30.2c0-0.2,0-0.5,0-0.7c-1.1-1.7-1.8-3.7-1.8-5.9c0-2.9,1.2-5.6,3.1-7.5
					c1.9-1.9,4.6-3.1,7.5-3.1h82.2C315.7,442.6,320.5,446.2,321.4,451.4z"/>
				<g>
					<path class="st17" d="M300.4,475.3h-13.3c-1.3,0-2.4-1.1-2.4-2.4l0,0c0-1.3,1.1-2.4,2.4-2.4h13.3c1.3,0,2.4,1.1,2.4,2.4l0,0
						C302.8,474.2,301.7,475.3,300.4,475.3z"/>
					<path class="st17" d="M268,475.3h-13.3c-1.3,0-2.4-1.1-2.4-2.4l0,0c0-1.3,1.1-2.4,2.4-2.4H268c1.3,0,2.4,1.1,2.4,2.4l0,0
						C270.4,474.2,269.3,475.3,268,475.3z"/>
					<g class="st51">
						<polygon class="st2" points="263.4,480.1 269.6,492.4 274.4,491.9 267.9,480.1 						"/>
						<polygon class="st2" points="292.7,480.1 299,492.4 303.8,491.9 297.3,480.1 						"/>
					</g>
					<path class="st52" d="M301.4,493.1h-15.8c-1.1,0-2.1-0.9-2.1-2.1v-9.5c0-1.1,0.9-2.1,2.1-2.1h15.8c1.1,0,2.1,0.9,2.1,2.1v9.5
						C303.5,492.1,302.5,493.1,301.4,493.1z"/>
					<path class="st53" d="M273.7,493.1h-17.3c-1.2,0-2.1-1-2.1-2.1v-9.3c0-1.2,1-2.1,2.1-2.1h17.3c1.2,0,2.1,1,2.1,2.1v9.3
						C275.9,492.1,274.9,493.1,273.7,493.1z"/>
					<path class="st54" d="M283.8,509.2c-2.2,2.3-5.7,3.7-9.5,3.5c-3.2-0.2-6-1.4-8-3.3"/>
					<path class="st24" d="M284.8,498.4c0,0.1-0.3,0-0.3,0c-0.1,2.1-1.9,3.8-6.5,3.7l-0.5-16.9C282.4,491.4,284.5,494.9,284.8,498.4
						z"/>
					<line class="st53" x1="276.2" y1="486.3" x2="284.2" y2="486.6"/>
				</g>
				<path class="st55" d="M295.2,600.3l0.6,149.2l-115.1,0.6l-1.6-149.8c0-24.5,17.7-44.8,41-48.9c2.8-0.5,26.4,16.7,29.4,16.7
					l9.6-15.6C274.4,554.3,295.2,572.8,295.2,600.3z"/>
				<path class="st28" d="M286.4,765.8c0,6.9-2.4,13.1-6.5,18c-5.2,6.3-13,10.3-21.8,10.3h-47.6c-1.4,0-2.8-0.1-4.2-0.3
					c-3.5-0.5-6.8-1.7-9.7-3.3c-0.5-0.3-1-0.6-1.5-0.9c-7.8-5-12.9-13.8-12.9-23.7l0.9-15.1l102.6-0.9L286.4,765.8z"/>
				<g>
					<polygon class="st56" points="249.8,739.4 220.7,547.6 239,549.3 249.4,562.6 259.4,549.3 265.1,547.6 					"/>
				</g>
				<g>
					<path class="st1" d="M256.8,956.2l58.7,22.2c3.5,1.3,7.4-0.4,8.7-3.9l0,0c1-2.7,0.2-5.7-2-7.6L297,945.7l-32-11.2L256.8,956.2z
						"/>
					<path class="st28" d="M316,980.5l-59.6-22.1l1.6-4.3l63.8,23.6l0,0C321,980.1,318.4,981.3,316,980.5z"/>
				</g>
				<g>
					<path class="st43" d="M305.1,882.7c-0.8,32.4-3.7,62-3.8,63.3l-21-2l-18.5-1.8c5.4-55.2,5.1-110.8-0.5-122.7
						c-6.5-6.1-31.6-17.2-55.1-25.6c-3.3-1.2-6.6-2.3-9.7-3.3c-0.6-0.2-1.1-0.4-1.7-0.6l0.1-0.4c0,0,19.4-34.1,60.3-22.4
						c8.6,2.5,15.7,10.7,24.6,16.7c4.6,3.1,8.5,6.3,11.4,9.4C299.4,802.3,306.8,819.3,305.1,882.7z"/>
				</g>
				<g>
					<line class="st47" x1="291.1" y1="952.1" x2="300.9" y2="947.6"/>
					<line class="st47" x1="295.2" y1="956.2" x2="305" y2="951.7"/>
					<line class="st47" x1="298.9" y1="961" x2="309.9" y2="955.8"/>
				</g>
				<path class="st57" d="M221.9,619.4l-42.9-17.6v-1.6c0-24.5,17.7-44.8,41-48.9c0.1,0.1,0.2,0.2,0.3,0.3L221.9,619.4z"/>
				<path class="st28" d="M280.3,943.9l-18.5-1.8c5.4-55.2,5.1-110.8-0.5-122.7c-6.5-6.1-31.6-17.2-55.1-25.6
					c-3.5-0.5-6.8-1.7-9.7-3.3c-0.6-0.2-1.1-0.4-1.7-0.6l0.1-0.4c-7.8-5-12.9-13.8-12.9-23.7l0.9-15.1l16.4,2.2
					c-0.4,1.2-2.6,12.7,1.4,19.6c1.1,2,2.8,3.6,5.1,4.5c6.4,2.4,30.8,8.4,50.1,17.1c12.5,5.6,23,12.4,25.2,20.1
					C286.3,832.3,281.1,929.1,280.3,943.9z"/>
			</g>
			<g>
				<g>
					<path class="st58" d="M775.3,975.8c0,8.5-45.2,15.5-101,15.5c-55.8,0-101-6.9-101-15.5c0-2-2.6-9.2,2-11
						c14.8-5.7,56.4-4.5,99-4.5c41.8,0,81.4-1,96.7,4.5C776.1,966.7,775.3,973.7,775.3,975.8z"/>
					<path class="st59" d="M775.3,966c0,0.3-0.1,0.7-0.2,1c-3.4,8.1-47.2,14.5-100.8,14.5c-53.5,0-97.3-6.4-100.8-14.5
						c-0.2-0.3-0.2-0.7-0.2-1c0-8.5,45.2-15.5,101-15.5C730.1,950.5,775.3,957.5,775.3,966z"/>
					<path class="st58" d="M775.3,966c0,0.3-0.1,0.7-0.2,1H573.5c-0.2-0.3-0.2-0.7-0.2-1c0-8.5,45.2-15.5,101-15.5
						C730.1,950.5,775.3,957.5,775.3,966z"/>
					<path class="st35" d="M693.8,723.8v238.3c0,3.2-2.6,5.9-5.9,5.9h-25.3c-3.2,0-5.9-2.6-5.9-5.9V723.8H693.8z"/>
					<path class="st60" d="M681.3,786.6v169.2c0,1.6-1.3,2.8-2.8,2.8h-10.2c-1.6,0-2.8-1.3-2.8-2.8V786.6c0-1.6,1.3-2.8,2.8-2.8
						h10.2C680,783.7,681.3,785,681.3,786.6z"/>
					<path class="st18" d="M689.6,822.4H661c-2.3,0-4.2-1.9-4.2-4.2V699.6h37.1v118.5C693.8,820.5,691.9,822.4,689.6,822.4z"/>
				</g>
				<g>
					<path class="st58" d="M1047.9,710.6c0,14-175.4,25.9-389,25.9s-386.8-11.3-386.8-25.3c0-2.4-0.5-9.2,8.9-11.4
						c45.9-10.6,200.8-13.9,377.8-13.9c185.9,0,350.1-3.5,386.8,9.4c1.1,0.4,2.1,2.8,2.1,2.8S1047.9,709.5,1047.9,710.6z"/>
					<path class="st59" d="M1047.9,697.9c0,2.7-6.5,5.3-18.5,7.8c-50,10.2-196,17.5-368.3,17.5c-156,0-290.5-6-351.6-14.7
						c-22.6-3.2-35.1-6.8-35.1-10.6c0-3.4,10-6.6,28.3-9.5c25.8-4.2,67.9-7.8,121.2-10.5c65.5-3.3,147.9-5.3,237.4-5.3
						c5.1,0,10.2,0,15.3,0c110.4,0.3,208.9,3.6,276.7,8.7C1012.2,685.8,1047.9,691.6,1047.9,697.9z"/>
					<path class="st58" d="M676.5,672.6L676.5,672.6c0,7.9-6.4,14.4-14.4,14.4H423.8V678c65.5-3.3,147.9-5.3,237.4-5.3
						C666.3,672.6,671.4,672.6,676.5,672.6z"/>
				</g>
				<g>
					<g>
						<path class="st61" d="M592.1,595.6v87.1H447.8v-87.1c0-8.5,6.9-15.4,15.4-15.4h113.6c4.5,0,8.6,2,11.4,5.1
							C590.6,587.9,592.1,591.6,592.1,595.6z"/>
					</g>
					<g>
						
							<ellipse transform="matrix(0.9239 -0.3827 0.3827 0.9239 -202.0503 247.0521)" class="st2" cx="520" cy="631.4" rx="10.7" ry="10.7"/>
					</g>
				</g>
				<path class="st58" d="M471.6,698.5L471.6,698.5c0,5.5-4.5,10-10,10H309.5c-22.6-3.2-35.1-6.8-35.1-10.6c0-3.4,10-6.6,28.3-9.5
					h159C467.1,688.4,471.6,692.9,471.6,698.5z"/>
				<path class="st58" d="M1047.9,697.9c0,2.7-6.5,5.3-18.5,7.8H880.6c-5.5,0-28.3-24.3-22.7-24.3h95.3
					C1012.2,685.8,1047.9,691.6,1047.9,697.9z"/>
			</g>
			<g>
				<g>
					<path class="st31" d="M633.8,641v41.4h34.6V641c0-1.8-1.5-3.3-3.3-3.3h-28C635.3,637.7,633.8,639.2,633.8,641z"/>
					<g>
						<path class="st40" d="M668,675.3c0.5-0.3,11.1-6.5,12-17.4c0.4-4.2-1.2-6.7-2.6-8.2c-3.8-3.9-10.1-3.7-10.8-3.7l0.3,5.1
							c1.3-0.1,5.1,0.2,6.9,2.1c1,1,1.3,2.4,1.2,4.2c-0.7,8.3-9.4,13.4-9.5,13.4L668,675.3z"/>
					</g>
					<path class="st62" d="M642.4,664.1h9.9c3.4,0,6.2-2.8,6.2-6.2l0,0c0-3.4-2.8-6.2-6.2-6.2h-9.9c-3.4,0-6.2,2.8-6.2,6.2l0,0
						C636.2,661.3,638.9,664.1,642.4,664.1z"/>
				</g>
				<path class="st40" d="M650,682.4h18.4V641c0-1.8-1.5-3.3-3.3-3.3H664c-0.1,2.2-0.6,18.7-5.3,30.6
					C654.7,678.6,651.1,681.7,650,682.4z"/>
			</g>
			<g>
				<g>
					<path class="st63" d="M452.8,696.4h-96.2c-6.3,0-10.4-6.5-7.8-12.2l33.5-71.6c2.9-6.2,9.2-10.2,16.1-10.2H487
						c4.6,0,7.6,4.8,5.7,8.9L452.8,696.4z"/>
					<g>
						<g>
							<path class="st64" d="M356.6,701.6h-68.6c-2.8,0-5-2.3-5-5l0,0c0-2.8,2.3-5,5-5h68.6c2.8,0,5,2.3,5,5l0,0
								C361.7,699.3,359.4,701.6,356.6,701.6z"/>
						</g>
						<g>
							<rect x="322.2" y="694.8" class="st28" width="9.8" height="2.9"/>
							<rect x="312.2" y="694.8" class="st28" width="7.1" height="2.9"/>
						</g>
					</g>
					<path class="st64" d="M451,701.3h-96.4c-3.5,0-5.7-3.6-4.3-6.7l36.1-77.1c2.9-6.2,9.2-10.2,16.1-10.2h88.5
						c4.6,0,7.6,4.8,5.7,8.9L459.4,696C457.8,699.2,454.6,701.3,451,701.3z"/>
				</g>
				<path class="st2" d="M430,659.8c-2.3,5.3-6.6,8.6-9.5,7.4c-3-1.3-3.6-6.6-1.3-12c2.3-5.3,6.6-8.6,9.5-7.4
					C431.7,649.1,432.2,654.4,430,659.8z"/>
			</g>
			<path class="st65" d="M871.8,673.2c0,0,2.5-0.3,2.9-1.8c0.4-1.5-0.4-3.5-0.4-3.5s0.8-1.4,0.8-1.8c0-0.4,0.8-7.3,0.8-7.3
				s6.5,2.4,10.5,6.4c8.1,8.2,4.1,10.8,2.2,12.2C886.8,678.8,881.1,678.5,871.8,673.2z"/>
			<g>
				<g>
					<path class="st2" d="M866.3,682.8l13.8,14.3l89.7-6.7l-31-11.9L870,675c-1.4-0.1-2.7,0.5-3.6,1.5l0,0
						C864.7,678.2,864.7,681,866.3,682.8z"/>
					<path class="st66" d="M969.8,698.1h-87.2c-2.2,0-3.9-1.8-3.9-3.9l0,0c0-2.2,1.8-3.9,3.9-3.9h87.2V698.1z"/>
				</g>
				<rect x="879.7" y="697" class="st31" width="91.4" height="2"/>
				<polygon class="st40" points="865.2,683.3 879.8,699.2 879.7,697 865,680.8 				"/>
			</g>
			<polygon class="st43" points="886.5,675 885.8,680 882.5,676.4 870,640.3 874,639 			"/>
			<path class="st24" d="M876.3,665.4l-6.8-5.5c-1.2-1-1.4-2.8-0.4-4l0,0c1-1.2,2.8-1.4,4-0.4l6.8,5.5c1.2,1,1.4,2.8,0.4,4l0,0
				C879.4,666.2,877.5,666.4,876.3,665.4z"/>
			<path class="st24" d="M889.5,661.4l-7.4,7.4c-0.8,0.8-2.1,0.8-2.9,0l-1.2-1.2c-0.8-0.8-0.8-2.1,0-2.9l7.4-7.4
				c0.8-0.8,2.1-0.8,2.9,0l1.2,1.2C890.3,659.3,890.3,660.6,889.5,661.4z"/>
			<g>
				<g>
					<g>
						<path class="st27" d="M975.9,682.4l-23.6,0.1c-1,0-1.9-0.9-1.9-1.9l0-1.7c0-1,0.8-1.9,1.9-1.9l23.6-0.1c1,0,1.9,0.9,1.9,1.9
							l0,1.7C977.8,681.5,976.9,682.4,975.9,682.4z"/>
						<path class="st27" d="M970.1,688.9l-19.3,0c-1,0-1.9-0.9-1.9-1.9l0-1.7c0-1,0.8-1.9,1.9-1.9l19.3,0c1,0,1.9,0.9,1.9,1.9l0,1.7
							C972,688.1,971.1,688.9,970.1,688.9z"/>
						<path class="st27" d="M975.2,695.4l-22.5,0c-1,0-1.9-0.9-1.9-1.9l0-1.7c0-1,0.8-1.9,1.9-1.9l22.5,0c1,0,1.9,0.9,1.9,1.9l0,1.7
							C977.1,694.6,976.3,695.4,975.2,695.4z"/>
					</g>
					<path class="st27" d="M964.9,678.6c0.2,0,2.8-0.4,5.6-0.9c4.8-0.8,9.8-0.5,14.5,0.8l9,2.6c0,0-2.5,14.4-3.1,14.6
						c-15.6,5.3-22.3-0.9-22.3-0.9L964.9,678.6z"/>
				</g>
				<g>
					<path class="st27" d="M1086.5,590.4c0,0-2,26.5-5.5,48.6c-1,6.1-2.1,11.9-3.2,16.7c-0.3,1.4-0.7,2.7-1.1,4.1
						c-5.1,16.7-15.3,28-33.7,30.9c-0.2,0-54.9,6.1-54.9,6.1l-2.3-18.2l55.3-10.6c6.1-0.9,12.3-11.2,14.5-17.5
						c0.2-0.5,0.3-1,0.4-1.4c0.9-3.4,1.7-7.6,2.5-12.2c4.8-27.7,8.1-71.9,8.1-71.9L1086.5,590.4z"/>
				</g>
				<path class="st24" d="M1058.4,636.7l22.5,2.3c-1,6.1-2.1,11.9-3.2,16.7c-0.3,1.4-0.7,2.7-1.1,4.1l-21.1-9.5L1058.4,636.7z"/>
				<path class="st44" d="M1088.1,598.1l-3.1,47.2l-7.8-0.6l-22.8-1.9c0,0,4.6-58.9,6.1-74.8c1.5-15.9,14.1-13.5,16.8-11.6
					C1086,562.2,1087.7,576.7,1088.1,598.1z"/>
				<path class="st2" d="M1056.9,638.4l26.4,3c2.1,0.2,3.6,2.1,3.4,4.1l0,0c-0.2,2.1-2.2,3.6-4.3,3.3l-26.4-3.2
					c-1.9-0.2-3.3-1.8-3.3-3.7l0,0C1052.7,639.8,1054.7,638.1,1056.9,638.4z"/>
			</g>
			<path class="st67" d="M888.2,684.9c0.7,0.4,1.6,0.6,2.4,0.6c-0.6-1.7-1.9-3.1-3.5-3.9c0.5,0.1,1.1,0.2,1.6,0.4
				c-0.7-0.7-1.4-1.3-2.1-2"/>
			<path class="st67" d="M895.9,685.6c0.8,0.1,1.7,0.1,2.5,0.2c-1.1-1.9-2.9-3.4-4.9-4.3c1.1,0.5,2.3,0.7,3.5,0.5
				c-1.3-1.4-3.1-2.3-5-2.4"/>
			<path class="st67" d="M905.2,685.2c0.3-0.3,0.5-0.6,0.8-0.8c-1.6-1.6-3.5-2.8-5.6-3.6c1.2,0.4,2.5,0.5,3.7,0.1
				c-1-1.6-2.6-2.8-4.5-3.2"/>
			<g>
				<g>
					<g>
						<g>
							<g>
								<path class="st24" d="M319.1,685.1l24.5-3.9c1.8-0.3,3-2,2.7-3.8l0,0c-0.3-1.8-2-3-3.8-2.7l-24.5,3.9c-1.8,0.3-3,2-2.7,3.8
									l0,0C315.6,684.2,317.3,685.4,319.1,685.1z"/>
								<path class="st24" d="M326.9,691.8l19.7-3.2c1.8-0.3,3-2,2.7-3.8l0,0c-0.3-1.8-2-3-3.8-2.7l-19.7,3.2c-1.8,0.3-3,2-2.7,3.8
									l0,0C323.4,690.8,325.1,692.1,326.9,691.8z"/>
								<path class="st24" d="M322.3,700.4l23.3-3.7c1.8-0.3,3-2,2.7-3.8l0,0c-0.3-1.8-2-3-3.8-2.7l-23.3,3.7c-1.8,0.3-3,2-2.7,3.8
									l0,0C318.9,699.4,320.6,700.7,322.3,700.4z"/>
							</g>
							<path class="st24" d="M329.7,678.8c-0.3,0-3.3,0-6.5-0.1c-5.6-0.1-11.2,1.2-16.3,3.6l-9.7,4.8c0,0,5.5,16.5,6.3,16.6
								c18.7,3.4,25.1-5.1,25.1-5.1L329.7,678.8z"/>
						</g>
						<rect x="306.9" y="678.7" class="st46" width="8.3" height="26.9"/>
					</g>
					<g>
						<path class="st57" d="M252.7,708.6c-19.5,0-37.4-11.4-45.6-29.2l-0.4-0.9l-25.6-78.1l31.5-10.3l24.9,76.1
							c3,5.7,8.9,9.3,15.3,9.2l54.3-0.5l0.3,33.1l-54.3,0.5C253,708.6,252.8,708.6,252.7,708.6z"/>
					</g>
				</g>
			</g>
		</g>
	</g>
	<g>
		<g>
			<g>
				<defs>
					<path id="SVGID_9_" d="M711.3,926.4c-3.7-62.9-2.7-121.1,2.2-132.8c5-7.3,35.2-25.3,64.9-38.6l-16.7-37.3
						c-20.9,9.3-70.8,33.5-83.6,55.5c-5.4,9.3-10.6,27.4-8.1,91.6c1.3,33.6,3,59.9,3,59.9L711.3,926.4z"/>
				</defs>
				<clipPath id="SVGID_10_">
					<use xlink:href="#SVGID_9_"  style="overflow:visible;"/>
				</clipPath>
			</g>
		</g>
		<g>
			<g>
				<defs>
					<path id="SVGID_11_" d="M331.8,944.7c3.6-61.2,2.7-117.8-2.1-129.2c-4.9-7.1-34.3-24.6-63.2-37.6l16.2-36.2
						c20.3,9.1,68.8,32.6,81.3,54c5.3,9,10.3,26.7,7.9,89.1c-1.3,32.7-2.9,58.3-2.9,58.3L331.8,944.7z"/>
				</defs>
				<clipPath id="SVGID_12_">
					<use xlink:href="#SVGID_11_"  style="overflow:visible;"/>
				</clipPath>
			</g>
		</g>
	</g>
</g>
<g>
	<g>
		<g>
			<path class="st68" d="M543.6,490.3h-45.3c-14.6,0-26.5-11.9-26.5-26.5v-52.3c0-18.4,14.9-33.3,33.3-33.3h31.7
				c18.4,0,33.3,14.9,33.3,33.3v52.3C570.1,478.4,558.2,490.3,543.6,490.3z"/>
		</g>
		<g>
			<path class="st69" d="M529.4,527.2h-18.8c-5.6,0-10.3-4.6-10.3-10.3v-41.1c0-5.6,4.6-10.3,10.3-10.3h18.8
				c5.6,0,10.3,4.6,10.3,10.3V517C539.7,522.6,535.1,527.2,529.4,527.2z"/>
		</g>
		<g>
			<path class="st70" d="M566.9,434.9l-1.1,21l-0.2,3.1c-0.1,2.1-0.4,4.1-0.7,6.1c-3.2,16.7-16,29.9-32.3,34
				c-1.8,0.5-3.7,0.8-5.6,1.1c-0.6,0.1-1.2,0.1-1.7,0.2c-1.2,0.1-2.4,0.2-3.6,0.2c-0.9,0-1.7,0-2.6-0.1c-2-0.1-3.9-0.3-5.8-0.7
				c-0.8-0.1-1.6-0.3-2.3-0.5c-3-0.7-5.8-1.7-8.4-3c0,0,0,0,0,0c-12.8-6-22.1-18-24.7-32c0,0,0-0.1,0-0.1c-0.3-1.5-0.4-3-0.6-4.6
				c0-0.5-0.1-1-0.1-1.5c0-0.5,0-1,0-1.5c0-0.6,0-1.2,0-1.8v-0.3l0.1-1.4l0.2-3.7l0.3-6.4V443l0.3-6.5l0-0.1v0l0.1-2.4l0.1-1.9
				l0.1-1.7l0-0.4c0.2-3,0.8-5.8,1.6-8.6c0.6-1.9,1.3-3.8,2.1-5.6c0.1-0.3,0.2-0.6,0.3-0.8c0.7-1.5,1.4-3,2.3-4.3c0,0,0,0,0,0
				c3.2-5.3,7.5-9.9,12.5-13.5c1-0.7,2.1-1.4,3.1-2c7.4-4.3,16-6.6,25.2-6.2c12.2,0.6,23.2,6.1,30.8,14.5c2.2,2.5,4.1,5.1,5.6,8.1
				c1.2,2.4,2.3,4.8,3.2,7.5c0.6,1.6,1,3.3,1.3,5c0,0,0,0,0,0c0.1,0.6,0.2,1.2,0.2,1.7c0.1,1,0.2,2.1,0.3,3.1
				C567,430.8,567,432.9,566.9,434.9z"/>
		</g>
		<g>
			<g>
				<path class="st19" d="M538.7,448.5L538.7,448.5c-1.1,0-2-0.9-2-2v-6.3c0-1.1,0.9-2,2-2l0,0c1.1,0,2,0.9,2,2v6.3
					C540.7,447.6,539.8,448.5,538.7,448.5z"/>
			</g>
			<g>
				<path class="st19" d="M504.2,448.3L504.2,448.3c-1.1,0-2-0.9-2-2V440c0-1.1,0.9-2,2-2l0,0c1.1,0,2,0.9,2,2v6.3
					C506.2,447.4,505.3,448.3,504.2,448.3z"/>
			</g>
			<g>
				<path class="st68" d="M545.9,432.5h-14.7c-1.2,0-2.1-0.9-2.1-2.1l0,0c0-1.2,0.9-2.1,2.1-2.1h14.7c1.2,0,2.1,0.9,2.1,2.1l0,0
					C548,431.6,547,432.5,545.9,432.5z"/>
			</g>
			<g>
				<path class="st68" d="M511.9,432.5h-14.7c-1.2,0-2.1-0.9-2.1-2.1l0,0c0-1.2,0.9-2.1,2.1-2.1h14.7c1.2,0,2.1,0.9,2.1,2.1l0,0
					C514,431.6,513.1,432.5,511.9,432.5z"/>
			</g>
			<g>
				<path class="st69" d="M514.9,454.4h12.7C527.6,454.4,521.6,462.9,514.9,454.4z"/>
			</g>
		</g>
		<g>
			<path class="st69" d="M566.9,434.9l-1.1,21l-0.2,3.1c-0.1,2.1-0.4,4.1-0.7,6.1c-3.2,16.7-16,29.9-32.3,34
				c-1.8,0.5-3.7,0.8-5.6,1.1c-0.6,0.1-1.2,0.1-1.7,0.2c-1.2,0.1-2.4,0.2-3.6,0.2c-0.9,0-1.7,0-2.6-0.1c-2.3-0.1-4.5-0.3-6.6-0.7
				c-0.4-0.1-0.9-0.1-1.3-0.2c-3-0.7-5.8-1.7-8.5-3c0,0,0,0,0,0c-12.9-6.1-22.3-18.1-24.8-32.2c0,0,0-0.1,0-0.1
				c-0.3-1.5-0.5-3-0.6-4.6c0-0.5-0.1-1-0.1-1.5c0-0.5,0-1,0-1.5c0-0.6,0-1.2,0-1.8v-0.3l0.1-1.4l0.2-3.7l0.3-6.4
				c-2.5,22.5,13.1,51.6,42.3,52.8c40.5,1.7,46.2-41.4,46.8-67C567,430.8,567,432.9,566.9,434.9z"/>
		</g>
	</g>
	<g>
		<path class="st68" d="M475.5,435.9l8.2-2.8c5-4.9,9.1-10.6,12.1-16.8l5.5-11.2c0,0,9,13.6,37.3,17.9c11.6,1.7,29,2.8,29,14
			l-0.1-19.7c0,0-15.5-42.6-54.9-32.5C473.1,395,475.5,435.9,475.5,435.9z"/>
	</g>
	<g>
		<path class="st68" d="M540.8,382.7c0,0,36.8,19.2,36.8,20.8c0,1.6-11.7,11.2-24,5.3C541.3,403,540.8,382.7,540.8,382.7z"/>
	</g>
	<g>
		<path class="st68" d="M539.7,392.3c0,0,36.8,19.2,36.8,20.8s-11.7,11.2-24,5.3C540.2,412.5,539.7,392.3,539.7,392.3z"/>
	</g>
	<g>
		<path class="st71" d="M522.2,472.4c-0.3,0-0.5,0-0.8,0c-3.5-0.2-6.7-1.5-9-3.7l1.1-1.2c2.1,1.9,4.9,3.1,8,3.2
			c3.7,0.2,7.2-1.1,9.4-3.4l1.2,1.1C529.6,471,526.1,472.4,522.2,472.4z"/>
	</g>
</g>
</svg>
